<svg width="70" height="70" viewBox="0 0 70 70" fill="none" xmlns="http://www.w3.org/2000/svg">
<path d="M46.523 60.15H46.673V60V57.5713C46.673 56.7126 46.0363 55.9902 45.223 55.9902H38.2581V49.1948H60.7253H60.7256C61.9815 49.1923 63.1852 48.6923 64.0732 47.8043C64.9613 46.9162 65.4613 45.7125 65.4638 44.4566V44.4563V14.5885V14.5882C65.4613 13.3323 64.9613 12.1286 64.0732 11.2406C63.1852 10.3525 61.9815 9.85251 60.7256 9.85H60.7253L8.5885 9.85L8.5882 9.85C7.33191 9.85251 6.12784 10.3528 5.23973 11.2414C4.35162 12.13 3.85188 13.3343 3.85 14.5906V14.5908L3.85 44.4563L3.85 44.4566C3.85251 45.7125 4.35252 46.9162 5.24056 47.8043C6.1286 48.6923 7.33232 49.1923 8.5882 49.1948H8.5885H31.0557V55.9902H24.0908C23.2775 55.9902 22.6408 56.7126 22.6408 57.5713V60V60.15H22.7908H46.523ZM37.3833 56.7149V56.8649H37.5333H45.223C45.5178 56.8649 45.7983 57.1574 45.7983 57.5713V59.2753H23.5155V57.5713C23.5155 57.1574 23.796 56.8649 24.0908 56.8649H31.7805H31.9305V56.7149V48.4701V48.3201H31.7805H8.58885C7.56473 48.3178 6.58323 47.9099 5.85907 47.1858C5.13496 46.4616 4.7271 45.4802 4.72471 44.4562V14.5887C4.7271 13.5646 5.13496 12.5832 5.85907 11.8591C6.58319 11.135 7.56462 10.7271 8.58867 10.7247H60.7251C61.7495 10.7271 62.7313 11.1353 63.4555 11.8599C64.1797 12.5845 64.5873 13.5666 64.5891 14.5911V44.456C64.5867 45.4801 64.1789 46.4616 63.4547 47.1858C62.7306 47.9099 61.7491 48.3178 60.7249 48.3201H37.5333H37.3833V48.4701V56.7149ZM36.4856 46.022V46.0218C36.4856 45.66 36.3783 45.3064 36.1773 45.0055C35.9763 44.7047 35.6906 44.4702 35.3564 44.3318C35.0221 44.1933 34.6543 44.1571 34.2994 44.2277C33.9446 44.2983 33.6186 44.4725 33.3628 44.7283C33.107 44.9842 32.9327 45.3101 32.8622 45.665C32.7916 46.0198 32.8278 46.3876 32.9663 46.7219C33.1047 47.0561 33.3392 47.3419 33.64 47.5429C33.9408 47.7439 34.2945 47.8512 34.6563 47.8512V47.7018L34.6565 47.8512C35.1414 47.8505 35.6063 47.6576 35.9492 47.3147C36.292 46.9718 36.485 46.507 36.4856 46.022ZM34.126 45.2281C34.2607 45.1381 34.4157 45.0841 34.5762 45.0706L34.6562 45.0707C34.9088 45.0709 35.151 45.1712 35.3299 45.3496C35.5087 45.5278 35.6098 45.7696 35.6109 46.022C35.6109 46.2108 35.5549 46.3953 35.45 46.5522C35.3451 46.7092 35.1961 46.8315 35.0216 46.9038C34.8472 46.976 34.6553 46.9949 34.4701 46.9581C34.2849 46.9213 34.1148 46.8303 33.9813 46.6968C33.8478 46.5633 33.7569 46.3932 33.7201 46.2081C33.6832 46.0229 33.7021 45.831 33.7744 45.6565C33.8466 45.4821 33.969 45.333 34.126 45.2281ZM62.5942 43.1822H62.7442V43.0322V13.3184V13.1684H62.5942H6.71954H6.56954V13.3184V43.0322V43.1822H6.71954H62.5942ZM61.8695 42.3075H7.44425V14.0431H61.8695V42.3075Z" fill="#70AD4D" stroke="#70AD4D" stroke-width="0.3"/>
<path d="M23.9867 21.8862V22.0362H24.1367H24.9396V28.1758V28.3258H25.0896H25.7723H25.9223V28.1758V21.2793V21.1293H25.7723H24.1367H23.9867V21.2793V21.8862Z" fill="#70AD4D" stroke="#70AD4D" stroke-width="0.3"/>
<path d="M29.6056 28.3431C30.5238 28.3454 31.193 28.0219 31.5659 27.346C31.9228 26.699 32.0938 25.8006 32.0938 24.6655C32.0938 23.5543 31.9226 22.6694 31.5658 22.025L31.5658 22.025L31.5653 22.024C31.1906 21.3589 30.522 21.0379 29.6065 21.0339C28.6899 21.0299 28.021 21.3513 27.6471 22.0248C27.2901 22.6664 27.119 23.5514 27.119 24.6655C27.119 25.8026 27.2884 26.701 27.6421 27.3457C28.0121 28.02 28.6829 28.343 29.6056 28.3431ZM29.6056 28.3431C29.6057 28.3431 29.6058 28.3431 29.6058 28.3431V28.1931L29.6054 28.3431C29.6055 28.3431 29.6056 28.3431 29.6056 28.3431ZM31.1552 23.1551L31.0077 23.182C31.0964 23.6695 31.1376 24.1645 31.1306 24.6599L31.1305 24.6599L31.1306 24.6644C31.1385 25.1725 31.0973 25.6802 31.0076 26.1804L31.0076 26.1804L31.0074 26.1817C30.9491 26.5248 30.7922 26.8434 30.5559 27.0987C30.3478 27.3098 30.0391 27.4263 29.6056 27.427C29.1721 27.4277 28.8642 27.3111 28.657 27.0989C28.4202 26.8439 28.2632 26.5251 28.2055 26.182L28.2055 26.182L28.2051 26.18C28.1144 25.6812 28.0725 25.1747 28.0799 24.6677L28.08 24.6677L28.0799 24.6633C28.0729 24.1668 28.1148 23.6707 28.205 23.1824L28.2051 23.1824L28.2054 23.1805C28.2639 22.8388 28.4208 22.5216 28.657 22.2678C28.8633 22.0563 29.1713 21.9396 29.6058 21.9396C30.0402 21.9396 30.3487 22.0562 30.5558 22.2678C30.7916 22.5219 30.9485 22.839 31.0074 23.1806L31.1552 23.1551Z" fill="#70AD4D" stroke="#70AD4D" stroke-width="0.3"/>
<path d="M35.5321 28.3431C36.4488 28.3454 37.1175 28.0218 37.4911 27.3461C37.8489 26.6991 38.0202 25.8006 38.0202 24.6655C38.0202 23.5543 37.8487 22.6694 37.491 22.0249L37.4908 22.0244C37.1183 21.3588 36.4498 21.0379 35.5329 21.0339C34.615 21.0299 33.9459 21.3511 33.5735 22.0249C33.2157 22.6665 33.0443 23.5515 33.0443 24.6655L33.0443 24.6656C33.0451 25.8027 33.2148 26.701 33.5686 27.3457C33.9386 28.02 34.6094 28.343 35.5321 28.3431ZM35.5321 28.3431C35.5321 28.3431 35.5322 28.3431 35.5323 28.3431V28.1931L35.5319 28.3431C35.5319 28.3431 35.532 28.3431 35.5321 28.3431ZM34.1315 23.1822L34.1315 23.1822L34.1319 23.1803C34.1899 22.8388 34.3465 22.5216 34.5822 22.2678C34.7894 22.0562 35.0978 21.9396 35.5323 21.9396C35.9667 21.9396 36.2751 22.0562 36.4823 22.2678C36.718 22.5219 36.8749 22.839 36.9339 23.1806L37.0817 23.1551L36.9341 23.1819C37.0226 23.6705 37.0634 24.1666 37.0558 24.6632L37.0558 24.6632L37.0558 24.6679C37.064 25.176 37.0232 25.6837 36.934 26.184L36.934 26.184L36.9338 26.1852C36.8755 26.5282 36.7186 26.8469 36.4823 27.1022C36.2751 27.3131 35.9665 27.4297 35.532 27.4304C35.0978 27.4311 34.7895 27.3146 34.5824 27.1024C34.3459 26.8473 34.1893 26.5286 34.1319 26.1856L34.1319 26.1855L34.1316 26.1837C34.0414 25.6836 34.0002 25.176 34.0087 24.668L34.0088 24.668L34.0087 24.6631C34.0009 24.1666 34.042 23.6706 34.1315 23.1822Z" fill="#70AD4D" stroke="#70AD4D" stroke-width="0.3"/>
<path d="M41.3442 21.6244L41.3393 21.619L41.334 21.614C41.0418 21.3437 40.6583 21.1935 40.2603 21.1935C39.8622 21.1935 39.4787 21.3437 39.1865 21.614L39.2884 21.7241L39.1761 21.6247C38.9075 21.9279 38.7592 22.319 38.7592 22.7241C38.7592 23.1292 38.9075 23.5203 39.1761 23.8236L39.1811 23.8292L39.1865 23.8342C39.4787 24.1046 39.8622 24.2547 40.2603 24.2547C40.6583 24.2547 41.0418 24.1046 41.334 23.8342L41.3393 23.8293L41.3442 23.8238C41.6136 23.5209 41.7625 23.1296 41.7625 22.7241C41.7625 22.3187 41.6136 21.9274 41.3442 21.6244ZM39.6071 22.7099C39.5943 22.5116 39.6495 22.3154 39.7627 22.1533L39.7811 22.1344C39.843 22.0706 39.9172 22.0199 39.9991 21.9853C40.081 21.9507 40.169 21.9328 40.258 21.9328C40.3469 21.9328 40.4349 21.9507 40.5168 21.9853C40.5966 22.019 40.669 22.068 40.73 22.1294C40.8604 22.2943 40.9261 22.5012 40.9145 22.7113L40.914 22.7199L40.9146 22.7286C40.9276 22.9437 40.861 23.1561 40.7276 23.3252C40.6697 23.3897 40.5984 23.4406 40.5187 23.4746C40.4378 23.509 40.3502 23.525 40.2624 23.5214L40.2624 23.5208L40.2496 23.5214C40.1625 23.5252 40.0756 23.5094 39.9954 23.4751C39.9166 23.4413 39.8462 23.3906 39.7894 23.3264C39.6587 23.1557 39.5939 22.9434 39.6071 22.7287L39.6077 22.7193L39.6071 22.7099ZM44.4259 21.516L44.5582 21.2902H44.2965H43.6229H43.537L43.4936 21.3643L39.5395 28.0976L39.4068 28.3235H39.6689H40.3516H40.4376L40.4811 28.2494L44.4259 21.516ZM44.8033 25.794L44.7984 25.7884L44.7929 25.7833C44.5027 25.513 44.1207 25.3627 43.7241 25.3627C43.3274 25.3627 42.9454 25.513 42.6552 25.7833L42.7574 25.8931L42.645 25.7938C42.3757 26.0987 42.227 26.4915 42.227 26.8983C42.227 27.3051 42.3757 27.6978 42.645 28.0027L42.6498 28.0082L42.6552 28.0132C42.9454 28.2835 43.3274 28.4338 43.7241 28.4338C44.1207 28.4338 44.5027 28.2835 44.7929 28.0132L44.7984 28.0081L44.8033 28.0025C45.0718 27.6973 45.2199 27.3047 45.2199 26.8983C45.2199 26.4918 45.0718 26.0992 44.8033 25.794ZM43.2593 26.2922L43.2663 26.2822C43.3208 26.2254 43.3862 26.1798 43.4586 26.1483C43.5405 26.1127 43.6293 26.096 43.7185 26.0993L43.7185 26.0998L43.7308 26.0993C43.8176 26.0954 43.9042 26.1108 43.9842 26.1445C44.0614 26.177 44.1307 26.2257 44.1875 26.2872C44.3075 26.4659 44.3717 26.6765 44.3717 26.8919C44.3717 27.1074 44.3075 27.318 44.1874 27.4968C44.1307 27.5584 44.0614 27.6073 43.9841 27.6399C43.904 27.6738 43.8174 27.6895 43.7305 27.6857L43.7305 27.6852L43.7182 27.6857C43.63 27.6892 43.5422 27.673 43.4611 27.6384C43.3824 27.6048 43.3119 27.5548 43.2544 27.4916C43.133 27.3165 43.068 27.1085 43.068 26.8954C43.068 26.6794 43.1348 26.4687 43.2593 26.2922ZM44.0424 26.0063C43.9418 25.9639 43.8331 25.9445 43.7241 25.9494L44.3057 27.5896C44.4464 27.3842 44.5217 27.141 44.5217 26.8919C44.5217 26.6429 44.4464 26.3997 44.3057 26.1942C44.2329 26.1128 44.143 26.0486 44.0424 26.0063Z" fill="#70AD4D" stroke="#70AD4D" stroke-width="0.3"/>
<path d="M23.817 34.2727L23.8169 34.2727L23.8189 34.2764C24.0029 34.6139 24.2786 34.8926 24.6142 35.0803L24.6874 34.9494L24.6152 35.0809C24.959 35.2697 25.346 35.3659 25.7382 35.3603C26.1337 35.3647 26.5238 35.2688 26.8722 35.0815L26.8731 35.081C27.2147 34.8945 27.4961 34.6144 27.6842 34.2736L27.6843 34.2737L27.6865 34.2693C27.8752 33.8998 27.9735 33.4908 27.9735 33.0758C27.9735 32.6609 27.8752 32.2519 27.6865 31.8823L27.6866 31.8823L27.6844 31.8784C27.4985 31.5398 27.22 31.2613 26.8814 31.0754L26.881 31.0751C26.5344 30.8864 26.1452 30.7899 25.7507 30.7948C25.357 30.7895 24.9687 30.8861 24.6234 31.0753L24.6234 31.0753L24.6226 31.0758C24.2855 31.2631 24.0074 31.5407 23.8196 31.8775L23.8195 31.8774L23.817 31.8824C23.6283 32.2526 23.5299 32.6621 23.5299 33.0776C23.5299 33.493 23.6283 33.9026 23.817 34.2727ZM24.5627 32.2286C24.6761 32.0187 24.8481 31.8462 25.0579 31.7324C25.2703 31.6216 25.5064 31.5637 25.746 31.5637C25.9856 31.5637 26.2217 31.6216 26.4342 31.7324C26.6456 31.8471 26.8193 32.0205 26.9344 32.2317C27.071 32.4916 27.1382 32.7824 27.1294 33.0759L27.1291 33.0759L27.1294 33.085C27.1384 33.3786 27.0702 33.6693 26.9315 33.9282C26.814 34.14 26.6387 34.3142 26.4261 34.4303C26.2148 34.5446 25.9783 34.6043 25.7381 34.604L25.7367 34.604C25.4987 34.606 25.2641 34.5482 25.0544 34.436C24.8458 34.3212 24.675 34.1483 24.5628 33.9383C24.4364 33.671 24.3708 33.379 24.3708 33.0833C24.3708 32.7877 24.4363 32.4958 24.5627 32.2286Z" fill="#70AD4D" stroke="#70AD4D" stroke-width="0.3"/>
<path d="M31.9529 31.3886L32.0558 31.2795C31.8804 31.1141 31.6739 30.9853 31.4482 30.9006C31.2239 30.8163 30.9851 30.7773 30.7456 30.7857C30.4285 30.7809 30.1153 30.856 29.8349 31.0041C29.7038 31.0724 29.5844 31.1592 29.4799 31.2613V31.0059V30.8559H29.3299H28.7988H28.6488V31.0059V35.1484V35.2984H28.7988H29.3299H29.4799V35.1484V32.8863C29.4799 32.418 29.593 32.0891 29.7947 31.8737C29.9032 31.762 30.0341 31.6745 30.1788 31.6171C30.3239 31.5595 30.4796 31.5335 30.6356 31.5408L30.6428 31.5411L30.65 31.5407C30.7987 31.5333 30.9472 31.5573 31.086 31.611C31.224 31.6645 31.3493 31.7463 31.4538 31.8511C31.6423 32.0553 31.75 32.3572 31.75 32.7817V35.1507V35.3007H31.9H32.423H32.573V35.1507V32.721V32.7208L31.9529 31.3886Z" fill="#70AD4D" stroke="#70AD4D" stroke-width="0.3"/>
<path d="M34.2867 29.5332V29.3832H34.1367H33.6057H33.4557V29.5332V35.1504V35.3004H33.6057H34.1367H34.2867V35.1504V29.5332Z" fill="#70AD4D" stroke="#70AD4D" stroke-width="0.3"/>
<path d="M35.8792 30.1149L35.9841 30.2221C36.0362 30.1712 36.0772 30.1101 36.1047 30.0427C36.1318 29.9763 36.1452 29.9051 36.1442 29.8334C36.1453 29.762 36.1318 29.6911 36.1044 29.6252C36.0766 29.5582 36.0352 29.4978 35.9827 29.4477L35.9827 29.4477L35.9824 29.4474C35.8806 29.351 35.7458 29.2973 35.6056 29.2973C35.4655 29.2973 35.3306 29.351 35.2289 29.4474L35.2289 29.4474L35.2286 29.4477C35.1761 29.4978 35.1346 29.5582 35.1068 29.6252C35.0795 29.6911 35.066 29.762 35.0671 29.8334C35.066 29.9051 35.0795 29.9763 35.1066 30.0427C35.134 30.1098 35.1748 30.1707 35.2265 30.2215C35.2762 30.2711 35.3351 30.3106 35.4 30.3375C35.4652 30.3646 35.5351 30.3785 35.6056 30.3785C35.6762 30.3785 35.7461 30.3646 35.8113 30.3375C35.8764 30.3105 35.9356 30.2708 35.9855 30.2208L35.8792 30.1149ZM35.8792 30.1149C35.9166 30.0783 35.9461 30.0345 35.9658 29.986C35.9856 29.9376 35.9953 29.8856 35.9941 29.8333L35.3321 30.1149C35.368 30.1509 35.4106 30.1795 35.4575 30.199C35.5045 30.2185 35.5548 30.2285 35.6056 30.2285C35.6565 30.2285 35.7068 30.2185 35.7537 30.199C35.8007 30.1795 35.8433 30.1509 35.8792 30.1149ZM36.0212 31.0103V30.8616L35.8724 30.8603L35.3414 30.8557L35.1901 30.8544V31.0057V35.1551V35.3051H35.3401H35.8712H36.0212V35.1551V31.0103Z" fill="#70AD4D" stroke="#70AD4D" stroke-width="0.3"/>
<path d="M40.707 35.3007H40.857V35.1507V32.7208C40.857 32.1125 40.6921 31.6243 40.3405 31.2813L40.2358 31.3887L40.3387 31.2795C40.1631 31.114 39.9564 30.9851 39.7305 30.9004C39.506 30.8161 39.267 30.7772 39.0273 30.7857C38.7102 30.7808 38.3969 30.8559 38.1164 31.0042C37.9855 31.0728 37.8661 31.1598 37.7616 31.2619V31.0059V30.8559H37.6116H37.0806H36.9306V31.0059V35.1484V35.2984H37.0806H37.6116H37.7616V35.1484V32.8865C37.7623 32.4182 37.8758 32.0892 38.0776 31.8738C38.1861 31.762 38.317 31.6746 38.4617 31.6171C38.6068 31.5596 38.7625 31.5336 38.9185 31.5408L38.9257 31.5411L38.933 31.5408C39.0816 31.5332 39.2302 31.5571 39.369 31.6109C39.5072 31.6644 39.6326 31.7464 39.737 31.8515C39.9269 32.0538 40.0329 32.356 40.0329 32.7818V35.1507V35.3007H40.1829H40.707Z" fill="#70AD4D" stroke="#70AD4D" stroke-width="0.3"/>
<path d="M44.908 32.0609C44.7838 31.8487 44.6004 31.6774 44.3804 31.5678C44.154 31.4554 43.9044 31.3979 43.6517 31.4C43.2784 31.3916 42.9163 31.5279 42.6413 31.7805C42.3941 32.0052 42.2456 32.3119 42.1957 32.7006H42.347M44.908 32.0609L44.7773 32.1345C44.7775 32.1349 44.7777 32.1353 44.7779 32.1356M44.908 32.0609C45.0188 32.2576 45.0824 32.4765 45.0947 32.7006H44.9445M44.908 32.0609L44.7785 32.1367C44.7783 32.1363 44.7781 32.136 44.7779 32.1356M44.7779 32.1356C44.6684 31.9491 44.5071 31.7985 44.3135 31.7021L44.3803 31.5679L44.3137 31.7022C44.1084 31.6002 43.882 31.5481 43.6529 31.55L43.6483 31.55L43.6483 31.55C43.3137 31.5424 42.9892 31.6646 42.7427 31.8909L42.7422 31.8914L42.7422 31.8914C42.5302 32.0842 42.3955 32.3497 42.347 32.7006M44.7779 32.1356C44.8756 32.3095 44.9323 32.5027 44.9445 32.7006M42.347 32.7006C42.3403 32.7489 42.3352 32.7989 42.3318 32.8506H45.0953M42.347 32.7006H44.9445M44.9445 32.7006C44.9474 32.748 44.9477 32.7957 44.9455 32.8435L45.0953 32.8506M45.0953 32.8506C45.0975 32.8043 45.0975 32.7582 45.0953 32.7122V32.8506ZM45.6172 33.4328H45.747L45.7656 33.3042C45.7776 33.2216 45.7804 33.1094 45.7835 32.9809C45.7845 32.9437 45.7854 32.9052 45.7866 32.8655L45.7867 32.8655L45.7867 32.8628C45.7913 32.4995 45.7027 32.141 45.5295 31.8216L45.5295 31.8216L45.529 31.8207C45.3564 31.5075 45.1 31.2486 44.7886 31.0728L44.7883 31.0727C44.4503 30.8828 44.0677 30.7869 43.6801 30.7948C43.2869 30.7881 42.8987 30.8835 42.5534 31.0717L42.5534 31.0717L42.5525 31.0722C42.2178 31.2578 41.9455 31.5383 41.7701 31.8783L41.7701 31.8783L41.7696 31.8793C41.5814 32.2504 41.4874 32.6621 41.4959 33.078C41.4867 33.4938 41.5827 33.9051 41.775 34.2739L41.775 34.2739L41.7753 34.2746C41.9538 34.6126 42.2256 34.8921 42.5584 35.08L42.5597 35.0808C42.9021 35.2696 43.2878 35.366 43.6788 35.3604C44.1585 35.3772 44.63 35.2322 45.0173 34.9486L45.0173 34.9486L45.0192 34.9472C45.3711 34.681 45.6198 34.3009 45.7228 33.8718L45.7672 33.6868H45.5769H45.016H44.8993L44.8706 33.8C44.8102 34.0387 44.666 34.2477 44.4644 34.389C44.2347 34.5439 43.9621 34.6223 43.6853 34.6133L43.6853 34.6132L43.679 34.6132C43.45 34.6153 43.2239 34.5621 43.0198 34.4583C42.8216 34.357 42.6558 34.2019 42.5416 34.0108C42.4369 33.8331 42.37 33.6363 42.3442 33.4328H45.6172Z" fill="#70AD4D" stroke="#70AD4D" stroke-width="0.3"/>
</svg>
