<svg width="80" height="80" viewBox="0 0 80 80" fill="none" xmlns="http://www.w3.org/2000/svg">
<path d="M54.1224 67L10.6006 65.7898V33.1522L32.3615 31.942L54.1224 67Z" fill="#E9EAEC"/>
<path d="M61.8096 66.3986H12.5817C11.1515 66.3986 10 65.2398 10 63.8169V35.1324C10 33.7022 11.1588 32.5508 12.5817 32.5508H61.8096C63.2398 32.5508 64.3913 33.7096 64.3913 35.1324V63.8096C64.3913 65.2398 63.2324 66.3913 61.8096 66.3913V66.3986Z" stroke="#4A4A4A" stroke-miterlimit="10"/>
<path d="M68.0219 33.7609V30.2991C68.0219 28.8689 66.863 27.7174 65.4402 27.7174H16.2123C14.7821 27.7174 13.6306 28.8763 13.6306 30.2991V32.5508" stroke="#4A4A4A" stroke-miterlimit="10"/>
<path d="M62.9672 21.6739H19.8341C18.4039 21.6739 17.2524 22.8327 17.2524 24.2556V27.578" stroke="#4A4A4A" stroke-miterlimit="10"/>
<path d="M63.393 16.8333H23.465C22.0348 16.8333 20.8833 17.9921 20.8833 19.415V21.0358" stroke="#4A4A4A" stroke-miterlimit="10"/>
<path d="M69.2313 30.7392C69.2313 35.0224 67.7937 38.9756 65.3734 42.1293C65.102 42.4814 64.8233 42.8261 64.53 43.1561C61.0975 47.0287 56.0808 49.4783 50.4994 49.4783C40.1507 49.4783 31.7603 41.0879 31.7603 30.7392C31.7603 20.3905 40.1434 12 50.4921 12C55.4134 12 59.8947 13.8996 63.2391 17.002C66.9209 20.4271 69.2313 25.3118 69.2313 30.7318V30.7392Z" fill="#E9EAEC" stroke="#4A4A4A" stroke-miterlimit="10"/>
<path d="M41.428 54.3116H58.3556" stroke="#4A4A4A" stroke-miterlimit="10"/>
<path d="M41.428 57.9348H58.3556" stroke="#4A4A4A" stroke-miterlimit="10"/>
<path d="M41.428 61.558H58.3556" stroke="#4A4A4A" stroke-miterlimit="10"/>
<path d="M22.0864 50.6811C25.4242 50.6811 28.1299 47.9754 28.1299 44.6376C28.1299 41.2999 25.4242 38.5942 22.0864 38.5942C18.7487 38.5942 16.043 41.2999 16.043 44.6376C16.043 47.9754 18.7487 50.6811 22.0864 50.6811Z" stroke="#4A4A4A" stroke-miterlimit="10"/>
<path d="M31.3424 62.1667H12.8306C13.0066 55.9545 17.0845 50.9892 22.0865 50.9892C27.0885 50.9892 31.1663 55.9472 31.3424 62.1667Z" stroke="#4A4A4A" stroke-width="0.75" stroke-miterlimit="10"/>
<path d="M39.718 22.3414C39.718 22.3414 47.7418 19.3343 50.7488 17.3247C51.7536 18.3295 57.7678 21.3366 60.7748 22.3414V33.3722L50.2428 43.1708L40.7155 34.377L39.7107 22.3414H39.718Z" fill="#E9EAEC" stroke="#4A4A4A" stroke-width="0.75" stroke-miterlimit="10"/>
<path d="M48.6895 22.6714C49.4376 22.312 50.105 21.9527 50.589 21.63C51.2565 22.2974 55.2683 24.307 57.2779 24.9744V32.3307L55.4003 34.0763" fill="#E9EAEC"/>
<path d="M48.6895 22.6714C49.4376 22.312 50.105 21.9527 50.589 21.63C51.2565 22.2974 55.2683 24.307 57.2779 24.9744V32.3307L55.4003 34.0763" stroke="#4A4A4A" stroke-width="0.75" stroke-miterlimit="10"/>
<path d="M53.8295 35.4478L51.6219 37.5821L50.2504 38.8583L43.8989 32.9982L43.2314 24.9744C43.2314 24.9744 43.8989 24.7251 44.845 24.3437C45.1824 24.2043 45.5638 24.0503 45.9598 23.8889" fill="#E9EAEC"/>
<path d="M53.8295 35.4478L51.6219 37.5821L50.2504 38.8583L43.8989 32.9982L43.2314 24.9744C43.2314 24.9744 43.8989 24.7251 44.845 24.3437C45.1824 24.2043 45.5638 24.0503 45.9598 23.8889" stroke="#4A4A4A" stroke-width="0.75" stroke-miterlimit="10"/>
<path d="M47.2437 29.859L49.752 32.8734L55.062 28.1135" stroke="#4A4A4A" stroke-miterlimit="10" stroke-linecap="round"/>
</svg>
