<svg width="1111" height="703" viewBox="0 0 1111 703" fill="none" xmlns="http://www.w3.org/2000/svg">
<path d="M652.759 699.999H951.582C951.582 699.999 1020.94 603.672 1072.68 527.988C1124.43 452.304 1088.08 333.5 1015.44 349.971C942.79 366.442 858.013 334.809 832.694 266.405C807.375 198.001 675.264 -117.944 458.95 47.1856C242.636 212.316 50.1573 48.2495 6.02931 221.899C-38.0987 395.548 174.099 528.365 185.229 583.344C196.359 638.322 43.9203 699.999 43.9203 699.999H652.759Z" fill="#EFF3FF"/>
<path d="M483.945 641.819C483.945 640.33 482.435 492.313 493.767 446.899L495.704 447.376C484.422 492.548 485.918 640.316 485.932 641.826L483.945 641.819Z" fill="#E6E9F8"/>
<path d="M489.465 638.97C486.758 641.32 482.207 638.585 476.495 632.31C458.396 612.366 428.295 556.503 406.272 514.158C391.442 485.625 380.295 463.26 378.871 462.07C380.388 462.982 400.623 475.318 423.459 496.337C447.932 518.902 475.455 551.453 485.961 590.678C490.286 606.389 491.477 622.798 489.465 638.97Z" fill="#E6E9F8"/>
<path opacity="0.07" d="M476.495 632.31C458.396 612.367 428.295 556.503 406.272 514.159C415.104 513.91 429.392 530.228 424.079 513.917C421.942 507.456 421.942 501.388 423.423 496.338C447.897 518.903 475.419 551.453 485.925 590.678C483.005 610.009 482.25 627.061 476.495 632.31Z" fill="#393768"/>
<path opacity="0.07" d="M483.874 628.35C482.891 630.886 481.651 632.788 480.141 633.963L478.589 635.345C478.512 635.226 478.426 635.115 478.332 635.01C476.329 635.658 474.285 636.174 472.214 636.556C465.212 629.176 456.116 611.697 468.809 575.3C477.492 550.542 479.75 550.107 471.138 529.993C475.412 530.463 480.547 530.164 485.604 529.921L487.62 529.843C501.353 529.302 513.12 530.327 502.079 551.026C489.814 573.89 489.444 603.734 485.875 621.042C485.389 623.524 484.72 625.967 483.874 628.35Z" fill="#393768"/>
<path d="M476.715 568.676L473.738 568.398C472.313 583.883 461.188 599.738 457.398 604.774C451.038 594.581 445.696 583.819 444.848 575.428C443.965 566.725 444.635 557.971 445.34 548.704C445.674 544.309 445.995 539.879 446.159 535.413C448.566 533.276 455.746 526.595 454.813 522.343L451.893 522.984C452.213 524.408 449.528 527.97 446.266 531.225C446.351 522.022 445.489 512.706 442.134 503.354L439.321 504.365C444.613 519.081 443.466 534.024 442.37 548.476C442.313 549.146 442.27 549.829 442.22 550.506C440.026 551.062 433.922 551.802 428.687 544.409L426.251 546.133C431.842 554.032 438.587 554.153 441.992 553.569C441.479 560.955 441.137 568.448 441.878 575.728C442.46 580.197 443.679 584.56 445.496 588.684C441.187 590.486 426.635 595.643 415.887 588.078L414.164 590.522C424.349 597.687 437.077 594.859 443.687 592.58C444.927 592.16 445.938 591.754 446.693 591.433C456.608 613.193 478.111 637.923 479.251 639.22L481.495 637.254C473.413 627.801 465.933 617.85 459.101 607.459C462.206 603.485 475.113 586.198 476.715 568.676Z" fill="#E6E9F8"/>
<path opacity="0.1" d="M258.689 702.619C296.897 702.619 327.872 693.808 327.872 682.939C327.872 672.07 296.897 663.259 258.689 663.259C220.48 663.259 189.506 672.07 189.506 682.939C189.506 693.808 220.48 702.619 258.689 702.619Z" fill="black"/>
<path opacity="0.1" d="M829.717 697.946C867.926 697.946 898.9 689.135 898.9 678.266C898.9 667.397 867.926 658.586 829.717 658.586C791.508 658.586 760.534 667.397 760.534 678.266C760.534 689.135 791.508 697.946 829.717 697.946Z" fill="black"/>
<path opacity="0.1" d="M580.579 679.085C676.024 679.085 753.397 667.615 753.397 653.465C753.397 639.315 676.024 627.844 580.579 627.844C485.134 627.844 407.76 639.315 407.76 653.465C407.76 667.615 485.134 679.085 580.579 679.085Z" fill="black"/>
<path d="M725.747 163.514V404.568C725.745 407.898 724.421 411.091 722.067 413.446C719.712 415.8 716.519 417.124 713.19 417.126H357.446C354.122 417.116 350.938 415.789 348.592 413.435C346.246 411.081 344.929 407.892 344.931 404.568V163.514C344.938 160.197 346.259 157.019 348.605 154.673C350.95 152.328 354.129 151.007 357.446 151H713.182C716.507 150.998 719.696 152.314 722.051 154.66C724.407 157.006 725.736 160.19 725.747 163.514Z" fill="#E6E9F8"/>
<path d="M684.321 203.38C684.306 207.644 682.605 211.729 679.589 214.743C676.573 217.758 672.488 219.457 668.224 219.47H484.493C480.283 219.382 476.276 217.647 473.33 214.639C470.384 211.63 468.734 207.587 468.734 203.376C468.734 199.166 470.384 195.123 473.33 192.114C476.276 189.106 480.283 187.371 484.493 187.283H668.259C672.522 187.292 676.608 188.992 679.619 192.01C682.63 195.028 684.321 199.117 684.321 203.38Z" fill="#C4D2EF"/>
<path d="M635.067 187.283V219.47H484.493C480.283 219.382 476.276 217.647 473.33 214.639C470.384 211.63 468.734 207.587 468.734 203.376C468.734 199.166 470.384 195.123 473.33 192.114C476.276 189.106 480.283 187.371 484.493 187.283H635.067Z" fill="#42505C"/>
<path d="M635.053 184.783H629.96V221.963H635.053V184.783Z" fill="#939598"/>
<path d="M684.321 284.152C684.306 288.416 682.605 292.501 679.589 295.515C676.573 298.53 672.488 300.229 668.224 300.242H484.493C480.283 300.153 476.276 298.419 473.33 295.41C470.384 292.402 468.734 288.359 468.734 284.148C468.734 279.937 470.384 275.894 473.33 272.886C476.276 269.877 480.283 268.143 484.493 268.054H668.259C672.522 268.064 676.608 269.764 679.619 272.782C682.63 275.8 684.321 279.889 684.321 284.152Z" fill="#C4D2EF"/>
<path d="M605.579 268.054V300.242H484.493C480.283 300.153 476.276 298.419 473.33 295.41C470.384 292.402 468.734 288.359 468.734 284.148C468.734 279.937 470.384 275.894 473.33 272.886C476.276 269.877 480.283 268.143 484.493 268.054H605.579Z" fill="#42505C"/>
<path d="M608.115 265.569H603.022V302.749H608.115V265.569Z" fill="#939598"/>
<path d="M684.321 364.966C684.308 369.231 682.608 373.318 679.592 376.334C676.576 379.35 672.489 381.05 668.224 381.063H484.493C480.226 381.063 476.133 379.368 473.116 376.351C470.098 373.333 468.403 369.241 468.403 364.973C468.403 360.706 470.098 356.613 473.116 353.596C476.133 350.578 480.226 348.883 484.493 348.883H668.259C672.521 348.891 676.605 350.588 679.616 353.603C682.627 356.618 684.319 360.705 684.321 364.966Z" fill="#C4D2EF"/>
<path d="M572.865 348.876V381.063H484.493C480.226 381.063 476.133 379.368 473.116 376.351C470.098 373.333 468.403 369.241 468.403 364.973C468.403 360.706 470.098 356.613 473.116 353.596C476.133 350.578 480.226 348.883 484.493 348.883L572.865 348.876Z" fill="#42505C"/>
<path d="M575.408 346.362H570.315V383.542H575.408V346.362Z" fill="#939598"/>
<path d="M789.773 648.707C790.435 648.707 794.118 655.117 791.71 657.026C789.702 658.6 807.85 658.992 807.85 658.992C809.275 659.191 803.577 648.785 806.625 644.832C809.346 641.328 789.773 648.707 789.773 648.707Z" fill="#EDB6A4"/>
<path d="M772.792 670.773L809.282 668.302C811.668 664.306 811.184 660.324 808.477 656.342C802.494 657.162 796.86 656.969 791.824 654.968C787.33 659.241 780.428 662.803 772.472 666.037C769.907 667.311 770.527 668.943 772.792 670.773Z" fill="#E6E9F8"/>
<path d="M809.373 668.258L772.818 670.737L772.924 672.3L809.479 669.821L809.373 668.258Z" fill="#A8CFEF"/>
<path d="M861.349 653.686C861.997 653.565 867.09 658.921 865.195 661.314C863.614 663.323 881.342 659.405 881.342 659.405C882.767 659.263 874.754 650.509 876.805 645.943C878.621 641.898 861.349 653.686 861.349 653.686Z" fill="#EDB6A4"/>
<path d="M850.066 679.149L884.968 668.116C886.335 663.672 884.925 659.911 881.349 656.72C875.737 658.935 870.21 660.075 864.846 659.327C861.484 664.526 855.587 669.619 848.663 674.662C846.462 676.464 847.431 677.91 850.066 679.149Z" fill="#E6E9F8"/>
<path d="M884.995 668.11L850.063 679.164L850.536 680.658L885.468 669.604L884.995 668.11Z" fill="#A8CFEF"/>
<path d="M807.359 648.4L789.773 651.527L766.068 542.108L778.839 440.908L779.139 438.736L779.965 432.041L779.979 432.005L781.047 423.55L785.442 424.035L786.603 424.163L798.954 425.552L799.531 425.623L821.903 428.13L836.127 429.719L801.24 520.056L795.115 540.021L807.359 648.4Z" fill="#1E1E1E"/>
<path d="M850.7 441.606C850.7 441.849 850.765 442.098 850.793 442.319V442.376C851.035 444.299 851.178 446.215 851.299 448.181C852.317 468.032 843.984 537.763 843.635 540.021L879.184 648.514L873.707 651.093L863.828 655.751L861.335 656.919L813.47 546.467L808.078 452.148L820.365 447.604L827.032 446.286L850.7 441.606Z" fill="#1E1E1E"/>
<path d="M859.454 342.081V342.202C859.371 346.863 859.031 351.517 858.436 356.141L858.358 356.996C856.769 370.614 854.12 387.41 853.87 390.188C853.719 392.1 853.693 394.02 853.792 395.936C853.956 399.639 854.319 403.436 853.991 407.332C852.852 420.865 853.279 435.502 852.446 450.182C852.403 450.994 852.36 451.771 852.325 452.583V452.625C852.204 454.584 852.075 456.457 851.997 458.416C851.506 458.459 851.057 458.459 850.572 458.459C843.046 458.809 835.507 458.754 827.986 458.295H827.495C826.028 458.21 824.56 458.088 823.136 457.967C814.881 457.406 806.669 456.33 798.548 454.748C789.951 453.074 782.878 450.916 778.491 448.43C777.135 447.713 775.926 446.746 774.929 445.581C775.055 445.233 775.162 444.879 775.25 444.52C775.784 442.846 776.311 441.215 776.76 439.626V439.584C777.736 436.321 778.633 433.266 779.409 430.288C779.452 430.125 779.495 430.004 779.53 429.84C780.635 425.723 781.575 421.891 782.308 418.308C783.491 412.802 784.303 407.831 784.873 403.301C786.504 390.38 786.012 381.042 785.442 372.602C784.345 356.989 782.999 344.31 793.99 317.757C800.341 316.682 806.782 316.232 813.221 316.411H813.264C813.306 316.411 813.342 316.411 813.427 316.411C823.667 316.669 833.76 318.914 843.143 323.02C843.286 323.054 843.423 323.109 843.549 323.184H843.592C848.999 325.59 854.142 328.547 858.942 332.009C859.02 332.949 859.105 333.925 859.141 334.944C859.333 337.23 859.419 339.588 859.454 342.081Z" fill="#E9F3FE"/>
<path d="M823.52 307.073C822.345 316.332 819.517 316.004 813.285 315.947C811.59 323.398 818.912 328.177 825.215 330.293C837.552 331.817 844.511 326.916 843.735 320.556C836.726 316.232 840.444 314.267 839.461 309.487L823.52 307.073Z" fill="#E0A494"/>
<path d="M855.587 407.752L859.497 450.93L854.362 452.148L852.325 452.597L851.79 452.725L827.944 458.309L827.495 458.43L823.456 459.37L823.136 457.982L821.134 449.014L816.042 426.1L815.265 422.639L813.919 416.478L813.228 413.422L811.839 407.225L815.059 399.276L815.55 398.015L815.636 397.887L825.657 372.979L841.925 326.304L841.968 326.218L843.108 323.042L843.763 321.247V321.204L843.806 321.04L860.274 331.318L859.454 342.081V342.202L858.358 356.996L856.477 381.747L855.665 392.83L855.017 401.555L855.587 407.752Z" fill="#1E1E1E"/>
<path d="M813.47 315.741L813.427 315.948L813.392 316.432L813.107 318.96L808.99 353.085L804.809 395.401V395.487L804.317 400.701L804.075 403.315L797.665 417.624L793.391 426.998L793.227 427.361L792.779 428.387L791.147 432.012L791.069 432.176L783.305 449.441L778.084 446.258L775.235 444.548L765.534 438.636C765.534 438.636 766.802 435.132 768.754 429.868C768.96 429.22 769.245 428.486 769.466 427.731C770.328 425.367 771.261 422.746 772.315 420.025C772.479 419.533 772.643 419.049 772.849 418.557C773.049 417.902 773.298 417.254 773.561 416.599C774.338 414.519 775.107 412.361 775.884 410.188C776.596 408.187 777.351 406.192 778.02 404.234C781.973 393.307 785.314 383.934 785.314 383.578C785.314 383.222 784.986 378.727 784.538 372.117C784.089 365.707 783.519 357.487 782.992 349.617L782.949 349.246L782.664 345.172L782.216 338.762C781.603 330.613 781.197 324.516 781.154 323.925L781.197 323.882L795.264 316.995L813.47 315.741Z" fill="#1E1E1E"/>
<path d="M792.964 429.726C793.024 430.202 792.931 430.686 792.696 431.105C792.461 431.525 792.098 431.857 791.66 432.055C791.48 432.132 791.286 432.173 791.09 432.176C790.835 432.237 790.569 432.237 790.314 432.176L789.338 431.969L780.527 430.096L779.509 429.89L769.48 427.753L754.116 424.512C753.662 424.411 753.25 424.173 752.935 423.831C752.621 423.488 752.419 423.057 752.357 422.596L751.994 419.455L751.545 415.744L749.914 402.332L745.69 366.989C745.649 366.639 745.69 366.285 745.812 365.954C745.934 365.624 746.132 365.327 746.39 365.088C746.649 364.849 746.96 364.675 747.299 364.579C747.638 364.484 747.995 364.47 748.34 364.539L784.538 372.203C784.865 372.288 785.17 372.441 785.435 372.651C785.675 372.82 785.876 373.038 786.023 373.291C786.171 373.545 786.262 373.827 786.29 374.119L789.716 402.702L791.553 417.988L791.596 418.151L792.7 427.489L792.821 428.387L792.964 429.726Z" fill="#E6E9F8"/>
<path d="M757.963 407.303L757.087 417.667C761.139 418.379 765.249 417.56 769.359 418.344L770.356 406.014L757.963 407.303Z" fill="#EDB6A4"/>
<path d="M678.024 325.328L673.858 338.327C678.051 339.794 682.22 341.243 686.365 342.672L691.28 329.253L678.024 325.328Z" fill="#EDB6A4"/>
<path d="M782.978 349.723L782.935 349.766C769.316 356.49 761.488 362.323 748.368 361.056C739.648 359.509 731.039 357.389 722.598 354.709C722.534 354.689 722.467 354.677 722.399 354.674C713.552 351.981 703.68 348.634 692.27 344.702L686.358 342.665L691.287 329.253L700.71 331.532L745.633 342.544L781.14 324.025L781.183 323.982L781.261 325.449L781.973 335.927L782.18 338.861L782.465 342.572L782.629 345.265L782.978 349.723Z" fill="#1E1E1E"/>
<path d="M837.538 366.269L815.635 397.873L825.671 372.979L843.798 321.033L837.538 366.269Z" fill="#263238"/>
<path d="M813.449 315.755L809.004 353.085L804.844 395.394L799.41 356.625L813.449 315.755Z" fill="#263238"/>
<path d="M819.396 273.418C811.447 290.477 815.657 306.246 817.879 312.251C820.144 317.6 837.338 311.296 839.724 310.427C843.371 309.11 849.874 299.921 853.072 289.771C849.846 274.522 834.952 273.567 819.396 273.418Z" fill="#EDB6A4"/>
<path d="M815.714 283.518C815.714 283.518 820.963 288.261 838.827 287.336C844.525 288.447 838.371 293.034 837.538 297.749L838.92 299.131C838.92 299.131 841.405 293.091 843.193 293.903C844.981 294.715 845.743 298.561 844.19 300.684C842.638 302.806 838.165 308.832 839.76 310.427C841.355 312.023 855.629 301.802 854.155 292.129C852.681 282.456 865.665 287.891 854.611 309.259C850.337 317.55 853.4 327.636 859.205 329.11C865.01 330.585 874.419 331.361 875.153 324.73C875.886 318.099 869.077 319.637 868.521 310.321C867.966 301.004 870.957 280.156 860.323 276.466C854.333 274.394 854.155 283.283 850.836 280.704C847.517 278.126 841.847 264.294 827.602 268.368C811.818 272.884 811.932 276.68 815.714 283.518Z" fill="black"/>
<path d="M876.784 350.229C876.492 352.037 875.985 353.805 875.274 355.493C872.012 363.805 864.347 378.115 857.054 390.472C856.605 391.284 856.114 392.061 855.629 392.837C855.017 393.891 854.369 394.91 853.756 395.936C847.965 405.43 842.872 412.809 841.199 413.707C835.614 414.483 825.529 415.544 813.883 416.478C808.662 416.926 803.199 417.297 797.615 417.624C795.784 417.745 793.911 417.866 792.073 417.945H792.031C791.867 417.945 791.667 417.988 791.503 417.988C788.362 418.151 785.264 418.272 782.244 418.358C779.466 418.479 776.816 418.557 774.209 418.6H772.785C771.603 418.643 770.456 418.643 769.316 418.643H769.273V418.358L769.402 416.969L769.48 415.908L769.558 414.768L770.271 406L770.313 405.288L776.916 404.39L777.977 404.269L784.822 403.329L789.673 402.681L804.31 400.679L814.994 399.255L832.203 396.933L853.77 352.986L859.105 334.922L860.209 331.297C865.694 335.798 876.413 345.87 876.784 350.229Z" fill="#1E1E1E"/>
<path d="M673.858 338.327C669.057 339.039 664.598 339.182 660.887 338.327C658.857 337.722 652.518 334.324 651.229 331.325C649.235 326.34 648.024 323.113 648.544 316.368C650.082 313.22 661.365 318.213 668.623 319.929C668.121 318.944 667.832 317.865 667.771 316.761C667.711 315.657 667.882 314.553 668.274 313.519C669.748 312.806 671.529 313.291 672.547 315.527C673.631 317.536 674.541 319.632 675.268 321.795L678.025 325.357L673.858 338.327Z" fill="#EDB6A4"/>
<path d="M757.948 407.303L757.236 415.416L757.037 417.66L751.98 419.455C751.14 419.342 750.356 418.971 749.736 418.394C745.049 414.319 744.6 400.216 749.9 402.332L757.948 407.303Z" fill="#EDB6A4"/>
<path d="M770.15 404.96L769.323 419.213L773.896 420.53L777.144 403.393L770.15 404.96Z" fill="#393768"/>
<path d="M691.529 328.569L686.151 343.249L691.03 346.547L701.629 330.058L691.529 328.569Z" fill="#393768"/>
<path opacity="0.05" d="M855.587 407.752L859.497 450.93L854.361 452.148C853.776 451.447 853.136 450.794 852.445 450.196C849.596 447.582 845.593 444.691 842.78 442.119C840.294 439.84 834.183 436.172 828.634 433.073C823.947 430.459 819.709 428.258 818.406 427.689C817.525 427.313 816.722 426.774 816.041 426.1C815.101 425.203 814.325 424.142 813.306 423.045C812.858 422.53 812.367 422.053 811.839 421.62C810.044 420.153 802.465 419.056 797.244 418.486C794.552 418.158 792.472 417.995 792.109 417.952L798.099 416.606C802.423 415.673 808.256 414.405 813.228 413.429C816.49 412.859 819.339 412.368 821.134 412.168C827.986 411.513 838.941 402.14 845.351 397.923C848.613 395.722 851.833 390.708 854.483 385.693C855.195 384.39 855.907 383.044 856.484 381.783C857.011 380.722 857.503 379.746 857.951 378.805C858.884 376.768 859.703 375.052 860.273 373.912C862.025 370.451 870.502 360.828 875.274 355.528C872.012 363.841 864.347 378.15 857.054 390.508C856.605 391.32 856.114 392.096 855.629 392.873L854.974 401.591L855.587 407.752Z" fill="black"/>
<path opacity="0.05" d="M794.516 432.219C794.516 432.219 793.334 432.133 791.667 432.055C791.502 432.062 791.337 432.048 791.176 432.012C790.606 432.012 789.994 431.969 789.345 431.969C787.153 431.868 784.956 431.951 782.778 432.219C781.483 432.417 780.166 432.429 778.868 432.254C777.721 432.133 776.46 431.934 775.157 431.685C773.178 431.273 771.229 430.728 769.323 430.053C769.141 429.976 768.95 429.921 768.754 429.89C768.96 429.241 769.245 428.508 769.466 427.753L754.116 424.512C753.662 424.411 753.25 424.173 752.936 423.831C752.621 423.488 752.419 423.057 752.357 422.596L751.994 419.455C751.154 419.342 750.37 418.971 749.75 418.394C750.406 417.418 751.096 416.399 751.545 415.744C751.83 415.295 752.037 415.032 752.037 415.032L757.25 415.438L769.48 416.335L773.519 416.663L774.623 416.748L782.458 417.318L791.511 418.03L791.553 418.194L793.412 426.998L793.498 427.325L794.516 432.219Z" fill="black"/>
<path opacity="0.05" d="M786.931 338.897L782.978 349.723L782.935 349.766C769.317 356.49 761.489 362.324 748.369 361.056C739.648 359.509 731.04 357.389 722.599 354.709C724.842 354.994 743.596 357.608 746.104 357.323C748.796 357.074 769.181 353 770.364 351.732C771.546 350.464 782.472 342.643 782.472 342.643L782.515 342.601L786.931 338.897Z" fill="black"/>
<path d="M855.38 289.665C854.871 289.665 854.38 289.476 854.003 289.133C853.626 288.791 853.391 288.32 853.343 287.813C853.003 285.845 852.074 284.027 850.679 282.599C850.358 282.201 850.197 281.698 850.228 281.188C850.258 280.678 850.478 280.197 850.845 279.841C851.211 279.484 851.697 279.277 852.208 279.261C852.719 279.244 853.218 279.418 853.606 279.75C855.656 281.849 856.992 284.541 857.424 287.442C857.474 287.983 857.308 288.522 856.962 288.94C856.617 289.359 856.12 289.625 855.579 289.679L855.38 289.665Z" fill="#393768"/>
<path d="M285.584 666.207L282.486 674.997L284.21 679.954L294.701 681.008L301.219 675.673L301.325 667.781L285.584 666.207Z" fill="#EDB6A4"/>
<path d="M282.229 672.817C280.452 675.392 279.426 678.411 279.266 681.535C279.793 683.188 286.774 685.182 292.037 684.634C300.627 681.692 312.202 683.003 317.458 680.182C318.812 678.758 317.871 673.864 316.276 672.767C311.141 673.124 303.854 672.874 301.268 671.799C300.991 673.587 300.635 675.282 299.21 675.688C292.137 675.752 284.373 674.804 282.229 672.817Z" fill="#1E1E1E"/>
<path d="M212.363 671.542L207.655 678.993L208.196 683.922L217.648 687.105L224.778 683.565L226.537 676.315L212.363 671.542Z" fill="#EDB6A4"/>
<path d="M207.875 676.927C205.697 678.926 204.116 681.49 203.31 684.335C203.445 685.966 209.457 689.278 214.421 689.883C222.969 688.993 233.346 692.633 238.788 691.144C240.327 690.147 240.505 685.41 239.265 684.064C234.45 683.309 227.791 681.543 225.64 680.004C225.006 681.593 224.322 683.081 222.919 683.152C216.387 681.721 209.435 679.214 207.875 676.927Z" fill="#1E1E1E"/>
<path d="M264.003 489.371L263.924 490.148L261.559 511.388L254.871 571.888L226.494 676.293L226.373 676.784L211.287 673.195L211.131 673.152L225.155 576.29L216.43 495.525L215.654 488.189L215.447 486.316L240.968 487.904L263.96 489.371H264.003Z" fill="#1E1E1E"/>
<path d="M284.893 667.696L301.746 667.71L311.988 554.088L301.411 480.432L254.885 491.53L280.855 568.483L284.893 667.696Z" fill="#1E1E1E"/>
<path d="M222.883 352.473L221.58 384.19L220.967 398.543L215.34 408.329V408.365L205.518 425.53L180.018 509.985L178.551 509.621L175.211 508.802L165.388 506.423L183.487 416.805C186.215 406.94 204.157 376.077 222.883 352.473Z" fill="#1E1E1E"/>
<path d="M373.016 256.259C365.473 273.874 357.609 293.81 350.8 310.606C350.8 310.606 350.757 310.684 350.679 310.848C348.677 315.834 346.719 320.592 344.931 324.915C340.116 336.411 336.284 344.859 334.04 347.58C327.965 354.346 309.951 361.526 292.501 368.698C292.173 368.82 291.888 368.948 291.56 369.069L292.173 364.503L293.925 351.291L295.962 336.29L296.29 333.719H296.375L316.105 328.092L359.554 252.185L360.408 252.427L368.813 254.999L371.947 255.939L373.016 256.259Z" fill="#1E1E1E"/>
<path d="M246.545 343.263C249.65 348.833 265.498 341.689 273.554 337.009C264.408 334.873 266.609 326.938 266.994 322.002L245.726 325.898C247.848 328.783 246.31 336.781 246.545 343.263Z" fill="#E0A494"/>
<path d="M267.423 333.308C267.423 333.308 253.412 335.656 246.638 339.14L239.619 351.005C239.619 351.005 259.46 347.209 278.5 339.14L267.426 333.307L267.423 333.308Z" fill="#C5E8EF"/>
<path d="M303.754 480.361C303.249 480.752 302.715 481.107 302.159 481.422C301.974 481.527 301.784 481.622 301.589 481.707C294.701 485.461 279.779 488.559 263.924 490.148L258.661 490.639C253.276 491.045 247.813 491.287 242.677 491.351C231.63 491.394 221.722 490.454 215.689 488.21C214.19 487.713 212.784 486.969 211.53 486.009C212.755 459.798 213.816 432.155 215.362 408.372V408.336C215.81 401.648 216.302 395.209 216.829 389.254C218.296 373.029 220.212 359.98 222.905 352.48C229.315 348.448 237.378 345.307 246.588 342.779C255.472 340.373 264.482 338.454 273.576 337.031C280.955 335.763 288.661 334.709 296.411 333.647V333.726C296.247 334.58 296.126 335.442 295.998 336.297C295.186 341.148 294.495 346.162 293.961 351.297C293.476 355.5 293.106 359.781 292.821 364.118C292.7 365.628 292.579 367.138 292.536 368.684C290.3 406.705 303.754 451.5 303.754 480.361Z" fill="#1E1E1E"/>
<path d="M274.929 317.985C273.94 319.711 272.63 321.232 271.068 322.465C269.807 323.569 268.347 324.723 266.795 325.891C265.071 327.173 263.233 328.491 261.417 329.794L259.337 330.506C254.907 332.009 250.654 333.028 246.822 332.501C245.689 332.335 244.584 332.014 243.539 331.546C236.45 323.858 230.873 314.903 227.1 305.15C235.825 294.622 245.013 285.733 255.59 282.25C258.831 284.925 261.737 287.981 264.245 291.353C268.142 296.687 271.056 302.673 272.849 309.031C273.753 311.963 274.448 314.955 274.929 317.985Z" fill="#EDB6A4"/>
<path d="M243.425 334.766C249.123 336.19 252.407 336.19 258.518 333.526C259.772 328.726 261.31 323.248 258.383 319.103C252.884 315.078 251.26 314.566 250.306 311.581C249.871 310.078 250.939 307.756 253.532 306.389C255.263 306.481 257.806 307.685 258.518 308.924L260.612 307.08C258.739 304.231 254.558 298.433 251.922 298.326C257.621 295.69 264.743 293.133 264.508 290.17C264.394 282.378 264.081 273.225 261.574 272.499C260.213 272.264 248.546 272.969 241.694 276.559C233.859 279.137 225.746 287.414 222.883 292.877C220.504 297.557 221.459 305.214 224.158 310.919C228.004 319.95 234.863 327.721 243.425 334.766Z" fill="black"/>
<path d="M379.583 246.53C379.12 248.31 375.416 251.373 372.46 254.144L371.905 255.924L360.38 252.441L360.85 250.611C358.001 245.846 358.087 241.038 359.49 231.429L363.229 235.703C363.65 236.981 363.89 238.312 363.941 239.656C365.772 234.471 367.132 228.003 369.981 227.448C373.087 227.028 379.241 235.995 379.59 239.229C379.846 242.064 379.975 244.656 379.583 246.53Z" fill="#EDB6A4"/>
<path d="M181.571 519.081C181.571 519.622 176.863 523.917 167.974 523.796C163.487 523.753 160.951 518.582 161.179 517.699C162.603 513.575 164.783 510.327 166.877 508.582L167.511 506.965L178.615 509.65L178.145 511.31C179.434 512.542 180.56 515.213 181.571 519.081Z" fill="#EDB6A4"/>
<path opacity="0.05" d="M350.8 310.605L344.931 324.915C340.116 336.411 336.284 344.859 334.04 347.579C327.964 354.346 309.951 361.526 292.5 368.698C290.3 406.698 293.847 448.808 303.754 480.361C303.248 480.752 302.715 481.107 302.159 481.422C299.794 476.778 295.357 468.253 294.132 466.785C292.415 464.748 287.009 441.307 286.297 431.236C285.584 421.164 285.584 384.561 286.297 382.602C287.009 380.643 280.506 368.25 282.543 369.069C283.647 369.517 287.6 367.274 292.166 364.503L292.778 364.133C296.532 361.889 300.563 359.403 303.747 357.815C311.041 354.147 315.692 354.474 319.602 352.473C323.513 350.471 325.35 344.809 332.281 339.388C335.992 336.454 340.515 325.414 344.389 318.569C347.324 313.426 372.439 257.406 373.009 256.259C373.101 256.102 350.8 310.605 350.8 310.605Z" fill="black"/>
<path opacity="0.05" d="M242.641 491.33L216.43 495.525L215.654 488.189C214.154 487.692 212.748 486.948 211.494 485.988C212.719 459.777 213.78 432.133 215.326 408.351L205.504 425.516L180.019 509.985L182.668 480.432C182.668 480.432 190.176 452.504 192.213 442.639C194.25 432.774 205.076 412.403 208.153 409.02C211.23 405.637 212.227 396.79 215.988 390.672C216.273 390.188 216.558 389.696 216.8 389.247C218.677 386.074 220.26 382.736 221.53 379.276C221.53 379.276 221.53 381.192 221.572 384.169C221.651 394.604 221.936 418.358 222.876 421.207C224.137 424.954 227.399 459.242 227.15 466.379C226.9 473.516 236.566 483.217 239.629 486.273C240.128 486.767 240.59 487.298 241.01 487.861C242.641 490.041 242.641 491.33 242.641 491.33Z" fill="black"/>
<path fill-rule="evenodd" clip-rule="evenodd" d="M432.871 205.824C435.456 205.824 437.552 207.919 437.552 210.504C437.552 213.089 435.456 215.184 432.871 215.184C430.287 215.184 428.191 213.09 428.191 210.504C428.191 207.919 430.287 205.824 432.871 205.824ZM383.979 205.824C386.564 205.824 388.659 207.919 388.659 210.504C388.659 213.089 386.564 215.184 383.979 215.184C381.394 215.184 379.298 213.09 379.298 210.504C379.298 207.919 381.395 205.824 383.979 205.824ZM394.939 196.222L404.243 192.562C406.261 191.845 408.337 191.666 410.46 191.538C413.919 191.328 417.03 191.146 420.508 191.197C426.079 191.281 427.439 192.256 432.151 194.916C433.128 195.528 433.095 195.897 431.93 196.056L394.783 197.234C394.271 197.289 394.101 196.67 394.938 196.222L394.939 196.222ZM377.209 215.35C378.771 217.529 381.279 218.829 383.979 218.829C386.676 218.829 389.184 217.532 390.748 215.352L426.106 215.354C427.668 217.53 430.175 218.829 432.872 218.829C435.584 218.829 438.105 217.517 439.667 215.316L444.303 214.649C445.147 214.501 445.823 214.034 446.34 213.341C447.371 211.889 448.343 210.775 448.698 208.972C449.39 205.441 448.769 201.059 447.962 197.576C447.637 196.175 446.576 195.482 445.216 195.275C440.817 194.598 437.939 193.296 433.889 191.666C428.545 189.516 426.601 188.218 420.574 188.033C416.916 187.921 413.796 188.111 410.165 188.338C407.736 188.489 405.515 188.763 403.182 189.553C399.165 191.041 395.201 192.69 391.135 193.995L375.436 198.063C373.997 198.393 372.28 199.069 370.976 199.83C370.467 200.171 370.04 200.596 369.77 201.152C369.388 201.931 369.4 203.33 369.431 204.236L369.655 206.557L369.314 207.04L369.3 207.066C369.018 207.574 368.964 208.164 369.02 208.769L369.612 212.623C369.774 213.813 370.674 214.638 371.84 214.846C373.916 215.218 375.176 215.341 377.209 215.35L377.209 215.35Z" fill="#70AD4D"/>
<path fill-rule="evenodd" clip-rule="evenodd" d="M432.871 283.824C435.456 283.824 437.552 285.919 437.552 288.504C437.552 291.089 435.456 293.184 432.871 293.184C430.287 293.184 428.191 291.09 428.191 288.504C428.191 285.919 430.287 283.824 432.871 283.824ZM383.979 283.824C386.564 283.824 388.659 285.919 388.659 288.504C388.659 291.089 386.564 293.184 383.979 293.184C381.394 293.184 379.298 291.09 379.298 288.504C379.298 285.919 381.395 283.824 383.979 283.824ZM394.939 274.222L404.243 270.562C406.261 269.845 408.337 269.666 410.46 269.538C413.919 269.328 417.03 269.146 420.508 269.197C426.079 269.281 427.439 270.256 432.151 272.916C433.128 273.528 433.095 273.897 431.93 274.056L394.783 275.234C394.271 275.289 394.101 274.67 394.938 274.222L394.939 274.222ZM377.209 293.35C378.771 295.529 381.279 296.829 383.979 296.829C386.676 296.829 389.184 295.532 390.748 293.352L426.106 293.354C427.668 295.53 430.175 296.829 432.872 296.829C435.584 296.829 438.105 295.517 439.667 293.316L444.303 292.649C445.147 292.501 445.823 292.034 446.34 291.341C447.371 289.889 448.343 288.775 448.698 286.972C449.39 283.441 448.769 279.059 447.962 275.576C447.637 274.175 446.576 273.482 445.216 273.275C440.817 272.598 437.939 271.296 433.889 269.666C428.545 267.516 426.601 266.218 420.574 266.033C416.916 265.921 413.796 266.111 410.165 266.338C407.736 266.489 405.515 266.763 403.182 267.553C399.165 269.041 395.201 270.69 391.135 271.995L375.436 276.063C373.997 276.393 372.28 277.069 370.976 277.83C370.467 278.171 370.04 278.596 369.77 279.152C369.388 279.931 369.4 281.33 369.431 282.236L369.655 284.557L369.314 285.04L369.3 285.066C369.018 285.574 368.964 286.164 369.02 286.769L369.612 290.623C369.774 291.813 370.674 292.638 371.84 292.846C373.916 293.218 375.176 293.341 377.209 293.35L377.209 293.35Z" fill="#959494"/>
<path fill-rule="evenodd" clip-rule="evenodd" d="M432.871 365.824C435.456 365.824 437.552 367.919 437.552 370.504C437.552 373.089 435.456 375.184 432.871 375.184C430.287 375.184 428.191 373.09 428.191 370.504C428.191 367.919 430.287 365.824 432.871 365.824ZM383.979 365.824C386.564 365.824 388.659 367.919 388.659 370.504C388.659 373.089 386.564 375.184 383.979 375.184C381.394 375.184 379.298 373.09 379.298 370.504C379.298 367.919 381.395 365.824 383.979 365.824ZM394.939 356.222L404.243 352.562C406.261 351.845 408.337 351.666 410.46 351.538C413.919 351.328 417.03 351.146 420.508 351.197C426.079 351.281 427.439 352.256 432.151 354.916C433.128 355.528 433.095 355.897 431.93 356.056L394.783 357.234C394.271 357.289 394.101 356.67 394.938 356.222L394.939 356.222ZM377.209 375.35C378.771 377.529 381.279 378.829 383.979 378.829C386.676 378.829 389.184 377.532 390.748 375.352L426.106 375.354C427.668 377.53 430.175 378.829 432.872 378.829C435.584 378.829 438.105 377.517 439.667 375.316L444.303 374.649C445.147 374.501 445.823 374.034 446.34 373.341C447.371 371.889 448.343 370.775 448.698 368.972C449.39 365.441 448.769 361.059 447.962 357.576C447.637 356.175 446.576 355.482 445.216 355.275C440.817 354.598 437.939 353.296 433.889 351.666C428.545 349.516 426.601 348.218 420.574 348.033C416.916 347.921 413.796 348.111 410.165 348.338C407.736 348.489 405.515 348.763 403.182 349.553C399.165 351.041 395.201 352.69 391.135 353.995L375.436 358.063C373.997 358.393 372.28 359.069 370.976 359.83C370.467 360.171 370.04 360.596 369.77 361.152C369.388 361.931 369.4 363.33 369.431 364.236L369.655 366.557L369.314 367.04L369.3 367.066C369.018 367.574 368.964 368.164 369.02 368.769L369.612 372.623C369.774 373.813 370.674 374.638 371.84 374.846C373.916 375.218 375.176 375.341 377.209 375.35L377.209 375.35Z" fill="#959494"/>
<g clip-path="url(#clip0_218_1156)">
<path d="M423.921 613.72C413.33 613.72 404.748 628.077 404.748 645.782C404.748 663.492 413.33 677.843 423.921 677.843H442.47V613.715H423.921V613.72Z" fill="#1D1D1B"/>
<path d="M442.47 677.843C453.06 677.843 461.644 663.489 461.644 645.782C461.644 628.075 453.06 613.72 442.47 613.72C431.881 613.72 423.296 628.075 423.296 645.782C423.296 663.489 431.881 677.843 442.47 677.843Z" fill="#1D1D1B"/>
<path d="M442.47 669.827C450.113 669.827 456.309 659.061 456.309 645.782C456.309 632.502 450.113 621.737 442.47 621.737C434.828 621.737 428.632 632.502 428.632 645.782C428.632 659.061 434.828 669.827 442.47 669.827Z" fill="#3C3C3B"/>
<path d="M726.051 654.274C726.051 654.274 742.073 654.888 746.736 654.274C748.723 654.012 752.467 651.214 752.467 651.214C752.632 650.22 752.782 649.216 752.915 648.202C756.12 623.58 747.916 602.27 734.586 600.603C721.26 598.937 707.855 617.545 704.65 642.166C704.111 646.322 703.897 650.386 703.972 654.274H726.04H726.051Z" fill="#1D1D1B"/>
<path d="M708.479 613.72C697.888 613.72 689.305 628.077 689.305 645.782C689.305 663.492 697.888 677.843 708.479 677.843H727.028V613.715H708.479V613.72Z" fill="#1D1D1B"/>
<path d="M727.028 677.843C737.618 677.843 746.202 663.489 746.202 645.782C746.202 628.075 737.618 613.72 727.028 613.72C716.439 613.72 707.854 628.075 707.854 645.782C707.854 663.489 716.439 677.843 727.028 677.843Z" fill="#3C3C3B"/>
<path d="M727.028 669.827C734.671 669.827 740.867 659.061 740.867 645.782C740.867 632.502 734.671 621.737 727.028 621.737C719.386 621.737 713.19 632.502 713.19 645.782C713.19 659.061 719.386 669.827 727.028 669.827Z" fill="#878787"/>
<path d="M572.126 613.72C561.535 613.72 552.952 628.077 552.952 645.782C552.952 663.492 561.535 677.843 572.126 677.843H590.675V613.715H572.126V613.72Z" fill="#1D1D1B"/>
<path d="M590.675 677.843C601.264 677.843 609.849 663.489 609.849 645.782C609.849 628.075 601.264 613.72 590.675 613.72C580.086 613.72 571.501 628.075 571.501 645.782C571.501 663.489 580.086 677.843 590.675 677.843Z" fill="#1D1D1B"/>
<path d="M590.675 669.827C598.318 669.827 604.513 659.061 604.513 645.782C604.513 632.502 598.318 621.737 590.675 621.737C583.032 621.737 576.837 632.502 576.837 645.782C576.837 659.061 583.032 669.827 590.675 669.827Z" fill="#3C3C3B"/>
<path d="M605.362 659.049C606.286 655.866 606.997 652.517 607.445 649.035C610.591 624.872 600.32 603.685 584.511 601.709C568.702 599.733 554.015 617.806 550.191 641.873C549.138 648.469 548.69 654.151 548.743 659.049H605.362Z" fill="#1D1D1B"/>
<path d="M560.274 613.72C549.683 613.72 541.101 628.077 541.101 645.782C541.101 663.492 549.683 677.843 560.274 677.843H578.823V613.715H560.274V613.72Z" fill="#1D1D1B"/>
<path d="M578.823 677.843C589.413 677.843 597.997 663.489 597.997 645.782C597.997 628.075 589.413 613.72 578.823 613.72C568.234 613.72 559.65 628.075 559.65 645.782C559.65 663.489 568.234 677.843 578.823 677.843Z" fill="#3C3C3B"/>
<path d="M578.823 669.827C586.466 669.827 592.662 659.061 592.662 645.782C592.662 632.502 586.466 621.737 578.823 621.737C571.181 621.737 564.985 632.502 564.985 645.782C564.985 659.061 571.181 669.827 578.823 669.827Z" fill="#878787"/>
<path d="M757.968 605.757C757.888 603.151 757.167 600.918 755.965 598.654C754.374 595.652 755.105 593.03 755.314 589.825C755.469 587.4 755.527 584.837 755.009 582.449C754.363 579.458 752.36 578.545 750.464 576.419C748.889 574.657 748.039 572.793 745.583 572.067C744.237 571.671 743.409 571.575 742.159 570.822C740.648 569.914 739.173 568.942 737.726 567.933C727.375 560.717 718.13 552.337 707.032 546.131C696.158 540.048 684.376 535.492 672.145 532.832C659.728 530.13 646.941 529.046 634.273 528.106C621.123 527.123 607.953 526.984 594.771 527C581.056 527.016 563.399 527.993 549.694 529.435C543.504 530.087 537.656 531.315 531.733 532.779C525.276 534.376 520.079 536.395 514.316 538.958C498.416 546.024 471.017 565.428 464.133 570.288C462.386 571.516 459.716 572.857 457.136 573.396C446.775 575.565 436.857 579.416 430.378 583.197C428.093 584.532 426.047 585.862 423.788 587.219C421.315 588.703 418.938 589.441 416.278 590.605C413.592 591.78 410.654 592.725 408.144 593.932C405.639 595.134 403.946 596.122 401.698 597.767C399.759 599.177 397.612 601.479 397.254 603.898C396.918 606.136 397.863 609.303 396.576 611.279C396.239 611.798 394.776 612.978 394.301 613.298C391.764 615.034 391.582 618.96 391.47 621.886C391.144 630.314 392.399 638.005 391.967 642.641C391.7 645.499 391.139 648.372 391.812 651.213C392.303 653.302 393.66 657.27 395.673 658.386C396.501 658.846 397.179 658.792 397.981 659.433C398.621 659.946 399.011 660.581 399.807 660.902C400.405 661.142 400.982 661.169 401.58 661.169H553.326C553.406 654.423 554.095 646.775 555.708 639.1C557.155 632.2 561.199 622.837 564.376 618.148C574.433 603.316 588.005 606.606 592.587 610.163C600.556 616.348 603.643 628.183 603.643 637.706C603.643 649.211 601.853 654.22 600.588 659.043H708.164C708.757 659.043 709.296 658.947 709.681 658.504C710.461 657.596 708.084 650.129 709.991 638.908C711.054 632.659 712.656 626.565 715.663 620.952C718.419 615.809 724.021 606.782 731.499 607.37C740.861 608.107 746.202 619.739 747.628 626.64C750.08 638.47 748.648 645.659 747.5 652.201C747.041 654.829 749.273 653.232 750.646 652.436C752.787 651.197 753.93 650.54 755.292 648.858C756.975 646.78 756.761 644.457 757.012 641.926C757.642 635.618 758.871 629.706 757.007 622.896C755.458 617.229 758.144 611.493 757.968 605.752V605.757Z" fill="url(#paint0_linear_218_1156)"/>
<path d="M757.968 605.757C757.888 603.151 757.167 600.918 755.965 598.654C754.374 595.652 755.105 593.03 755.314 589.825C755.469 587.4 755.527 584.837 755.009 582.449C754.363 579.458 752.36 578.545 750.464 576.419C748.889 574.657 748.039 572.793 745.583 572.067C744.237 571.671 743.409 571.575 742.159 570.822C740.648 569.914 739.173 568.942 737.726 567.933C727.375 560.717 718.13 552.337 707.032 546.131C696.158 540.048 684.376 535.492 672.145 532.832C659.728 530.13 646.941 529.046 634.273 528.106C621.123 527.123 607.953 526.984 594.771 527C581.056 527.016 563.399 527.993 549.694 529.435C543.504 530.087 537.656 531.315 531.733 532.779C525.276 534.376 520.079 536.395 514.316 538.958C498.416 546.024 471.017 565.428 464.133 570.288C462.386 571.516 459.716 572.857 457.136 573.396C446.775 575.565 436.857 579.416 430.378 583.197C428.093 584.532 426.047 585.862 423.788 587.219C421.315 588.703 418.938 589.441 416.278 590.605C413.592 591.78 410.654 592.725 408.144 593.932C405.639 595.134 403.946 596.122 401.698 597.767C399.759 599.177 397.612 601.479 397.254 603.898C396.918 606.136 397.863 609.303 396.576 611.279C396.239 611.798 394.776 612.978 394.301 613.298C391.764 615.034 391.582 618.96 391.47 621.886C391.144 630.314 392.399 638.005 391.967 642.641C391.7 645.499 391.139 648.372 391.812 651.213C392.303 653.302 393.66 657.27 395.673 658.386C396.501 658.846 397.179 658.792 397.981 659.433C398.621 659.946 399.011 660.581 399.807 660.902C400.405 661.142 400.982 661.169 401.58 661.169H553.326C553.406 654.423 554.095 646.775 555.708 639.1C557.155 632.2 561.199 622.837 564.376 618.148C574.433 603.316 588.005 606.606 592.587 610.163C600.556 616.348 603.643 628.183 603.643 637.706C603.643 649.211 601.853 654.22 600.588 659.043H708.164C708.757 659.043 709.296 658.947 709.681 658.504C710.461 657.596 708.084 650.129 709.991 638.908C711.054 632.659 712.656 626.565 715.663 620.952C718.419 615.809 724.021 606.782 731.499 607.37C740.861 608.107 746.202 619.739 747.628 626.64C750.08 638.47 748.648 645.659 747.5 652.201C747.041 654.829 749.273 653.232 750.646 652.436C752.787 651.197 753.93 650.54 755.292 648.858C756.975 646.78 756.761 644.457 757.012 641.926C757.642 635.618 758.871 629.706 757.007 622.896C755.458 617.229 758.144 611.493 757.968 605.752V605.757Z" fill="#E8E8E8"/>
<path d="M478.783 558.591C475.279 558.511 471.482 558.917 468.347 560.525C465.906 561.775 461.569 565.898 463.914 568.894C465.303 570.673 467.679 568.915 468.886 568.04C470.408 566.939 477.709 562.298 479.28 561.118C481.598 559.382 481.688 558.656 478.778 558.591H478.783Z" fill="#E8E8E8"/>
<path d="M624.777 535.471C601.138 532.907 577.739 532.581 551.494 533.27C545.763 533.42 537.741 533.97 532.352 534.637C526.387 535.38 524.229 536.197 517.408 539.252C512.169 541.597 506.657 544.604 501.786 547.611C497.086 550.516 481.32 560.904 474.088 567.099C472.582 568.392 468.112 571.901 472.214 571.618C484.728 570.753 508.388 570.181 519.812 570.219C557.358 570.341 573.963 573.359 579.748 573.263C581.985 573.226 584.741 573.818 586.798 572.718C588.913 571.591 590.931 568.691 592.555 566.929C596.945 562.175 614.885 544.31 619.5 540.213C620.167 539.621 622.405 537.441 624.777 535.465V535.471Z" fill="#383838"/>
<path d="M557.048 597.367C554.143 596.736 551.216 596.186 548.252 595.941C542.505 595.465 536.128 597.036 530.542 598.285C518.947 600.881 492.942 607.06 490.48 607.691C486.778 608.631 489.935 609.982 492.53 611.515C497.214 614.276 501.14 616.546 506.694 616.46C517.793 616.284 529.452 615.51 540.177 613.715C546.052 612.732 550.976 611.461 556.103 608.412C558.309 607.098 561.503 604.513 563.335 602.729C563.949 602.131 565.124 600.817 565.322 599.957C565.514 599.119 557.946 597.559 557.054 597.367H557.048Z" fill="url(#paint1_linear_218_1156)"/>
<path d="M408.187 608.278C408.187 607.498 407.295 606.574 406.804 605.869C405.944 604.646 405.447 602.863 405.276 601.34C405.084 599.637 405.57 595.321 404.053 595.903C402.659 596.437 400.181 598.467 399.001 599.535C396.426 601.874 396.741 604.657 396.886 607.894C396.987 610.163 398.296 619.029 401.607 615.729C402.964 614.377 403.904 613.235 405.282 611.782C406.387 610.612 408.198 609.197 408.192 608.273L408.187 608.278Z" fill="#F6F6F6"/>
<path d="M481.603 657.553C479.242 656.228 478.126 655.769 475.002 655.769H410.313C405.821 655.769 404.058 655.363 400.469 658.626C397.147 661.644 401.479 661.169 403.567 661.169H483.841C484.706 661.169 485.091 660.613 484.77 659.967C484.471 659.374 482.543 658.076 481.603 657.553Z" fill="#1D1D1B"/>
<path d="M486.949 616.882C484.455 614.511 481.309 611.739 478.297 609.966C476.011 608.615 472.326 607.872 467.578 608.022C459.31 608.278 447.518 608.748 438.497 608.748C430.277 608.748 424.824 608.823 417.112 608.347C413.234 608.107 411.125 607.616 408.449 609.795C405.81 611.953 401.992 617.107 400.448 620.199C399.38 622.341 400.202 626.288 401.831 630.715C403.113 634.198 407.092 642.674 408.983 645.878C410.067 647.721 413.352 649.387 416.69 649.387H465.02C469.068 649.387 471.429 647.566 473.293 645.547C476.679 641.883 486.266 629.305 488.375 625.908C490.592 622.346 489.743 619.542 486.944 616.882H486.949Z" fill="#1D1D1B"/>
<path d="M458.99 628.509H415.99C415.303 628.509 414.746 629.066 414.746 629.754V640.12C414.746 640.808 415.303 641.365 415.99 641.365H458.99C459.677 641.365 460.234 640.808 460.234 640.12V629.754C460.234 629.066 459.677 628.509 458.99 628.509Z" fill="#9D9D9C"/>
<path d="M536.027 638.15C534.499 636.077 530.686 631.164 528.149 629.097C525.82 627.195 521.756 627.409 518.049 627.409C517.264 627.409 517.195 627.943 517.537 628.483C519.358 631.351 521.083 634.064 523.016 636.863C525.094 639.875 526.942 642.033 525.836 645.707C525.489 646.861 523.62 648.041 521.42 648.597C518.231 649.403 498.795 652.73 492.194 653.953C491.591 654.066 491.729 654.653 492.151 655.048C493.508 656.314 497.343 655.823 499.65 655.609C502.988 655.305 526.771 652.581 529.874 652.025C532.673 651.529 534.515 650.359 535.963 649.173C537.293 648.084 538.601 646.433 538.831 645.13C539.37 642.113 537.752 640.5 536.027 638.155V638.15Z" fill="#1D1D1B"/>
<path d="M398.2 653.745C397.938 652.778 396.565 649.745 396.256 647.352C395.978 645.21 396.047 642.828 396.063 640.59C396.09 636.521 396.175 633.583 396.293 629.428C396.32 628.547 395.396 627.884 395.091 627.756C394.13 627.35 393.115 627.142 392.047 627.137C391.593 627.137 391.321 627.628 391.321 627.975C391.321 627.975 391.807 643.021 391.972 644.863C392.09 646.204 392.261 647.833 392.549 649.141C393.062 651.481 393.922 654.434 396.341 655.865C398.039 656.875 398.547 655.006 398.205 653.75L398.2 653.745Z" fill="#1D1D1B"/>
<path d="M537.095 641.723C537.095 643.389 535.813 644.74 534.238 644.74C532.662 644.74 531.38 643.389 531.38 641.723C531.38 640.056 532.662 638.705 534.238 638.705C535.813 638.705 537.095 640.056 537.095 641.723Z" fill="#575756"/>
<path d="M396.074 639.811C396.074 640.067 396.074 640.329 396.069 640.59C396.069 641.595 396.047 642.631 396.058 643.656C395.529 644.318 394.744 644.735 393.863 644.735C393.11 644.735 392.426 644.431 391.913 643.923C391.352 643.378 391 642.593 391 641.723C391 640.948 391.272 640.249 391.726 639.714C392.244 639.095 393.008 638.7 393.857 638.7C394.749 638.7 395.545 639.132 396.069 639.805L396.074 639.811Z" fill="#EDEDED"/>
<path d="M532.94 644.74C534.518 644.74 535.797 643.389 535.797 641.723C535.797 640.056 534.518 638.705 532.94 638.705C531.362 638.705 530.082 640.056 530.082 641.723C530.082 643.389 531.362 644.74 532.94 644.74Z" fill="#EDEDED"/>
<path d="M739.52 580.495C720.56 581.365 643.123 589.088 623.425 591.689C618.464 592.346 613.422 592.768 608.466 593.484C606.26 593.804 596.149 594.755 596.149 597.078C596.149 599.69 601.768 600.112 605.672 600.235C610.543 600.384 615.259 600.272 619.884 599.401C629.375 597.618 638.22 594.84 647.673 592.811C657.372 590.728 667.29 589.12 677.123 588.02C688.52 586.744 734.11 582.188 736.818 581.894C737.587 581.809 742.004 581.515 742.442 580.847C742.752 580.372 740.295 580.463 739.526 580.495H739.52Z" fill="#B7B7B7"/>
<path d="M697.375 630.779C693.84 630.352 690.304 630.555 686.768 630.817C679.863 631.324 637.75 635.292 623.612 637.007C622.165 637.183 608.754 638.721 610.468 641.135C611.013 641.904 613.742 641.632 614.559 641.637C617.62 641.675 682.634 636.553 690.806 635.917C694.384 635.639 706.23 634.983 706.465 633.856C706.733 632.584 700.008 631.094 697.37 630.774L697.375 630.779Z" fill="#F2F2F2"/>
<path d="M533.217 599.93C530.579 599.93 528.443 602.542 528.443 605.768C528.443 608.994 530.579 611.606 533.217 611.606C535.856 611.606 537.992 608.994 537.992 605.768C537.992 602.542 535.856 599.93 533.217 599.93ZM533.217 609.186C531.674 609.186 530.424 607.659 530.424 605.768C530.424 603.877 531.674 602.35 533.217 602.35C534.761 602.35 536.011 603.877 536.011 605.768C536.011 607.659 534.761 609.186 533.217 609.186Z" fill="white"/>
<path d="M551.174 600.769C552.114 597.164 548.359 597.185 544.823 597.239C543.969 597.249 537.715 597.644 537.88 598.328C538.073 599.119 544.562 599.06 545.774 599.188C550.095 599.642 544.22 607.37 542.303 608.625C538.361 611.205 532.817 611.445 528.283 612.054C522.093 612.887 515.812 613.528 509.547 613.977C507.453 614.126 505.514 614.164 504.74 614.751C504.014 615.301 506.358 615.323 507.101 615.296C512.773 615.125 518.482 614.735 524.143 614.196C530.141 613.619 536.235 613.272 541.923 611.776C544.717 611.045 546.533 609.095 548.097 606.761C549.267 605.015 550.634 602.879 551.179 600.774L551.174 600.769Z" fill="white"/>
<path d="M705.488 570.902C704.58 569.316 656.939 570.758 630.294 571.906C626.128 572.088 594.392 574.192 590.242 574.422C581.75 574.887 572.836 576.334 564.456 577.781C548.93 580.463 533.495 584.025 510.556 591.63C506.257 593.056 485.753 601.431 483.355 604.112C482.041 605.586 489.641 601.143 499.5 597.959C519.55 591.486 539.472 586.834 565.316 583.058C572.083 582.07 581.12 582.097 585.051 582.166C589.671 582.246 598.457 582.214 603.071 582.177C610.933 582.113 618.613 580.788 632.302 579.576C652.026 577.83 706.759 573.13 705.483 570.902H705.488Z" fill="#B7B7B7"/>
<path d="M719.247 558.656C718.189 557.603 704.057 548.689 695.875 544.935C687.634 541.153 679.617 538.328 670.666 536.988C661.517 535.615 652.288 534.873 643.064 536.09C635.069 537.148 628.681 541.645 622.806 546.868C616.317 552.636 610.442 559.286 604.609 565.438C603.312 566.811 597.565 572.537 598.617 574.08C599.504 575.389 602.948 575.976 604.428 576.259C606.73 576.697 609.053 577.044 611.382 577.311C613.192 577.52 615.104 577.674 616.915 577.68C625.215 577.717 657.527 575.122 667.098 574.47C677.705 573.744 688.307 572.894 698.903 572.029C701.098 571.848 703.747 571.629 705.862 571.009C708.18 570.331 710.221 569.417 712.266 568.173C713.585 567.372 721.832 561.23 719.247 558.656Z" fill="#2D2D2D"/>
<path d="M547.414 541.714C533.677 542.152 523.898 545.239 513.633 549.677C504.873 553.464 489.588 563.142 485.534 567.067C485.059 567.532 484.562 568.51 485.262 568.51C488.269 568.51 490.795 568.51 494.117 568.51C497.012 568.51 499.645 567.105 502.385 566.32C508.414 564.589 514.765 564.162 521.003 564.173C521.441 564.173 521.414 563.788 521.585 563.516C524.304 559.174 532.411 559.547 536.951 561.727C537.191 561.839 538.137 561.999 538.446 561.342C540.828 556.295 545.491 547.456 548.119 542.937C548.37 542.505 548.562 541.677 547.414 541.714Z" fill="url(#paint2_linear_218_1156)"/>
<path d="M537.319 564.29C534.937 562.784 530.638 562.052 528.074 563.681C527.663 563.943 526.878 564.418 528.09 564.723C528.71 564.878 529.34 565.102 529.644 565.524C530.12 566.186 530.061 567.751 531.076 568.141C531.695 568.376 535.231 568.275 536.091 568.269C536.353 568.269 536.63 568.248 536.743 567.943C536.924 567.447 537.517 565.508 537.731 564.99C537.875 564.643 537.549 564.44 537.319 564.296V564.29Z" fill="url(#paint3_linear_218_1156)"/>
<path d="M654.242 556.573C653.922 554.356 653.676 552.311 653.19 550.121C652.774 548.235 652.533 545.971 651.823 544.176C651.358 542.996 650.482 542.318 649.206 542.371C645.12 542.553 639.064 542.243 634.369 543.797C630.326 545.132 626.737 547.552 623.799 550.308C623.489 550.596 622.897 551.141 623.212 551.643C623.351 551.862 623.644 552.118 623.847 552.284C624.403 552.743 627.116 555.088 627.719 555.531C628.291 555.948 629.53 556.92 630.694 556.071C631.581 555.424 631.923 553.769 632.532 552.845C633.712 551.055 635.069 550.5 637.232 550.382C638.957 550.292 644.757 550.265 647.662 550.265C649.793 550.265 650.589 553.838 651.049 555.189C651.417 556.268 651.732 557.416 652.443 558.506C652.934 559.264 654.52 558.527 654.237 556.573H654.242Z" fill="url(#paint4_linear_218_1156)"/>
<path d="M709.686 563.147C705.883 559.943 697.487 554.137 689.508 550.708C681.7 547.36 677.192 545.581 666.275 543.546C665.747 543.445 665.469 543.941 665.64 544.55C667.974 552.866 670.062 561.219 670.799 564.739C671.184 566.587 671.526 568.189 671.883 568.333C672.524 568.584 673.096 567.692 673.144 566.891C673.293 564.472 673.544 561.102 674.212 559.393C674.965 557.47 677.24 557.758 678.656 557.758C681.444 557.758 688.445 557.566 689.994 557.566C692.221 557.566 692.75 559.713 693.049 560.915C693.332 562.047 693.45 562.763 693.749 563.895C693.909 564.498 694.449 564.856 694.945 564.856C697.343 564.856 706.247 564.787 708.981 564.787C709.932 564.787 710.653 563.975 709.675 563.147H709.686Z" fill="url(#paint5_linear_218_1156)"/>
<path d="M719.247 558.656C719.06 558.469 718.445 558.025 717.527 557.406C719.284 560.124 711.689 565.866 710.434 566.64C708.421 567.885 706.466 568.761 704.185 569.433C702.108 570.053 699.448 570.309 697.285 570.491C686.859 571.362 676.429 572.211 665.992 572.932C656.576 573.583 624.787 576.179 616.621 576.142C614.837 576.136 612.957 575.976 611.173 575.773C608.882 575.506 606.596 575.159 604.332 574.721C602.932 574.449 599.744 573.893 598.729 572.681C598.473 573.268 598.403 573.76 598.617 574.075C599.503 575.383 602.948 575.971 604.428 576.254C606.73 576.692 609.053 577.039 611.382 577.306C613.192 577.514 615.104 577.669 616.915 577.674C625.215 577.712 657.527 575.116 667.098 574.465C677.705 573.738 688.307 572.889 698.903 572.024C701.098 571.842 703.747 571.623 705.862 571.004C708.18 570.325 710.22 569.412 712.266 568.168C713.585 567.367 721.832 561.225 719.247 558.65V558.656Z" fill="white"/>
<path d="M645.526 567.853C644.511 562.501 633.322 560.546 628.761 560.258C625.594 560.06 622.004 559.777 619.596 562.02C617.534 563.938 616.268 566.662 616.028 569.476C615.82 571.933 616.829 574.865 618.912 576.398C621.332 578.187 626.737 577.739 629.546 577.381C634.748 576.718 646.984 575.527 645.526 567.853Z" fill="#E8E8E8"/>
<path d="M587.235 631.506C586.974 631.036 586.269 631.239 586.29 631.778C586.311 632.28 586.322 632.787 586.322 633.3C586.322 644.591 581.056 653.74 574.561 653.74C572.27 653.74 570.134 652.597 568.323 650.626C567.992 650.263 567.383 650.567 567.458 651.053C568.793 659.786 573.376 666.222 578.823 666.222C585.318 666.222 590.584 657.073 590.584 645.782C590.584 640.222 589.308 635.185 587.235 631.506Z" fill="#DADADA"/>
<path d="M735.44 631.506C735.178 631.036 734.473 631.239 734.495 631.778C734.516 632.28 734.527 632.787 734.527 633.3C734.527 644.591 729.261 653.74 722.766 653.74C720.475 653.74 718.339 652.597 716.528 650.626C716.197 650.263 715.588 650.567 715.663 651.053C716.998 659.786 721.581 666.222 727.028 666.222C733.523 666.222 738.789 657.073 738.789 645.782C738.789 640.222 737.512 635.185 735.44 631.506Z" fill="#DADADA"/>
<path style="mix-blend-mode:color-dodge" opacity="0.75" d="M757.006 623.163C755.458 617.496 758.144 611.76 757.968 606.019C757.888 603.412 757.167 601.18 755.965 598.915C754.373 595.914 755.105 593.291 755.313 590.087C755.468 587.662 755.527 585.098 755.009 582.711C754.363 579.72 752.36 578.807 750.464 576.681C748.888 574.919 748.039 573.055 745.582 572.328C744.236 571.933 743.408 571.837 742.159 571.084C740.647 570.176 739.173 569.204 737.726 568.194C727.375 560.979 718.13 552.599 707.032 546.393C696.158 540.31 684.376 535.754 672.145 533.094C659.727 530.391 646.941 529.307 634.273 528.367C621.118 527.39 607.947 527.256 594.766 527.267C581.05 527.283 563.393 528.26 549.689 529.702C543.499 530.354 537.65 531.582 531.727 533.046C525.27 534.643 520.073 536.662 514.311 539.225C498.411 546.291 471.012 565.695 464.128 570.555C462.381 571.783 459.711 573.124 457.131 573.663C446.77 575.832 436.852 579.683 430.373 583.464C428.087 584.799 426.042 586.129 423.782 587.486C421.31 588.97 418.933 589.708 416.273 590.872C413.587 592.047 410.649 592.992 408.139 594.199C405.634 595.401 403.941 596.394 401.692 598.034C399.754 599.444 397.607 601.746 397.249 604.165C396.912 606.403 397.858 609.57 396.57 611.546C396.234 612.065 394.771 613.245 394.295 613.565C391.758 615.301 391.577 619.227 391.465 622.154C391.139 630.581 392.394 638.272 391.961 642.908C391.694 645.766 391.133 648.639 391.806 651.48C392.298 653.569 393.654 657.537 395.668 658.653C396.496 659.113 397.174 659.059 397.975 659.7C398.616 660.213 399.006 660.848 399.802 661.169C400.4 661.409 400.977 661.436 401.575 661.436H553.321C553.401 654.69 554.09 647.042 555.703 639.367C557.15 632.467 561.193 623.104 564.371 618.415C574.428 603.583 587.999 606.873 592.581 610.43C600.55 616.615 603.637 628.45 603.637 637.973C603.637 649.478 601.848 654.487 600.582 659.31H708.159C708.751 659.31 709.296 659.214 709.675 658.771C710.455 657.863 708.078 650.396 709.985 639.175C711.048 632.926 712.65 626.832 715.657 621.219C718.413 616.076 724.016 607.049 731.493 607.637C740.856 608.374 746.191 620.006 747.622 626.907C750.074 638.737 748.643 645.926 747.494 652.468C747.035 655.096 749.267 653.499 750.64 652.703C752.782 651.464 753.925 650.807 755.287 649.125C756.969 647.047 756.755 644.724 757.006 642.193C757.637 635.885 758.865 629.973 757.001 623.163H757.006ZM592.544 567.196C590.92 568.953 588.896 571.858 586.787 572.985C584.73 574.085 581.974 573.493 579.737 573.53C573.952 573.621 557.348 570.603 519.801 570.486C508.377 570.448 484.717 571.025 472.203 571.885C468.101 572.168 472.571 568.654 474.078 567.367C481.315 561.166 497.081 550.783 501.776 547.878C506.641 544.871 512.153 541.864 517.398 539.519C524.218 536.469 526.381 535.647 532.341 534.905C537.73 534.237 545.752 533.687 551.483 533.537C577.734 532.848 601.132 533.174 624.766 535.738C622.389 537.709 620.157 539.893 619.489 540.486C614.874 544.582 596.929 562.453 592.544 567.201V567.196ZM712.26 568.435C710.215 569.679 708.175 570.592 705.857 571.271C703.742 571.89 701.093 572.109 698.897 572.291C688.301 573.161 677.699 574.011 667.092 574.732C660.988 575.148 645.638 576.355 633.162 577.162C638.93 576.286 646.701 574.32 645.52 568.114C644.506 562.763 633.317 560.808 628.755 560.519C625.588 560.322 621.999 560.039 619.59 562.282C617.529 564.199 616.263 566.923 616.023 569.738C615.814 572.195 616.824 575.127 618.907 576.66C619.724 577.263 620.883 577.605 622.165 577.792C619.975 577.893 618.164 577.947 616.909 577.942C615.099 577.936 613.181 577.776 611.376 577.573C609.047 577.306 606.724 576.959 604.422 576.521C602.948 576.243 599.503 575.65 598.611 574.342C597.559 572.793 603.301 567.067 604.604 565.7C610.436 559.547 616.311 552.903 622.8 547.13C628.675 541.906 635.063 537.409 643.058 536.352C652.287 535.134 661.511 535.877 670.66 537.249C679.611 538.59 687.628 541.415 695.869 545.196C704.051 548.951 718.189 557.87 719.241 558.917C721.831 561.492 713.585 567.634 712.26 568.435Z" fill="url(#paint6_linear_218_1156)"/>
<path d="M413.037 607.632C412.855 607.632 412.689 607.503 412.657 607.316C411.904 603.284 412.967 599.161 415.809 595.059C423.126 584.489 441.947 575.17 463.754 571.313C463.962 571.276 464.165 571.415 464.202 571.629C464.24 571.837 464.101 572.04 463.887 572.077C442.273 575.901 423.654 585.098 416.444 595.502C413.726 599.428 412.705 603.359 413.421 607.178C413.459 607.386 413.32 607.589 413.111 607.632C413.09 607.632 413.063 607.637 413.042 607.637L413.037 607.632Z" fill="#223A61"/>
<path d="M735.958 594.883C733.811 594.883 731.397 591.897 730.265 587.678C729.415 584.522 729.511 581.488 730.521 579.763C730.927 579.063 731.482 578.604 732.123 578.438C734.393 577.851 737.144 580.986 738.377 585.574C739.227 588.73 739.13 591.764 738.121 593.489C737.715 594.189 737.16 594.648 736.519 594.814C736.337 594.862 736.145 594.883 735.958 594.883ZM732.689 579.133C732.561 579.133 732.433 579.149 732.31 579.181C731.867 579.298 731.482 579.624 731.178 580.147C730.286 581.68 730.216 584.559 731.002 587.48C732.086 591.518 734.521 594.536 736.326 594.071C736.77 593.954 737.154 593.628 737.459 593.104C738.351 591.572 738.42 588.693 737.635 585.771C736.626 582.011 734.441 579.133 732.689 579.133Z" fill="#223A61"/>
<path d="M660.069 595.604C658.83 595.604 657.863 594.974 657.474 593.9C657.399 593.703 657.5 593.484 657.703 593.409C657.901 593.334 658.12 593.435 658.195 593.638C658.333 594.012 658.793 594.883 660.16 594.835C664.401 594.712 665.506 594.648 668.689 594.205C671.232 593.847 672.22 593.281 672.22 592.186C672.22 591.972 672.391 591.801 672.604 591.801C672.818 591.801 672.989 591.972 672.989 592.186C672.989 594.108 670.975 594.659 668.796 594.963C665.576 595.412 664.459 595.476 660.181 595.604C660.144 595.604 660.112 595.604 660.075 595.604H660.069Z" fill="#223A61"/>
<path d="M712.554 590.418C712.485 590.418 712.421 590.418 712.351 590.418C711.721 590.418 711.166 590.306 710.701 590.087C710.135 589.825 709.724 589.302 709.595 588.687C709.553 588.479 709.686 588.271 709.894 588.228C710.103 588.185 710.311 588.319 710.354 588.527C710.434 588.906 710.685 589.227 711.032 589.387C711.395 589.553 711.839 589.643 712.357 589.643C714.808 589.643 717.03 589.441 719.465 589.179H719.514C720.635 589.056 721.901 588.917 722.414 588.143C722.531 587.966 722.772 587.918 722.953 588.036C723.129 588.153 723.177 588.394 723.06 588.57C722.344 589.649 720.822 589.809 719.594 589.943H719.546C717.153 590.204 714.968 590.418 712.549 590.418H712.554Z" fill="#223A61"/>
<path d="M540.529 596.715C540.321 596.715 540.15 596.549 540.145 596.336C540.102 593.505 541.202 593.083 542.591 592.549L542.74 592.49C553.668 588.271 568.697 584.543 576.773 582.54C578.514 582.107 579.886 581.766 580.762 581.536C581.473 581.349 581.964 580.591 582.028 580.404C582.856 578.144 583.251 576.377 583.39 574.294C583.417 573.861 583.251 573.631 582.819 573.503C582.616 573.444 582.498 573.231 582.557 573.028C582.616 572.825 582.829 572.707 583.032 572.766C583.807 572.99 584.207 573.551 584.154 574.342C584.01 576.499 583.604 578.331 582.744 580.665C582.6 581.061 581.948 582.011 580.955 582.278C580.073 582.513 578.695 582.855 576.954 583.288C568.895 585.285 553.892 589.008 543.013 593.211L542.863 593.27C541.539 593.777 540.876 594.034 540.909 596.325C540.909 596.539 540.743 596.709 540.529 596.715H540.524H540.529Z" fill="#223A61"/>
<path d="M506.38 616.85C500.809 616.85 496.873 614.527 492.333 611.851C492.007 611.659 491.676 611.472 491.35 611.285C489.641 610.318 488.285 609.549 488.407 608.63C488.488 608.054 489.091 607.648 490.378 607.322C490.581 607.268 490.789 607.391 490.843 607.6C490.896 607.803 490.773 608.011 490.565 608.064C489.225 608.406 489.166 608.721 489.166 608.732C489.112 609.138 490.683 610.024 491.724 610.617C492.055 610.804 492.392 610.996 492.723 611.189C497.172 613.811 501.023 616.081 506.385 616.086C506.486 616.086 506.588 616.086 506.689 616.086C519.192 615.889 530.44 614.965 540.113 613.346C545.929 612.369 550.843 611.103 555.906 608.091C558.138 606.761 561.295 604.187 563.063 602.467C563.698 601.847 564.681 600.71 564.916 599.989C564.665 599.786 563.415 599.124 557.172 597.794L556.969 597.751C554.394 597.196 551.345 596.592 548.22 596.336C548.007 596.32 547.852 596.133 547.868 595.924C547.884 595.716 548.065 595.556 548.279 595.572C551.446 595.834 554.528 596.442 557.129 597.003L557.332 597.046C565.007 598.675 565.445 599.364 565.61 599.626C565.722 599.797 565.717 599.951 565.69 600.053C565.423 601.207 563.784 602.83 563.597 603.012C561.797 604.769 558.576 607.391 556.296 608.748C551.126 611.824 546.137 613.111 540.236 614.099C530.526 615.728 519.24 616.652 506.7 616.85C506.593 616.85 506.486 616.85 506.38 616.85Z" fill="#223A61"/>
<path d="M695.688 650.332H602.745C602.532 650.332 602.361 650.161 602.361 649.948C602.361 649.734 602.532 649.563 602.745 649.563H695.688C702.764 649.563 703.667 647.16 704.714 644.377L704.81 644.126C705.531 642.23 706.321 639.052 707.09 635.981C707.694 633.578 708.314 631.094 708.89 629.257C710.567 623.937 713.238 618.484 716.047 614.671C716.661 613.838 717.318 612.999 718.007 612.113C720.282 609.202 722.638 606.195 723.642 603.119C725.463 597.537 726.104 591.251 725.709 582.743C725.623 580.911 725.116 579.084 724.625 577.322C724.192 575.757 723.738 574.144 723.594 572.537L723.578 572.387C723.038 566.555 722.648 562.346 719.22 559.227C719.065 559.083 719.054 558.842 719.193 558.688C719.337 558.533 719.577 558.522 719.732 558.661C723.38 561.983 723.781 566.32 724.336 572.318L724.352 572.467C724.496 574.005 724.913 575.517 725.362 577.119C725.864 578.924 726.382 580.794 726.473 582.711C726.868 591.315 726.222 597.687 724.368 603.359C723.321 606.563 720.929 609.624 718.611 612.588C717.922 613.469 717.27 614.302 716.661 615.13C713.905 618.88 711.272 624.247 709.622 629.492C709.051 631.308 708.431 633.781 707.833 636.173C707.058 639.266 706.257 642.46 705.526 644.404L705.429 644.655C704.329 647.576 703.293 650.337 695.682 650.337L695.688 650.332Z" fill="#223A61"/>
<path d="M670.927 650.332C670.927 650.332 670.901 650.332 670.885 650.332C670.676 650.311 670.521 650.118 670.548 649.91C670.628 649.194 670.74 648.34 670.858 647.416C671.269 644.201 671.777 640.195 671.707 637.738C671.691 637.204 671.515 636.36 671.333 635.463C671.088 634.267 670.805 632.915 670.783 631.767C670.724 628.84 673.256 613.256 673.769 610.158C674.549 605.415 674.314 595.481 673.806 590.728C673.651 589.28 673.651 587.881 673.646 586.524C673.646 584.933 673.646 583.288 673.395 581.547C672.978 578.636 671.04 575.869 669.4 573.786C669.266 573.621 669.298 573.38 669.464 573.247C669.63 573.119 669.87 573.145 670.003 573.311C671.707 575.469 673.715 578.342 674.159 581.44C674.415 583.234 674.415 584.906 674.42 586.524C674.42 587.86 674.42 589.238 674.575 590.648C675.083 595.444 675.323 605.479 674.533 610.286C673.133 618.805 671.515 629.54 671.558 631.751C671.579 632.83 671.851 634.144 672.092 635.308C672.295 636.275 672.466 637.113 672.482 637.717C672.556 640.238 672.038 644.27 671.627 647.517C671.51 648.441 671.403 649.285 671.323 650.001C671.301 650.199 671.136 650.343 670.943 650.343L670.927 650.332Z" fill="#223A61"/>
<path d="M608.738 650.332C608.738 650.332 608.711 650.332 608.695 650.332C608.487 650.311 608.332 650.124 608.353 649.91C610.041 633.952 609.598 623.403 608.669 606.136C608.647 605.714 608.567 604.961 608.482 604.085C608.268 601.986 607.974 599.108 608.06 597.398C608.076 597.121 608.113 596.752 608.156 596.325C608.3 594.91 608.524 592.773 608.167 591.053C607.563 588.143 606.586 585.243 605.635 582.439C604.909 580.297 604.161 578.08 603.584 575.864C603.531 575.661 603.653 575.447 603.856 575.394C604.059 575.34 604.273 575.463 604.326 575.666C604.898 577.856 605.646 580.062 606.361 582.188C607.317 585.013 608.3 587.934 608.914 590.893C609.293 592.73 609.069 594.942 608.914 596.4C608.872 596.816 608.834 597.174 608.823 597.436C608.738 599.086 609.032 601.928 609.24 604.005C609.336 604.924 609.406 605.655 609.432 606.093C610.367 623.403 610.81 633.973 609.117 649.99C609.096 650.188 608.93 650.332 608.738 650.332Z" fill="#223A61"/>
<path d="M529.036 630.266C528.934 630.266 528.838 630.229 528.763 630.154C527.546 628.915 526.435 628.344 524.512 627.964C523.471 627.761 519.043 627.655 514.76 627.548C513.633 627.521 512.5 627.494 511.437 627.462C510.343 627.43 509.216 627.414 508.094 627.393C503.058 627.307 497.85 627.222 495.062 626.116C492.232 624.995 491.131 623.286 489.972 621.481C489.577 620.866 489.171 620.236 488.68 619.59C488.552 619.424 488.584 619.179 488.755 619.05C488.926 618.922 489.166 618.954 489.294 619.125C489.801 619.793 490.218 620.439 490.619 621.064C491.762 622.837 492.744 624.37 495.345 625.401C498 626.453 503.138 626.538 508.105 626.624C509.232 626.645 510.359 626.661 511.459 626.693C512.527 626.72 513.654 626.752 514.781 626.779C519.294 626.886 523.556 626.992 524.662 627.206C526.728 627.612 527.989 628.269 529.313 629.615C529.463 629.764 529.458 630.01 529.313 630.159C529.239 630.234 529.143 630.272 529.046 630.272L529.036 630.266Z" fill="#223A61"/>
<path d="M400.218 616.85C400.021 616.85 399.829 616.813 399.636 616.738C397.334 615.841 396.565 609.453 396.501 607.92C396.491 607.706 396.656 607.53 396.87 607.519C397.089 607.514 397.26 607.674 397.27 607.888C397.361 609.944 398.28 615.387 399.919 616.028C400.069 616.086 400.534 616.268 401.34 615.467C402.147 614.666 402.798 613.939 403.498 613.17C403.968 612.652 404.454 612.113 405.009 611.525C405.298 611.221 405.64 610.89 405.971 610.574C406.793 609.784 407.819 608.801 407.819 608.283C407.819 607.808 407.306 607.146 406.895 606.617C406.756 606.435 406.617 606.259 406.505 606.099C405.709 604.967 405.116 603.209 404.913 601.393C404.865 600.939 404.86 600.325 404.854 599.674C404.844 598.509 404.828 596.555 404.395 596.261C404.379 596.25 404.336 596.218 404.208 596.272C404.011 596.346 403.786 596.25 403.711 596.053C403.637 595.855 403.733 595.631 403.93 595.556C404.347 595.396 404.646 595.508 404.822 595.631C405.533 596.117 405.597 597.543 405.613 599.668C405.613 600.299 405.623 600.897 405.666 601.308C405.853 603.001 406.398 604.625 407.124 605.655C407.231 605.81 407.359 605.976 407.493 606.147C408 606.804 408.582 607.552 408.577 608.283C408.577 609.132 407.568 610.104 406.494 611.13C406.158 611.456 405.837 611.76 405.559 612.054C405.009 612.636 404.529 613.17 404.064 613.683C403.364 614.457 402.702 615.194 401.88 616.006C401.319 616.567 400.763 616.85 400.224 616.85H400.218Z" fill="#223A61"/>
<path d="M755.725 583.806C755.725 581.413 754.475 579.683 752.75 578.011C752.264 577.541 751.255 576.425 750.512 576.115C749.327 575.618 748.296 576.286 747.26 576.82C745.844 577.547 741.796 579.72 741.278 581.023C740.663 582.578 743.489 584.543 744.744 585.537C746.442 586.872 747.601 588.394 749.3 589.654C750.689 590.685 752.173 590.616 754.967 590.616C756.046 590.616 755.731 585.942 755.731 583.806H755.725Z" fill="#BF5059"/>
<path opacity="0.7" d="M603.103 535.866C588.378 533.398 544.102 534.68 534.777 535.706C529.383 536.299 525.532 537.089 520.901 539.263C513.926 542.531 507.496 545.992 500.969 549.966C498.288 551.6 489.844 557.16 491.318 560.941C492.894 564.995 515.598 558.778 519.865 557.384C523.855 556.081 550.704 548.091 559.569 546.708C569.509 545.154 575.24 544.978 585.222 544.55C589.836 544.353 596.037 544.721 599.701 541.714C602.532 539.386 605.982 536.352 603.109 535.871L603.103 535.866Z" fill="url(#paint7_linear_218_1156)"/>
</g>
<defs>
<linearGradient id="paint0_linear_218_1156" x1="457.302" y1="548.032" x2="710.471" y2="694.197" gradientUnits="userSpaceOnUse">
<stop stop-color="#3DB2D9"/>
<stop offset="0.25" stop-color="#38B0D7"/>
<stop offset="0.51" stop-color="#2CABD4"/>
<stop offset="0.78" stop-color="#17A3CE"/>
<stop offset="1" stop-color="#009AC8"/>
</linearGradient>
<linearGradient id="paint1_linear_218_1156" x1="488.781" y1="606.163" x2="578.668" y2="606.163" gradientUnits="userSpaceOnUse">
<stop stop-color="#EDEDED"/>
<stop offset="0.26" stop-color="#E8E8E8"/>
<stop offset="0.52" stop-color="#DCDCDC"/>
<stop offset="0.79" stop-color="#C7C7C7"/>
<stop offset="1" stop-color="#B2B2B2"/>
</linearGradient>
<linearGradient id="paint2_linear_218_1156" x1="777.201" y1="555.109" x2="604.925" y2="555.109" gradientUnits="userSpaceOnUse">
<stop offset="0.0254166" stop-color="#EDFED5"/>
<stop offset="0.99" stop-color="#66696C"/>
</linearGradient>
<linearGradient id="paint3_linear_218_1156" x1="777.202" y1="565.524" x2="604.925" y2="565.524" gradientUnits="userSpaceOnUse">
<stop stop-color="#30B5BF"/>
<stop offset="1" stop-color="#244E78"/>
</linearGradient>
<linearGradient id="paint4_linear_218_1156" x1="777.201" y1="550.585" x2="604.924" y2="550.585" gradientUnits="userSpaceOnUse">
<stop stop-color="#66696C"/>
<stop offset="1" stop-color="#66696C"/>
</linearGradient>
<linearGradient id="paint5_linear_218_1156" x1="777.2" y1="555.953" x2="604.925" y2="555.953" gradientUnits="userSpaceOnUse">
<stop stop-color="#424242"/>
<stop offset="1" stop-color="#7C8287"/>
</linearGradient>
<linearGradient id="paint6_linear_218_1156" x1="552.829" y1="703.1" x2="607.039" y2="523.123" gradientUnits="userSpaceOnUse">
<stop/>
<stop offset="1" stop-color="white"/>
</linearGradient>
<linearGradient id="paint7_linear_218_1156" x1="499.586" y1="548.369" x2="618.49" y2="548.369" gradientUnits="userSpaceOnUse">
<stop stop-color="#E0F2FF"/>
<stop offset="1" stop-color="#1D2E1E"/>
</linearGradient>
<clipPath id="clip0_218_1156">
<rect width="367" height="150.843" fill="white" transform="translate(391 527)"/>
</clipPath>
</defs>
</svg>
