<svg width="100" height="100" viewBox="0 0 100 100" fill="none" xmlns="http://www.w3.org/2000/svg">
<path d="M42.7704 23.5575H30.5086L27.0786 11H46.2618L42.7704 23.5575Z" stroke="#42505C" stroke-width="3" stroke-linecap="round" stroke-linejoin="round"/>
<path d="M20.5833 46.0983C20.135 44.4242 19.895 42.6504 19.895 40.8155C19.895 32.968 24.2904 26.2569 30.5013 23.5352" stroke="#42505C" stroke-width="3" stroke-linecap="round" stroke-linejoin="round"/>
<path d="M42.7815 23.5112C49.024 26.2164 53.4436 32.9441 53.4436 40.8156C53.4436 42.9683 53.1125 45.0341 52.5042 46.9576" stroke="#42505C" stroke-width="3" stroke-linecap="round" stroke-linejoin="round"/>
<path d="M73.6337 55.2779L58.064 71.777C56.7825 73.135 56.8519 75.2678 58.2189 76.5409L69.2301 86.7946C70.5972 88.0676 72.7443 87.9987 74.0258 86.6407L89.5955 70.1417C90.877 68.7837 90.8077 66.6508 89.4406 65.3778L78.4294 55.124C77.0623 53.851 74.9152 53.9199 73.6337 55.2779Z" stroke="#42505C" stroke-width="3" stroke-linecap="round" stroke-linejoin="round"/>
<path d="M62.6976 76.5811C64.1605 76.5811 65.3464 75.403 65.3464 73.9498C65.3464 72.4966 64.1605 71.3186 62.6976 71.3186C61.2347 71.3186 60.0488 72.4966 60.0488 73.9498C60.0488 75.403 61.2347 76.5811 62.6976 76.5811Z" fill="#42505C"/>
<path d="M32.311 49.9417H43.9533C44.3142 49.9417 44.6676 49.8512 44.9838 49.6793L49.5038 47.2181C49.82 47.0463 50.1753 46.9557 50.5343 46.9557H61.786C62.3255 46.9557 62.8463 47.1571 63.2425 47.5211L71.1107 54.7459C71.9868 55.5515 72.0333 56.9115 71.2149 57.7744L59.3195 70.2894C58.7039 70.9379 57.7459 71.1357 56.92 70.7883L52.8427 69.0662C52.599 68.9627 52.3386 68.9054 52.0726 68.898L34.2269 68.3215C33.7265 68.3049 33.2485 68.1164 32.8727 67.7856L20.8491 59.5169L8.7231 46.5178C7.92698 45.8156 7.76701 44.6423 8.34922 43.7572C9.71081 41.6877 12.6274 38.9124 17.0117 43.2694C22.9435 49.162 31.2712 49.877 32.1659 49.938C32.2142 49.9417 32.2626 49.9436 32.311 49.9436V49.9417Z" stroke="#42505C" stroke-width="3" stroke-miterlimit="10"/>
<path d="M49.039 58.4452H34.5898C32.1047 58.4452 30.0884 56.4441 30.0884 53.9736C30.0884 51.4477 32.1921 49.4225 34.7349 49.5038L44.6883 49.8216" stroke="#42505C" stroke-width="3" stroke-miterlimit="10"/>
<path d="M36.2583 44.4041C35.7449 44.2655 35.2631 44.0585 34.8149 43.7851C34.3666 43.5116 33.9462 43.1679 33.5537 42.754L34.7739 41.285C35.2018 41.7987 35.6742 42.183 36.195 42.4399C36.714 42.6967 37.2795 42.8242 37.8914 42.8242C38.7341 42.8242 39.3646 42.6598 39.7794 42.3327C40.1942 42.0057 40.4026 41.5086 40.4026 40.8416V40.8323C40.4026 40.4073 40.3021 40.071 40.0994 39.8234C39.8966 39.5758 39.6362 39.3892 39.3163 39.2654C38.9963 39.1416 38.5853 39.0326 38.0868 38.9384C38.0682 38.9328 38.0533 38.9291 38.0384 38.9291C38.0235 38.9291 38.0068 38.9254 37.99 38.9199C37.9603 38.9143 37.9286 38.9088 37.897 38.9014C37.8635 38.8959 37.8338 38.8903 37.804 38.8829C37.0079 38.7351 36.3643 38.5706 35.8714 38.3877C35.3785 38.2048 34.9562 37.8722 34.6065 37.3918C34.2568 36.9113 34.0801 36.2277 34.0801 35.3426V35.3334C34.0801 34.4723 34.2382 33.7572 34.5526 33.1881C34.8669 32.619 35.3375 32.1921 35.9644 31.9057C36.5912 31.6193 37.3762 31.4771 38.3211 31.4771C38.7359 31.4771 39.1489 31.5195 39.5544 31.6045C39.9617 31.6895 40.3635 31.8207 40.7616 31.9944C41.1596 32.1681 41.554 32.3862 41.9464 32.6448L40.8509 34.1397C40.4119 33.844 39.9822 33.626 39.5637 33.48C39.1452 33.3359 38.7303 33.2638 38.3211 33.2638C37.538 33.2638 36.9484 33.4246 36.5578 33.7461C36.1653 34.0676 35.97 34.5499 35.97 35.1929V35.2022C35.97 35.6438 36.0834 35.9912 36.3085 36.2425C36.5336 36.4938 36.8182 36.6767 37.1586 36.7949C37.499 36.9132 37.9677 37.037 38.5611 37.1663C38.5853 37.1719 38.6076 37.1774 38.6318 37.1848C38.6559 37.1904 38.682 37.1959 38.7117 37.2033C38.7415 37.2088 38.7694 37.2144 38.7955 37.2218C38.8215 37.2273 38.8494 37.2329 38.881 37.2403C39.5823 37.3936 40.1682 37.5802 40.6407 37.802C41.1131 38.0237 41.5056 38.3785 41.82 38.8681C42.1343 39.3578 42.2924 40.0248 42.2924 40.8674V40.8859C42.2924 41.7174 42.1287 42.4103 41.8032 42.961C41.4758 43.5134 40.9885 43.9255 40.3375 44.2008C39.6864 44.4743 38.8717 44.6129 37.8914 44.6129C37.3148 44.6129 36.7698 44.5426 36.2564 44.4041H36.2583ZM37.153 30.0469H38.9703V32.0646H37.153V30.0469ZM37.153 43.9126H38.9703V46.0449H37.153V43.9126Z" fill="#42505C"/>
</svg>
