<svg width="18" height="18" viewBox="0 0 18 18" fill="none" xmlns="http://www.w3.org/2000/svg">
<path d="M7.52197 14.8923V16.6607C4.38279 16.0673 1.93462 13.6222 1.33858 10.48H3.10986C3.6483 12.64 5.36191 14.3536 7.52177 14.8922L7.52197 14.8923Z" fill="#FCA909"/>
<path d="M10.477 3.11001V1.33887C13.6191 1.93209 16.0671 4.38009 16.6604 7.52226H14.8891C14.3507 5.35931 12.64 3.64869 10.4772 3.11001H10.477Z" fill="#FCA909"/>
<path d="M14.8893 10.4801H16.6604C16.0643 13.6222 13.6163 16.0674 10.477 16.6607V14.8895C12.637 14.3509 14.3506 12.6402 14.8893 10.4803V10.4801Z" fill="#FCA909"/>
<path d="M3.10986 7.52226H1.33858C1.93191 4.38016 4.37994 1.93219 7.52197 1.33887V3.10723C5.35902 3.64567 3.6484 5.35928 3.10973 7.52219L3.10986 7.52226Z" fill="#FCA909"/>
<path d="M13.8815 8.99979C13.8815 8.50151 14.2847 8.0983 14.783 8.0983H17.0985C17.5968 8.0983 18 8.50151 18 8.99979C18 9.49807 17.5968 9.90406 17.0985 9.90406H14.783C14.2847 9.90406 13.8815 9.49807 13.8815 8.99979Z" fill="#FCA909"/>
<path d="M0.90136 8.0983H3.21692C3.7152 8.0983 4.11841 8.50151 4.11841 8.99979C4.11841 9.49807 3.7152 9.90406 3.21692 9.90406H0.90136C0.403077 9.90406 -0.000130174 9.49794 -0.000130174 8.99979C-0.000130174 8.50151 0.403077 8.0983 0.90136 8.0983V8.0983Z" fill="#FCA909"/>
<path d="M8.99963 4.12119C8.50135 4.12119 8.09814 3.71506 8.09814 3.21691V0.904275C8.09814 0.403209 8.50135 0 8.99963 0C9.49791 0 9.90112 0.403209 9.90112 0.904275V3.21691C9.90112 3.71519 9.49791 4.12119 8.99963 4.12119Z" fill="#FCA909"/>
<path d="M8.99963 13.8815C9.49791 13.8815 9.90112 14.2847 9.90112 14.783V17.0985C9.90112 17.5968 9.49791 18 8.99963 18C8.50135 18 8.09814 17.5968 8.09814 17.0985V14.783C8.09814 14.2847 8.50135 13.8815 8.99963 13.8815V13.8815Z" fill="#FCA909"/>
<path d="M6.31455 9.0005C6.31455 10.483 7.51633 11.6848 8.99883 11.6848C10.4813 11.6848 11.6831 10.483 11.6831 9.0005C11.6831 7.51801 10.4813 6.31622 8.99883 6.31622C7.51633 6.31622 6.31455 7.51801 6.31455 9.0005Z" fill="#FCA909"/>
</svg>
