<svg width="30" height="30" fill="none" xmlns="http://www.w3.org/2000/svg"><circle cx="15" cy="15" r="14.5" fill="#fff" stroke="#8A8A8A"/><path fill-rule="evenodd" clip-rule="evenodd" d="M23.755 12.25 15.005 7l-8.75 5.25 8.75 5.25 8.75-5.25ZM6.502 22.984l7.62-5.072L6 13.178l.502 9.806Zm9.376-5.072 7.62 5.072.502-9.806-8.122 4.734Zm-8.703 5.124 7.835-4.933 7.313 5.258-15.148-.325Z" fill="#8A8A8A"/><path d="M20.45 15.347c0 .402-.05.8-.147 1.194-.093.389-.237.742-.431 1.06-.195.313-.44.565-.737.755-.292.186-.639.28-1.04.28-.318 0-.6-.077-.845-.23a1.24 1.24 0 0 1-.508-.59h-.101c-.178.216-.41.407-.699.572-.287.165-.636.247-1.047.247-.774 0-1.371-.23-1.79-.692-.419-.465-.628-1.075-.628-1.828 0-.584.124-1.098.374-1.542.25-.449.605-.8 1.066-1.054.462-.254 1.005-.38 1.632-.38.41 0 .831.037 1.263.113.436.072.776.15 1.022.235l-.127 2.666a5.694 5.694 0 0 0-.019.267v.171c0 .36.049.6.146.718.102.114.214.171.336.171.195 0 .358-.097.49-.292.13-.195.23-.455.297-.78a5.28 5.28 0 0 0 .102-1.074c0-.723-.148-1.339-.444-1.847a2.914 2.914 0 0 0-1.206-1.168c-.508-.27-1.086-.406-1.733-.406-.681 0-1.282.108-1.803.324-.52.216-.958.518-1.314.908-.351.389-.618.848-.8 1.377a5.409 5.409 0 0 0-.266 1.733c0 .779.14 1.439.419 1.98.279.542.69.953 1.231 1.232.546.28 1.212.419 2 .419.503 0 1.026-.055 1.567-.165a10.321 10.321 0 0 0 1.498-.426v1.225a7.262 7.262 0 0 1-1.39.413 8.02 8.02 0 0 1-1.625.159c-1.075 0-1.993-.19-2.755-.572a4.043 4.043 0 0 1-1.752-1.643c-.402-.72-.602-1.581-.602-2.584 0-.787.129-1.517.387-2.19a5.247 5.247 0 0 1 1.123-1.771 5.104 5.104 0 0 1 1.758-1.187c.69-.284 1.46-.425 2.311-.425.927 0 1.75.188 2.47.565.723.372 1.29.903 1.7 1.593.411.69.616 1.513.616 2.47Zm-6.5.794c0 .474.097.816.291 1.028.2.207.466.311.8.311.436 0 .743-.159.92-.476.178-.318.282-.732.312-1.244l.082-1.403a2.328 2.328 0 0 0-.33-.044 3.899 3.899 0 0 0-.4-.02c-.41 0-.738.091-.984.273a1.512 1.512 0 0 0-.533.692 2.47 2.47 0 0 0-.159.883Z" fill="#fff"/></svg>