<svg width="200" height="200" viewBox="0 0 200 200" fill="none" xmlns="http://www.w3.org/2000/svg">
<circle cx="100" cy="100" r="99.5" fill="white" stroke="#C4C4C4"/>
<path d="M3 100.5C3 86.8278 5.90529 73.3116 11.5234 60.847C17.1415 48.3823 25.3441 37.2538 35.5878 28.1987L99.5 100.5L3 100.5Z" fill="#FE8B8B"/>
<path d="M35.19 28.5522C54.2718 11.4962 79.3475 2.71889 104.901 4.15125C130.454 5.58361 154.392 17.1083 171.448 36.19L99.5 100.5L35.19 28.5522Z" fill="#FCA909"/>
<path d="M171.598 36.3585C187.189 53.8838 195.863 76.488 195.998 99.9445L99.5 100.5L171.598 36.3585Z" fill="#0D6FAD"/>
<circle cx="100" cy="100" r="32" fill="#FFFEFE"/>
<circle cx="100" cy="100" r="42" fill="#FFFEFE" fill-opacity="0.4"/>
<path d="M99.5 96.5V30L91 83L99.5 96.5Z" fill="black"/>
<path d="M99.5 96.5V30L107.5 83L99.5 96.5Z" fill="#6C6C6C"/>
<path d="M100 86C102.209 86 104 84.2091 104 82C104 79.7909 102.209 78 100 78C97.7909 78 96 79.7909 96 82C96 84.2091 97.7909 86 100 86Z" fill="white" fill-opacity="0.7"/>
<path d="M26.0114 130V118.364H33.8523V120.392H28.4716V123.165H33.4489V125.193H28.4716V127.972H33.875V130H26.0114ZM42.1207 121.71C42.0753 121.252 41.8802 120.896 41.5355 120.642C41.1908 120.388 40.723 120.261 40.1321 120.261C39.7306 120.261 39.3916 120.318 39.1151 120.432C38.8385 120.542 38.6264 120.695 38.4787 120.892C38.3348 121.089 38.2628 121.312 38.2628 121.562C38.2552 121.771 38.2988 121.953 38.3935 122.108C38.492 122.263 38.6264 122.398 38.7969 122.511C38.9673 122.621 39.1643 122.718 39.3878 122.801C39.6113 122.881 39.8499 122.949 40.1037 123.006L41.1491 123.256C41.6567 123.369 42.1226 123.521 42.5469 123.71C42.9711 123.9 43.3385 124.133 43.6491 124.409C43.9598 124.686 44.2003 125.011 44.3707 125.386C44.545 125.761 44.634 126.191 44.6378 126.676C44.634 127.388 44.4522 128.006 44.0923 128.528C43.7363 129.047 43.2211 129.451 42.5469 129.739C41.8764 130.023 41.0677 130.165 40.1207 130.165C39.1813 130.165 38.3632 130.021 37.6662 129.733C36.973 129.445 36.4313 129.019 36.0412 128.455C35.6548 127.886 35.4522 127.184 35.4332 126.347H37.8139C37.8404 126.737 37.9522 127.062 38.1491 127.324C38.3499 127.581 38.617 127.777 38.9503 127.909C39.2874 128.038 39.6681 128.102 40.0923 128.102C40.509 128.102 40.8707 128.042 41.1776 127.92C41.4882 127.799 41.7287 127.631 41.8991 127.415C42.0696 127.199 42.1548 126.951 42.1548 126.67C42.1548 126.409 42.0772 126.189 41.9219 126.011C41.7704 125.833 41.5469 125.682 41.2514 125.557C40.9598 125.432 40.6018 125.318 40.1776 125.216L38.9105 124.898C37.9295 124.659 37.1548 124.286 36.5866 123.778C36.0185 123.271 35.7363 122.587 35.7401 121.727C35.7363 121.023 35.9238 120.407 36.3026 119.881C36.6851 119.354 37.2098 118.943 37.8764 118.648C38.5431 118.352 39.3007 118.205 40.1491 118.205C41.0128 118.205 41.7666 118.352 42.4105 118.648C43.0582 118.943 43.562 119.354 43.9219 119.881C44.2817 120.407 44.4673 121.017 44.4787 121.71H42.1207ZM45.8494 120.392V118.364H55.4062V120.392H51.8438V130H49.4119V120.392H45.8494ZM59.4403 118.364V130H56.9801V118.364H59.4403ZM61.4645 118.364H64.4986L67.7031 126.182H67.8395L71.044 118.364H74.0781V130H71.6918V122.426H71.5952L68.5838 129.943H66.9588L63.9474 122.398H63.8509V130H61.4645V118.364ZM78.1108 130H75.4744L79.4915 118.364H82.6619L86.6733 130H84.0369L81.1222 121.023H81.0312L78.1108 130ZM77.946 125.426H84.1733V127.347H77.946V125.426ZM86.2088 120.392V118.364H95.7656V120.392H92.2031V130H89.7713V120.392H86.2088ZM97.3395 130V118.364H105.18V120.392H99.7997V123.165H104.777V125.193H99.7997V127.972H105.203V130H97.3395ZM111.261 130H107.136V118.364H111.295C112.466 118.364 113.473 118.597 114.318 119.062C115.163 119.525 115.813 120.189 116.267 121.057C116.725 121.924 116.955 122.962 116.955 124.17C116.955 125.383 116.725 126.424 116.267 127.295C115.813 128.167 115.159 128.835 114.307 129.301C113.458 129.767 112.443 130 111.261 130ZM109.597 127.892H111.159C111.886 127.892 112.498 127.763 112.994 127.506C113.494 127.244 113.869 126.841 114.119 126.295C114.373 125.746 114.5 125.038 114.5 124.17C114.5 123.311 114.373 122.608 114.119 122.062C113.869 121.517 113.496 121.116 113 120.858C112.504 120.6 111.892 120.472 111.165 120.472H109.597V127.892ZM124.582 118.364L127.395 127.205H127.503L130.321 118.364H133.048L129.037 130H125.866L121.849 118.364H124.582ZM134.908 130H132.271L136.288 118.364H139.459L143.47 130H140.834L137.919 121.023H137.828L134.908 130ZM134.743 125.426H140.97V127.347H134.743V125.426ZM144.871 130V118.364H147.331V127.972H152.32V130H144.871ZM161.136 118.364H163.597V125.92C163.597 126.769 163.394 127.511 162.989 128.148C162.587 128.784 162.025 129.28 161.301 129.636C160.578 129.989 159.735 130.165 158.773 130.165C157.807 130.165 156.962 129.989 156.239 129.636C155.515 129.28 154.953 128.784 154.551 128.148C154.15 127.511 153.949 126.769 153.949 125.92V118.364H156.409V125.71C156.409 126.153 156.506 126.547 156.699 126.892C156.896 127.237 157.172 127.508 157.528 127.705C157.884 127.902 158.299 128 158.773 128C159.25 128 159.665 127.902 160.017 127.705C160.373 127.508 160.648 127.237 160.841 126.892C161.038 126.547 161.136 126.153 161.136 125.71V118.364ZM165.621 130V118.364H173.462V120.392H168.081V123.165H173.058V125.193H168.081V127.972H173.484V130H165.621Z" fill="#3B3B3B"/>
<path d="M52.7784 144.636C52.7784 145.588 52.598 146.398 52.2372 147.065C51.8793 147.733 51.3906 148.243 50.7713 148.595C50.1548 148.945 49.4616 149.119 48.6918 149.119C47.9162 149.119 47.2202 148.943 46.6037 148.591C45.9872 148.239 45.5 147.729 45.142 147.061C44.7841 146.393 44.6051 145.585 44.6051 144.636C44.6051 143.685 44.7841 142.875 45.142 142.207C45.5 141.54 45.9872 141.031 46.6037 140.682C47.2202 140.33 47.9162 140.153 48.6918 140.153C49.4616 140.153 50.1548 140.33 50.7713 140.682C51.3906 141.031 51.8793 141.54 52.2372 142.207C52.598 142.875 52.7784 143.685 52.7784 144.636ZM50.9077 144.636C50.9077 144.02 50.8153 143.5 50.6307 143.077C50.4489 142.653 50.1918 142.332 49.8594 142.114C49.527 141.895 49.1378 141.786 48.6918 141.786C48.2457 141.786 47.8565 141.895 47.5241 142.114C47.1918 142.332 46.9332 142.653 46.7486 143.077C46.5668 143.5 46.4759 144.02 46.4759 144.636C46.4759 145.253 46.5668 145.773 46.7486 146.196C46.9332 146.619 47.1918 146.94 47.5241 147.159C47.8565 147.378 48.2457 147.487 48.6918 147.487C49.1378 147.487 49.527 147.378 49.8594 147.159C50.1918 146.94 50.4489 146.619 50.6307 146.196C50.8153 145.773 50.9077 145.253 50.9077 144.636ZM54.1452 149V140.273H59.9237V141.794H55.9904V143.874H59.5401V145.395H55.9904V149H54.1452ZM63.4308 140.273H65.4975L67.4876 144.031H67.5728L69.5629 140.273H71.6296L68.4464 145.915V149H66.614V145.915L63.4308 140.273ZM80.13 144.636C80.13 145.588 79.9496 146.398 79.5888 147.065C79.2308 147.733 78.7422 148.243 78.1229 148.595C77.5064 148.945 76.8132 149.119 76.0433 149.119C75.2678 149.119 74.5717 148.943 73.9553 148.591C73.3388 148.239 72.8516 147.729 72.4936 147.061C72.1357 146.393 71.9567 145.585 71.9567 144.636C71.9567 143.685 72.1357 142.875 72.4936 142.207C72.8516 141.54 73.3388 141.031 73.9553 140.682C74.5717 140.33 75.2678 140.153 76.0433 140.153C76.8132 140.153 77.5064 140.33 78.1229 140.682C78.7422 141.031 79.2308 141.54 79.5888 142.207C79.9496 142.875 80.13 143.685 80.13 144.636ZM78.2592 144.636C78.2592 144.02 78.1669 143.5 77.9822 143.077C77.8004 142.653 77.5433 142.332 77.2109 142.114C76.8786 141.895 76.4893 141.786 76.0433 141.786C75.5973 141.786 75.2081 141.895 74.8757 142.114C74.5433 142.332 74.2848 142.653 74.1001 143.077C73.9183 143.5 73.8274 144.02 73.8274 144.636C73.8274 145.253 73.9183 145.773 74.1001 146.196C74.2848 146.619 74.5433 146.94 74.8757 147.159C75.2081 147.378 75.5973 147.487 76.0433 147.487C76.4893 147.487 76.8786 147.378 77.2109 147.159C77.5433 146.94 77.8004 146.619 77.9822 146.196C78.1669 145.773 78.2592 145.253 78.2592 144.636ZM86.8874 140.273H88.7326V145.94C88.7326 146.577 88.5806 147.134 88.2766 147.611C87.9755 148.088 87.5536 148.46 87.011 148.727C86.4684 148.991 85.8363 149.124 85.1147 149.124C84.3903 149.124 83.7567 148.991 83.2141 148.727C82.6715 148.46 82.2496 148.088 81.9485 147.611C81.6474 147.134 81.4968 146.577 81.4968 145.94V140.273H83.342V145.783C83.342 146.115 83.4144 146.411 83.5593 146.669C83.707 146.928 83.9144 147.131 84.1815 147.278C84.4485 147.426 84.7596 147.5 85.1147 147.5C85.4727 147.5 85.7837 147.426 86.0479 147.278C86.315 147.131 86.521 146.928 86.6658 146.669C86.8136 146.411 86.8874 146.115 86.8874 145.783V140.273ZM90.2507 149V140.273H93.6939C94.353 140.273 94.9155 140.391 95.3814 140.626C95.8501 140.859 96.2067 141.19 96.451 141.619C96.6982 142.045 96.8217 142.547 96.8217 143.124C96.8217 143.703 96.6967 144.202 96.4467 144.619C96.1967 145.034 95.8345 145.352 95.3601 145.574C94.8885 145.795 94.3175 145.906 93.647 145.906H91.3416V144.423H93.3487C93.701 144.423 93.9936 144.375 94.2266 144.278C94.4595 144.182 94.6328 144.037 94.7464 143.844C94.8629 143.651 94.9212 143.411 94.9212 143.124C94.9212 142.834 94.8629 142.589 94.7464 142.391C94.6328 142.192 94.4581 142.041 94.2223 141.939C93.9893 141.834 93.6953 141.781 93.3402 141.781H92.0959V149H90.2507ZM94.9638 145.028L97.1328 149H95.0959L92.9737 145.028H94.9638ZM102.48 140.273L104.589 146.903H104.67L106.784 140.273H108.829L105.821 149H103.443L100.43 140.273H102.48ZM109.88 149V140.273H115.76V141.794H111.725V143.874H115.458V145.395H111.725V147.479H115.777V149H109.88ZM117.227 149V140.273H119.072V143.874H122.818V140.273H124.659V149H122.818V145.395H119.072V149H117.227ZM128.026 140.273V149H126.18V140.273H128.026ZM137.244 143.328H135.377C135.343 143.087 135.274 142.872 135.169 142.685C135.064 142.494 134.929 142.332 134.764 142.199C134.599 142.065 134.409 141.963 134.193 141.892C133.98 141.821 133.748 141.786 133.498 141.786C133.047 141.786 132.653 141.898 132.318 142.122C131.983 142.344 131.723 142.668 131.538 143.094C131.353 143.517 131.261 144.031 131.261 144.636C131.261 145.259 131.353 145.781 131.538 146.205C131.725 146.628 131.987 146.947 132.322 147.163C132.657 147.379 133.045 147.487 133.485 147.487C133.733 147.487 133.961 147.455 134.172 147.389C134.385 147.324 134.574 147.229 134.738 147.104C134.903 146.976 135.039 146.821 135.147 146.639C135.258 146.457 135.335 146.25 135.377 146.017L137.244 146.026C137.196 146.426 137.075 146.812 136.882 147.185C136.691 147.554 136.434 147.885 136.11 148.178C135.789 148.467 135.406 148.697 134.96 148.868C134.517 149.036 134.015 149.119 133.456 149.119C132.677 149.119 131.981 148.943 131.368 148.591C130.757 148.239 130.274 147.729 129.919 147.061C129.566 146.393 129.39 145.585 129.39 144.636C129.39 143.685 129.569 142.875 129.927 142.207C130.285 141.54 130.771 141.031 131.385 140.682C131.998 140.33 132.689 140.153 133.456 140.153C133.961 140.153 134.43 140.224 134.862 140.366C135.297 140.509 135.681 140.716 136.017 140.989C136.352 141.259 136.625 141.589 136.835 141.982C137.048 142.374 137.184 142.822 137.244 143.328ZM138.567 149V140.273H140.412V147.479H144.154V149H138.567ZM145.376 149V140.273H151.256V141.794H147.221V143.874H150.954V145.395H147.221V147.479H151.273V149H145.376Z" fill="#6E6E6E"/>
</svg>
