<svg width="70" height="70" viewBox="0 0 70 70" fill="none" xmlns="http://www.w3.org/2000/svg">
<mask id="path-1-outside-1_213_178" maskUnits="userSpaceOnUse" x="2" y="9" width="65" height="52" fill="black">
<rect fill="white" x="2" y="9" width="65" height="52"/>
<path d="M46.5115 60H43.0483C42.5324 59.9935 42.0394 59.7857 41.6745 59.421C41.3095 59.0562 41.1014 58.5633 41.0946 58.0474V53.7792H12.4231V58.0474C12.4163 58.5633 12.2082 59.0562 11.8432 59.421C11.4783 59.7857 10.9853 59.9935 10.4694 60H7.07037C6.55444 59.9935 6.06145 59.7857 5.69649 59.421C5.33154 59.0562 5.12347 58.5633 5.11664 58.0474V53.7506C3.92791 53.5513 3.00029 52.5103 3.00029 51.3136V42.0774C2.99088 41.1735 3.20906 40.2817 3.63473 39.4842C4.06041 38.6867 4.6799 38.0091 5.43616 37.5138C4.83778 37.3075 4.31863 36.9197 3.95099 36.4045C3.58336 35.8893 3.38554 35.2722 3.38508 34.6393C3.38079 34.2384 3.4566 33.8406 3.60805 33.4694C3.7595 33.0981 3.98356 32.7608 4.26708 32.4773C4.5506 32.1938 4.88787 31.9697 5.25912 31.8183C5.63037 31.6668 6.02812 31.591 6.42905 31.5953H8.78132L10.1945 26.861C10.9263 24.4698 13.408 22.563 15.9687 22.4245H37.3566C39.9173 22.5596 42.3956 24.4664 43.1308 26.8599C43.1422 26.8931 44.347 30.5245 44.6837 31.5312H47.0886C47.4896 31.5269 47.8873 31.6027 48.2586 31.7542C48.6298 31.9056 48.9671 32.1297 49.2506 32.4132C49.5341 32.6967 49.7582 33.034 49.9096 33.4052C50.0611 33.7765 50.1369 34.1742 50.1326 34.5752C50.1318 35.2074 49.9343 35.8237 49.5673 36.3386C49.2004 36.8535 48.6823 37.2414 48.085 37.4485C48.8532 37.9364 49.4851 38.6112 49.9217 39.4097C50.3583 40.2082 50.5853 41.1044 50.5815 42.0145V51.3136C50.5873 51.9094 50.3755 52.4868 49.9859 52.9376C49.5962 53.3883 49.0555 53.6815 48.4652 53.762V58.0474C48.4584 58.5633 48.2503 59.0562 47.8853 59.421C47.5204 59.7857 47.0274 59.9935 46.5115 60ZM11.8505 53.2066H41.6672V58.0474C41.6765 58.4107 41.825 58.7565 42.0821 59.0133C42.3391 59.2702 42.6851 59.4184 43.0483 59.4274H46.5115C46.8748 59.4187 47.2209 59.2705 47.478 59.0136C47.7351 58.7567 47.8836 58.4108 47.8926 58.0474V53.2066H48.1789C49.189 53.2066 50.0112 52.358 50.0112 51.3136V42.0145C50.0131 41.0812 49.7453 40.1673 49.24 39.3826C48.7347 38.598 48.0135 37.9761 47.1631 37.5916L46.1942 37.145L47.2558 37.0488C47.88 37.0009 48.4634 36.72 48.8902 36.262C49.317 35.804 49.5561 35.2023 49.56 34.5763C49.5634 34.2511 49.5018 33.9284 49.3789 33.6273C49.2561 33.3261 49.0743 33.0525 48.8444 32.8225C48.6145 32.5925 48.341 32.4106 48.0399 32.2876C47.7388 32.1646 47.4162 32.1029 47.0909 32.1061H44.5302H44.4776H44.2726L44.2061 31.9125C44.0195 31.3628 42.6028 27.0763 42.5845 27.0328C41.918 24.8569 39.6619 23.123 37.3326 22.9971H15.9927C13.7023 23.1242 11.3947 24.8935 10.7431 27.0271L9.20734 32.1679H6.42905C6.10353 32.1644 5.78058 32.2259 5.47915 32.3489C5.17772 32.4718 4.90387 32.6537 4.67368 32.8839C4.44348 33.1141 4.26158 33.388 4.13863 33.6894C4.01568 33.9908 3.95416 34.3138 3.95769 34.6393C3.96162 35.2655 4.20085 35.8673 4.6279 36.3254C5.05495 36.7834 5.63859 37.0641 6.263 37.1118L7.32346 37.208L6.35691 37.6558C5.51612 38.0462 4.80605 38.6712 4.31214 39.4556C3.81823 40.2401 3.56152 41.1505 3.5729 42.0774V51.3136C3.5729 52.3007 4.40089 53.1459 5.41898 53.2078L5.68925 53.2226V58.0474C5.69854 58.4107 5.84707 58.7565 6.10412 59.0133C6.36118 59.2702 6.7071 59.4184 7.07037 59.4274H10.4694C10.8326 59.4184 11.1786 59.2702 11.4356 59.0133C11.6927 58.7565 11.8412 58.4107 11.8505 58.0474V53.2066ZM34.2966 49.8672H19.0974V45.639H34.292L34.2966 49.8672ZM19.6746 49.2946H33.7194V46.2117H19.67L19.6746 49.2946ZM10.4694 46.8541C9.77111 46.8491 9.09612 46.6025 8.55912 46.1562C8.02212 45.7099 7.65624 45.0913 7.52367 44.4058C7.3911 43.7202 7.50002 43.0099 7.83191 42.3955C8.1638 41.7812 8.69818 41.3007 9.34424 41.0358C9.9903 40.7708 10.7082 40.7378 11.3758 40.9422C12.0435 41.1467 12.6198 41.576 13.0067 42.1573C13.3936 42.7386 13.5674 43.4359 13.4983 44.1307C13.4293 44.8256 13.1218 45.4751 12.6281 45.9689C12.3452 46.2526 12.0086 46.477 11.6379 46.629C11.2673 46.781 10.87 46.8575 10.4694 46.8541V46.8541ZM10.4694 41.3388C9.97798 41.337 9.49714 41.4811 9.08782 41.753C8.67849 42.0249 8.35914 42.4122 8.17026 42.8658C7.98138 43.3194 7.93149 43.8189 8.02691 44.301C8.12232 44.783 8.35876 45.2258 8.70622 45.5733C9.05368 45.9207 9.4965 46.1572 9.97853 46.2526C10.4606 46.348 10.9601 46.2981 11.4137 46.1092C11.8673 45.9204 12.2546 45.601 12.5265 45.1917C12.7984 44.7824 12.9425 44.3015 12.9407 43.8101C12.9443 43.4846 12.8827 43.1617 12.7598 42.8602C12.6368 42.5588 12.4549 42.285 12.2247 42.0548C11.9945 41.8246 11.7207 41.6427 11.4193 41.5197C11.1178 41.3968 10.7949 41.3353 10.4694 41.3388V41.3388ZM42.9842 46.853C42.1873 46.8375 41.4282 46.5101 40.8701 45.941C40.3119 45.3719 39.9993 44.6067 39.9993 43.8096C39.9993 43.0125 40.3119 42.2472 40.8701 41.6781C41.4282 41.1091 42.1873 40.7816 42.9842 40.7662C43.7912 40.7671 44.565 41.0881 45.1356 41.6587C45.7063 42.2294 46.0273 43.0031 46.0282 43.8101C46.0325 44.211 45.9567 44.6087 45.8052 44.9799C45.6537 45.3511 45.4297 45.6883 45.1461 45.9717C44.8626 46.2552 44.5253 46.4791 44.1541 46.6304C43.7828 46.7818 43.3851 46.8574 42.9842 46.853ZM42.9842 41.3388C42.4954 41.3388 42.0176 41.4837 41.6112 41.7553C41.2048 42.0268 40.888 42.4128 40.701 42.8644C40.5139 43.316 40.465 43.8129 40.5603 44.2923C40.6557 44.7717 40.8911 45.212 41.2367 45.5577C41.5823 45.9033 42.0227 46.1387 42.5021 46.234C42.9815 46.3294 43.4784 46.2804 43.93 46.0934C44.3815 45.9063 44.7675 45.5896 45.0391 45.1832C45.3106 44.7767 45.4556 44.2989 45.4556 43.8101C45.447 43.1574 45.1838 42.5338 44.7222 42.0721C44.2606 41.6105 43.637 41.3474 42.9842 41.3388V41.3388ZM43.7481 35.118H9.64252L11.9329 27.2492C12.4139 25.5314 14.4306 24.0278 16.2481 24.0278H37.2123C39.063 24.0278 41.0396 25.5039 41.5286 27.2504L43.7481 35.118ZM10.4018 34.5454H42.9911L40.9778 27.4107C40.5586 25.9151 38.8019 24.605 37.2123 24.605H16.2412C14.6826 24.605 12.888 25.9414 12.4769 27.4096L10.4018 34.5454ZM53.2453 28.0635L49.4524 27.9352C48.9943 27.9352 48.3804 27.5779 48.1262 27.1553L47.494 26.1441L46.1381 24.3324C45.8918 23.8649 45.8364 23.3202 45.9835 22.8127L47.3326 19.0862C47.4837 18.6281 47.9052 18.0772 48.2831 17.8505L59.694 10.3471C60.483 9.82027 61.1896 9.89586 61.6282 10.5555L66.4381 18.0635C66.5488 18.2303 66.6247 18.4176 66.6613 18.6144C66.6979 18.8112 66.6944 19.0133 66.6511 19.2087C66.6135 19.3952 66.539 19.5723 66.432 19.7296C66.3251 19.8869 66.1877 20.0213 66.0281 20.1249L54.7478 27.6249C54.2955 27.9034 53.7764 28.0549 53.2453 28.0635V28.0635ZM46.6214 24.0266L47.9727 25.8292L48.6152 26.8599C48.7664 27.113 49.1935 27.3661 49.4627 27.3661L53.2556 27.4955C53.6714 27.4843 54.0773 27.3659 54.434 27.1519L65.7212 19.6485C65.8182 19.5865 65.9018 19.5057 65.9671 19.4109C66.0324 19.3161 66.0781 19.2092 66.1014 19.0965C66.1286 18.9741 66.1308 18.8475 66.1078 18.7243C66.0847 18.6011 66.037 18.4839 65.9675 18.3796L61.1576 10.8716C61.0579 10.7227 60.7865 10.3161 60.0181 10.8269L48.5797 18.3384C48.3243 18.4918 47.9796 18.9465 47.8697 19.274L46.5206 23.0005C46.4303 23.3436 46.4661 23.7077 46.6214 24.0266V24.0266ZM59.1889 22.9707L58.6656 22.1851C58.1825 22.4235 57.6664 22.588 57.1344 22.673L56.8974 22.7073L56.3248 20.9895L56.6683 20.9471C57.2134 20.8906 57.7424 20.7288 58.2258 20.4707C58.4663 20.3196 58.6221 20.1524 58.645 20.0218C58.6492 19.9946 58.6471 19.9668 58.6387 19.9406C58.6304 19.9143 58.6161 19.8904 58.5969 19.8706L58.5751 19.8386C58.4812 19.6817 58.1686 19.6645 57.5318 19.7802C56.508 20.0195 55.3754 20.1237 54.7283 19.0724C54.2313 18.2204 54.3607 17.2561 55.0639 16.4488L54.5142 15.5578L55.8415 14.7401L56.2996 15.5269C56.6961 15.3258 57.1209 15.1861 57.5593 15.1123L57.7964 15.0722L58.369 16.6858L58.0632 16.7625L57.9143 16.7958C57.4963 16.874 57.0954 17.0256 56.7302 17.2435C56.413 17.4199 56.2961 17.6077 56.3775 17.8047C56.492 17.9192 56.8355 17.8963 57.5421 17.7451C58.8328 17.4016 59.6791 17.6615 60.2849 18.5708C60.8575 19.4297 60.7098 20.465 59.9116 21.3193L60.5277 22.1416L59.1889 22.9707ZM58.8523 21.4339L59.3584 22.1931L59.6905 21.9893L59.1466 21.2644L59.3355 21.0892C60.0948 20.3848 60.2666 19.5843 59.8051 18.8926C59.3435 18.2009 58.7274 18.0291 57.6796 18.3051H57.667C56.8653 18.4758 56.232 18.572 55.9022 18.1334L55.8758 18.0898C55.6812 17.7016 55.7281 17.145 56.4416 16.7488C56.8048 16.5299 57.2007 16.3706 57.6143 16.277L57.4196 15.7296C57.0392 15.8218 56.674 15.9679 56.3351 16.1636L56.09 16.3022L55.648 15.544L55.3044 15.7525L55.7945 16.5312L55.6342 16.6904C54.9826 17.3432 54.8326 18.1047 55.2299 18.7816C55.5953 19.3736 56.2297 19.503 57.4184 19.2236H57.4333C58.0575 19.1091 58.7492 19.0312 59.0664 19.534C59.1322 19.6158 59.1799 19.7107 59.2064 19.8124C59.2328 19.9141 59.2374 20.0202 59.2199 20.1237C59.1683 20.4261 58.9313 20.7181 58.5327 20.9666L58.5201 20.9735C58.0753 21.2177 57.5925 21.3854 57.0921 21.4694L57.2913 22.0649C57.758 21.9621 58.2077 21.7932 58.6266 21.5633L58.8523 21.4339Z"/>
</mask>
<path d="M46.5115 60H43.0483C42.5324 59.9935 42.0394 59.7857 41.6745 59.421C41.3095 59.0562 41.1014 58.5633 41.0946 58.0474V53.7792H12.4231V58.0474C12.4163 58.5633 12.2082 59.0562 11.8432 59.421C11.4783 59.7857 10.9853 59.9935 10.4694 60H7.07037C6.55444 59.9935 6.06145 59.7857 5.69649 59.421C5.33154 59.0562 5.12347 58.5633 5.11664 58.0474V53.7506C3.92791 53.5513 3.00029 52.5103 3.00029 51.3136V42.0774C2.99088 41.1735 3.20906 40.2817 3.63473 39.4842C4.06041 38.6867 4.6799 38.0091 5.43616 37.5138C4.83778 37.3075 4.31863 36.9197 3.95099 36.4045C3.58336 35.8893 3.38554 35.2722 3.38508 34.6393C3.38079 34.2384 3.4566 33.8406 3.60805 33.4694C3.7595 33.0981 3.98356 32.7608 4.26708 32.4773C4.5506 32.1938 4.88787 31.9697 5.25912 31.8183C5.63037 31.6668 6.02812 31.591 6.42905 31.5953H8.78132L10.1945 26.861C10.9263 24.4698 13.408 22.563 15.9687 22.4245H37.3566C39.9173 22.5596 42.3956 24.4664 43.1308 26.8599C43.1422 26.8931 44.347 30.5245 44.6837 31.5312H47.0886C47.4896 31.5269 47.8873 31.6027 48.2586 31.7542C48.6298 31.9056 48.9671 32.1297 49.2506 32.4132C49.5341 32.6967 49.7582 33.034 49.9096 33.4052C50.0611 33.7765 50.1369 34.1742 50.1326 34.5752C50.1318 35.2074 49.9343 35.8237 49.5673 36.3386C49.2004 36.8535 48.6823 37.2414 48.085 37.4485C48.8532 37.9364 49.4851 38.6112 49.9217 39.4097C50.3583 40.2082 50.5853 41.1044 50.5815 42.0145V51.3136C50.5873 51.9094 50.3755 52.4868 49.9859 52.9376C49.5962 53.3883 49.0555 53.6815 48.4652 53.762V58.0474C48.4584 58.5633 48.2503 59.0562 47.8853 59.421C47.5204 59.7857 47.0274 59.9935 46.5115 60ZM11.8505 53.2066H41.6672V58.0474C41.6765 58.4107 41.825 58.7565 42.0821 59.0133C42.3391 59.2702 42.6851 59.4184 43.0483 59.4274H46.5115C46.8748 59.4187 47.2209 59.2705 47.478 59.0136C47.7351 58.7567 47.8836 58.4108 47.8926 58.0474V53.2066H48.1789C49.189 53.2066 50.0112 52.358 50.0112 51.3136V42.0145C50.0131 41.0812 49.7453 40.1673 49.24 39.3826C48.7347 38.598 48.0135 37.9761 47.1631 37.5916L46.1942 37.145L47.2558 37.0488C47.88 37.0009 48.4634 36.72 48.8902 36.262C49.317 35.804 49.5561 35.2023 49.56 34.5763C49.5634 34.2511 49.5018 33.9284 49.3789 33.6273C49.2561 33.3261 49.0743 33.0525 48.8444 32.8225C48.6145 32.5925 48.341 32.4106 48.0399 32.2876C47.7388 32.1646 47.4162 32.1029 47.0909 32.1061H44.5302H44.4776H44.2726L44.2061 31.9125C44.0195 31.3628 42.6028 27.0763 42.5845 27.0328C41.918 24.8569 39.6619 23.123 37.3326 22.9971H15.9927C13.7023 23.1242 11.3947 24.8935 10.7431 27.0271L9.20734 32.1679H6.42905C6.10353 32.1644 5.78058 32.2259 5.47915 32.3489C5.17772 32.4718 4.90387 32.6537 4.67368 32.8839C4.44348 33.1141 4.26158 33.388 4.13863 33.6894C4.01568 33.9908 3.95416 34.3138 3.95769 34.6393C3.96162 35.2655 4.20085 35.8673 4.6279 36.3254C5.05495 36.7834 5.63859 37.0641 6.263 37.1118L7.32346 37.208L6.35691 37.6558C5.51612 38.0462 4.80605 38.6712 4.31214 39.4556C3.81823 40.2401 3.56152 41.1505 3.5729 42.0774V51.3136C3.5729 52.3007 4.40089 53.1459 5.41898 53.2078L5.68925 53.2226V58.0474C5.69854 58.4107 5.84707 58.7565 6.10412 59.0133C6.36118 59.2702 6.7071 59.4184 7.07037 59.4274H10.4694C10.8326 59.4184 11.1786 59.2702 11.4356 59.0133C11.6927 58.7565 11.8412 58.4107 11.8505 58.0474V53.2066ZM34.2966 49.8672H19.0974V45.639H34.292L34.2966 49.8672ZM19.6746 49.2946H33.7194V46.2117H19.67L19.6746 49.2946ZM10.4694 46.8541C9.77111 46.8491 9.09612 46.6025 8.55912 46.1562C8.02212 45.7099 7.65624 45.0913 7.52367 44.4058C7.3911 43.7202 7.50002 43.0099 7.83191 42.3955C8.1638 41.7812 8.69818 41.3007 9.34424 41.0358C9.9903 40.7708 10.7082 40.7378 11.3758 40.9422C12.0435 41.1467 12.6198 41.576 13.0067 42.1573C13.3936 42.7386 13.5674 43.4359 13.4983 44.1307C13.4293 44.8256 13.1218 45.4751 12.6281 45.9689C12.3452 46.2526 12.0086 46.477 11.6379 46.629C11.2673 46.781 10.87 46.8575 10.4694 46.8541V46.8541ZM10.4694 41.3388C9.97798 41.337 9.49714 41.4811 9.08782 41.753C8.67849 42.0249 8.35914 42.4122 8.17026 42.8658C7.98138 43.3194 7.93149 43.8189 8.02691 44.301C8.12232 44.783 8.35876 45.2258 8.70622 45.5733C9.05368 45.9207 9.4965 46.1572 9.97853 46.2526C10.4606 46.348 10.9601 46.2981 11.4137 46.1092C11.8673 45.9204 12.2546 45.601 12.5265 45.1917C12.7984 44.7824 12.9425 44.3015 12.9407 43.8101C12.9443 43.4846 12.8827 43.1617 12.7598 42.8602C12.6368 42.5588 12.4549 42.285 12.2247 42.0548C11.9945 41.8246 11.7207 41.6427 11.4193 41.5197C11.1178 41.3968 10.7949 41.3353 10.4694 41.3388V41.3388ZM42.9842 46.853C42.1873 46.8375 41.4282 46.5101 40.8701 45.941C40.3119 45.3719 39.9993 44.6067 39.9993 43.8096C39.9993 43.0125 40.3119 42.2472 40.8701 41.6781C41.4282 41.1091 42.1873 40.7816 42.9842 40.7662C43.7912 40.7671 44.565 41.0881 45.1356 41.6587C45.7063 42.2294 46.0273 43.0031 46.0282 43.8101C46.0325 44.211 45.9567 44.6087 45.8052 44.9799C45.6537 45.3511 45.4297 45.6883 45.1461 45.9717C44.8626 46.2552 44.5253 46.4791 44.1541 46.6304C43.7828 46.7818 43.3851 46.8574 42.9842 46.853ZM42.9842 41.3388C42.4954 41.3388 42.0176 41.4837 41.6112 41.7553C41.2048 42.0268 40.888 42.4128 40.701 42.8644C40.5139 43.316 40.465 43.8129 40.5603 44.2923C40.6557 44.7717 40.8911 45.212 41.2367 45.5577C41.5823 45.9033 42.0227 46.1387 42.5021 46.234C42.9815 46.3294 43.4784 46.2804 43.93 46.0934C44.3815 45.9063 44.7675 45.5896 45.0391 45.1832C45.3106 44.7767 45.4556 44.2989 45.4556 43.8101C45.447 43.1574 45.1838 42.5338 44.7222 42.0721C44.2606 41.6105 43.637 41.3474 42.9842 41.3388V41.3388ZM43.7481 35.118H9.64252L11.9329 27.2492C12.4139 25.5314 14.4306 24.0278 16.2481 24.0278H37.2123C39.063 24.0278 41.0396 25.5039 41.5286 27.2504L43.7481 35.118ZM10.4018 34.5454H42.9911L40.9778 27.4107C40.5586 25.9151 38.8019 24.605 37.2123 24.605H16.2412C14.6826 24.605 12.888 25.9414 12.4769 27.4096L10.4018 34.5454ZM53.2453 28.0635L49.4524 27.9352C48.9943 27.9352 48.3804 27.5779 48.1262 27.1553L47.494 26.1441L46.1381 24.3324C45.8918 23.8649 45.8364 23.3202 45.9835 22.8127L47.3326 19.0862C47.4837 18.6281 47.9052 18.0772 48.2831 17.8505L59.694 10.3471C60.483 9.82027 61.1896 9.89586 61.6282 10.5555L66.4381 18.0635C66.5488 18.2303 66.6247 18.4176 66.6613 18.6144C66.6979 18.8112 66.6944 19.0133 66.6511 19.2087C66.6135 19.3952 66.539 19.5723 66.432 19.7296C66.3251 19.8869 66.1877 20.0213 66.0281 20.1249L54.7478 27.6249C54.2955 27.9034 53.7764 28.0549 53.2453 28.0635V28.0635ZM46.6214 24.0266L47.9727 25.8292L48.6152 26.8599C48.7664 27.113 49.1935 27.3661 49.4627 27.3661L53.2556 27.4955C53.6714 27.4843 54.0773 27.3659 54.434 27.1519L65.7212 19.6485C65.8182 19.5865 65.9018 19.5057 65.9671 19.4109C66.0324 19.3161 66.0781 19.2092 66.1014 19.0965C66.1286 18.9741 66.1308 18.8475 66.1078 18.7243C66.0847 18.6011 66.037 18.4839 65.9675 18.3796L61.1576 10.8716C61.0579 10.7227 60.7865 10.3161 60.0181 10.8269L48.5797 18.3384C48.3243 18.4918 47.9796 18.9465 47.8697 19.274L46.5206 23.0005C46.4303 23.3436 46.4661 23.7077 46.6214 24.0266V24.0266ZM59.1889 22.9707L58.6656 22.1851C58.1825 22.4235 57.6664 22.588 57.1344 22.673L56.8974 22.7073L56.3248 20.9895L56.6683 20.9471C57.2134 20.8906 57.7424 20.7288 58.2258 20.4707C58.4663 20.3196 58.6221 20.1524 58.645 20.0218C58.6492 19.9946 58.6471 19.9668 58.6387 19.9406C58.6304 19.9143 58.6161 19.8904 58.5969 19.8706L58.5751 19.8386C58.4812 19.6817 58.1686 19.6645 57.5318 19.7802C56.508 20.0195 55.3754 20.1237 54.7283 19.0724C54.2313 18.2204 54.3607 17.2561 55.0639 16.4488L54.5142 15.5578L55.8415 14.7401L56.2996 15.5269C56.6961 15.3258 57.1209 15.1861 57.5593 15.1123L57.7964 15.0722L58.369 16.6858L58.0632 16.7625L57.9143 16.7958C57.4963 16.874 57.0954 17.0256 56.7302 17.2435C56.413 17.4199 56.2961 17.6077 56.3775 17.8047C56.492 17.9192 56.8355 17.8963 57.5421 17.7451C58.8328 17.4016 59.6791 17.6615 60.2849 18.5708C60.8575 19.4297 60.7098 20.465 59.9116 21.3193L60.5277 22.1416L59.1889 22.9707ZM58.8523 21.4339L59.3584 22.1931L59.6905 21.9893L59.1466 21.2644L59.3355 21.0892C60.0948 20.3848 60.2666 19.5843 59.8051 18.8926C59.3435 18.2009 58.7274 18.0291 57.6796 18.3051H57.667C56.8653 18.4758 56.232 18.572 55.9022 18.1334L55.8758 18.0898C55.6812 17.7016 55.7281 17.145 56.4416 16.7488C56.8048 16.5299 57.2007 16.3706 57.6143 16.277L57.4196 15.7296C57.0392 15.8218 56.674 15.9679 56.3351 16.1636L56.09 16.3022L55.648 15.544L55.3044 15.7525L55.7945 16.5312L55.6342 16.6904C54.9826 17.3432 54.8326 18.1047 55.2299 18.7816C55.5953 19.3736 56.2297 19.503 57.4184 19.2236H57.4333C58.0575 19.1091 58.7492 19.0312 59.0664 19.534C59.1322 19.6158 59.1799 19.7107 59.2064 19.8124C59.2328 19.9141 59.2374 20.0202 59.2199 20.1237C59.1683 20.4261 58.9313 20.7181 58.5327 20.9666L58.5201 20.9735C58.0753 21.2177 57.5925 21.3854 57.0921 21.4694L57.2913 22.0649C57.758 21.9621 58.2077 21.7932 58.6266 21.5633L58.8523 21.4339Z" fill="#70AD4D"/>
<path d="M46.5115 60H43.0483C42.5324 59.9935 42.0394 59.7857 41.6745 59.421C41.3095 59.0562 41.1014 58.5633 41.0946 58.0474V53.7792H12.4231V58.0474C12.4163 58.5633 12.2082 59.0562 11.8432 59.421C11.4783 59.7857 10.9853 59.9935 10.4694 60H7.07037C6.55444 59.9935 6.06145 59.7857 5.69649 59.421C5.33154 59.0562 5.12347 58.5633 5.11664 58.0474V53.7506C3.92791 53.5513 3.00029 52.5103 3.00029 51.3136V42.0774C2.99088 41.1735 3.20906 40.2817 3.63473 39.4842C4.06041 38.6867 4.6799 38.0091 5.43616 37.5138C4.83778 37.3075 4.31863 36.9197 3.95099 36.4045C3.58336 35.8893 3.38554 35.2722 3.38508 34.6393C3.38079 34.2384 3.4566 33.8406 3.60805 33.4694C3.7595 33.0981 3.98356 32.7608 4.26708 32.4773C4.5506 32.1938 4.88787 31.9697 5.25912 31.8183C5.63037 31.6668 6.02812 31.591 6.42905 31.5953H8.78132L10.1945 26.861C10.9263 24.4698 13.408 22.563 15.9687 22.4245H37.3566C39.9173 22.5596 42.3956 24.4664 43.1308 26.8599C43.1422 26.8931 44.347 30.5245 44.6837 31.5312H47.0886C47.4896 31.5269 47.8873 31.6027 48.2586 31.7542C48.6298 31.9056 48.9671 32.1297 49.2506 32.4132C49.5341 32.6967 49.7582 33.034 49.9096 33.4052C50.0611 33.7765 50.1369 34.1742 50.1326 34.5752C50.1318 35.2074 49.9343 35.8237 49.5673 36.3386C49.2004 36.8535 48.6823 37.2414 48.085 37.4485C48.8532 37.9364 49.4851 38.6112 49.9217 39.4097C50.3583 40.2082 50.5853 41.1044 50.5815 42.0145V51.3136C50.5873 51.9094 50.3755 52.4868 49.9859 52.9376C49.5962 53.3883 49.0555 53.6815 48.4652 53.762V58.0474C48.4584 58.5633 48.2503 59.0562 47.8853 59.421C47.5204 59.7857 47.0274 59.9935 46.5115 60ZM11.8505 53.2066H41.6672V58.0474C41.6765 58.4107 41.825 58.7565 42.0821 59.0133C42.3391 59.2702 42.6851 59.4184 43.0483 59.4274H46.5115C46.8748 59.4187 47.2209 59.2705 47.478 59.0136C47.7351 58.7567 47.8836 58.4108 47.8926 58.0474V53.2066H48.1789C49.189 53.2066 50.0112 52.358 50.0112 51.3136V42.0145C50.0131 41.0812 49.7453 40.1673 49.24 39.3826C48.7347 38.598 48.0135 37.9761 47.1631 37.5916L46.1942 37.145L47.2558 37.0488C47.88 37.0009 48.4634 36.72 48.8902 36.262C49.317 35.804 49.5561 35.2023 49.56 34.5763C49.5634 34.2511 49.5018 33.9284 49.3789 33.6273C49.2561 33.3261 49.0743 33.0525 48.8444 32.8225C48.6145 32.5925 48.341 32.4106 48.0399 32.2876C47.7388 32.1646 47.4162 32.1029 47.0909 32.1061H44.5302H44.4776H44.2726L44.2061 31.9125C44.0195 31.3628 42.6028 27.0763 42.5845 27.0328C41.918 24.8569 39.6619 23.123 37.3326 22.9971H15.9927C13.7023 23.1242 11.3947 24.8935 10.7431 27.0271L9.20734 32.1679H6.42905C6.10353 32.1644 5.78058 32.2259 5.47915 32.3489C5.17772 32.4718 4.90387 32.6537 4.67368 32.8839C4.44348 33.1141 4.26158 33.388 4.13863 33.6894C4.01568 33.9908 3.95416 34.3138 3.95769 34.6393C3.96162 35.2655 4.20085 35.8673 4.6279 36.3254C5.05495 36.7834 5.63859 37.0641 6.263 37.1118L7.32346 37.208L6.35691 37.6558C5.51612 38.0462 4.80605 38.6712 4.31214 39.4556C3.81823 40.2401 3.56152 41.1505 3.5729 42.0774V51.3136C3.5729 52.3007 4.40089 53.1459 5.41898 53.2078L5.68925 53.2226V58.0474C5.69854 58.4107 5.84707 58.7565 6.10412 59.0133C6.36118 59.2702 6.7071 59.4184 7.07037 59.4274H10.4694C10.8326 59.4184 11.1786 59.2702 11.4356 59.0133C11.6927 58.7565 11.8412 58.4107 11.8505 58.0474V53.2066ZM34.2966 49.8672H19.0974V45.639H34.292L34.2966 49.8672ZM19.6746 49.2946H33.7194V46.2117H19.67L19.6746 49.2946ZM10.4694 46.8541C9.77111 46.8491 9.09612 46.6025 8.55912 46.1562C8.02212 45.7099 7.65624 45.0913 7.52367 44.4058C7.3911 43.7202 7.50002 43.0099 7.83191 42.3955C8.1638 41.7812 8.69818 41.3007 9.34424 41.0358C9.9903 40.7708 10.7082 40.7378 11.3758 40.9422C12.0435 41.1467 12.6198 41.576 13.0067 42.1573C13.3936 42.7386 13.5674 43.4359 13.4983 44.1307C13.4293 44.8256 13.1218 45.4751 12.6281 45.9689C12.3452 46.2526 12.0086 46.477 11.6379 46.629C11.2673 46.781 10.87 46.8575 10.4694 46.8541V46.8541ZM10.4694 41.3388C9.97798 41.337 9.49714 41.4811 9.08782 41.753C8.67849 42.0249 8.35914 42.4122 8.17026 42.8658C7.98138 43.3194 7.93149 43.8189 8.02691 44.301C8.12232 44.783 8.35876 45.2258 8.70622 45.5733C9.05368 45.9207 9.4965 46.1572 9.97853 46.2526C10.4606 46.348 10.9601 46.2981 11.4137 46.1092C11.8673 45.9204 12.2546 45.601 12.5265 45.1917C12.7984 44.7824 12.9425 44.3015 12.9407 43.8101C12.9443 43.4846 12.8827 43.1617 12.7598 42.8602C12.6368 42.5588 12.4549 42.285 12.2247 42.0548C11.9945 41.8246 11.7207 41.6427 11.4193 41.5197C11.1178 41.3968 10.7949 41.3353 10.4694 41.3388V41.3388ZM42.9842 46.853C42.1873 46.8375 41.4282 46.5101 40.8701 45.941C40.3119 45.3719 39.9993 44.6067 39.9993 43.8096C39.9993 43.0125 40.3119 42.2472 40.8701 41.6781C41.4282 41.1091 42.1873 40.7816 42.9842 40.7662C43.7912 40.7671 44.565 41.0881 45.1356 41.6587C45.7063 42.2294 46.0273 43.0031 46.0282 43.8101C46.0325 44.211 45.9567 44.6087 45.8052 44.9799C45.6537 45.3511 45.4297 45.6883 45.1461 45.9717C44.8626 46.2552 44.5253 46.4791 44.1541 46.6304C43.7828 46.7818 43.3851 46.8574 42.9842 46.853ZM42.9842 41.3388C42.4954 41.3388 42.0176 41.4837 41.6112 41.7553C41.2048 42.0268 40.888 42.4128 40.701 42.8644C40.5139 43.316 40.465 43.8129 40.5603 44.2923C40.6557 44.7717 40.8911 45.212 41.2367 45.5577C41.5823 45.9033 42.0227 46.1387 42.5021 46.234C42.9815 46.3294 43.4784 46.2804 43.93 46.0934C44.3815 45.9063 44.7675 45.5896 45.0391 45.1832C45.3106 44.7767 45.4556 44.2989 45.4556 43.8101C45.447 43.1574 45.1838 42.5338 44.7222 42.0721C44.2606 41.6105 43.637 41.3474 42.9842 41.3388V41.3388ZM43.7481 35.118H9.64252L11.9329 27.2492C12.4139 25.5314 14.4306 24.0278 16.2481 24.0278H37.2123C39.063 24.0278 41.0396 25.5039 41.5286 27.2504L43.7481 35.118ZM10.4018 34.5454H42.9911L40.9778 27.4107C40.5586 25.9151 38.8019 24.605 37.2123 24.605H16.2412C14.6826 24.605 12.888 25.9414 12.4769 27.4096L10.4018 34.5454ZM53.2453 28.0635L49.4524 27.9352C48.9943 27.9352 48.3804 27.5779 48.1262 27.1553L47.494 26.1441L46.1381 24.3324C45.8918 23.8649 45.8364 23.3202 45.9835 22.8127L47.3326 19.0862C47.4837 18.6281 47.9052 18.0772 48.2831 17.8505L59.694 10.3471C60.483 9.82027 61.1896 9.89586 61.6282 10.5555L66.4381 18.0635C66.5488 18.2303 66.6247 18.4176 66.6613 18.6144C66.6979 18.8112 66.6944 19.0133 66.6511 19.2087C66.6135 19.3952 66.539 19.5723 66.432 19.7296C66.3251 19.8869 66.1877 20.0213 66.0281 20.1249L54.7478 27.6249C54.2955 27.9034 53.7764 28.0549 53.2453 28.0635V28.0635ZM46.6214 24.0266L47.9727 25.8292L48.6152 26.8599C48.7664 27.113 49.1935 27.3661 49.4627 27.3661L53.2556 27.4955C53.6714 27.4843 54.0773 27.3659 54.434 27.1519L65.7212 19.6485C65.8182 19.5865 65.9018 19.5057 65.9671 19.4109C66.0324 19.3161 66.0781 19.2092 66.1014 19.0965C66.1286 18.9741 66.1308 18.8475 66.1078 18.7243C66.0847 18.6011 66.037 18.4839 65.9675 18.3796L61.1576 10.8716C61.0579 10.7227 60.7865 10.3161 60.0181 10.8269L48.5797 18.3384C48.3243 18.4918 47.9796 18.9465 47.8697 19.274L46.5206 23.0005C46.4303 23.3436 46.4661 23.7077 46.6214 24.0266V24.0266ZM59.1889 22.9707L58.6656 22.1851C58.1825 22.4235 57.6664 22.588 57.1344 22.673L56.8974 22.7073L56.3248 20.9895L56.6683 20.9471C57.2134 20.8906 57.7424 20.7288 58.2258 20.4707C58.4663 20.3196 58.6221 20.1524 58.645 20.0218C58.6492 19.9946 58.6471 19.9668 58.6387 19.9406C58.6304 19.9143 58.6161 19.8904 58.5969 19.8706L58.5751 19.8386C58.4812 19.6817 58.1686 19.6645 57.5318 19.7802C56.508 20.0195 55.3754 20.1237 54.7283 19.0724C54.2313 18.2204 54.3607 17.2561 55.0639 16.4488L54.5142 15.5578L55.8415 14.7401L56.2996 15.5269C56.6961 15.3258 57.1209 15.1861 57.5593 15.1123L57.7964 15.0722L58.369 16.6858L58.0632 16.7625L57.9143 16.7958C57.4963 16.874 57.0954 17.0256 56.7302 17.2435C56.413 17.4199 56.2961 17.6077 56.3775 17.8047C56.492 17.9192 56.8355 17.8963 57.5421 17.7451C58.8328 17.4016 59.6791 17.6615 60.2849 18.5708C60.8575 19.4297 60.7098 20.465 59.9116 21.3193L60.5277 22.1416L59.1889 22.9707ZM58.8523 21.4339L59.3584 22.1931L59.6905 21.9893L59.1466 21.2644L59.3355 21.0892C60.0948 20.3848 60.2666 19.5843 59.8051 18.8926C59.3435 18.2009 58.7274 18.0291 57.6796 18.3051H57.667C56.8653 18.4758 56.232 18.572 55.9022 18.1334L55.8758 18.0898C55.6812 17.7016 55.7281 17.145 56.4416 16.7488C56.8048 16.5299 57.2007 16.3706 57.6143 16.277L57.4196 15.7296C57.0392 15.8218 56.674 15.9679 56.3351 16.1636L56.09 16.3022L55.648 15.544L55.3044 15.7525L55.7945 16.5312L55.6342 16.6904C54.9826 17.3432 54.8326 18.1047 55.2299 18.7816C55.5953 19.3736 56.2297 19.503 57.4184 19.2236H57.4333C58.0575 19.1091 58.7492 19.0312 59.0664 19.534C59.1322 19.6158 59.1799 19.7107 59.2064 19.8124C59.2328 19.9141 59.2374 20.0202 59.2199 20.1237C59.1683 20.4261 58.9313 20.7181 58.5327 20.9666L58.5201 20.9735C58.0753 21.2177 57.5925 21.3854 57.0921 21.4694L57.2913 22.0649C57.758 21.9621 58.2077 21.7932 58.6266 21.5633L58.8523 21.4339Z" stroke="#70AD4D" stroke-width="0.6" mask="url(#path-1-outside-1_213_178)"/>
<path d="M42.7515 26.6551L42.8203 26.7878L42.9532 26.7194C43.9573 26.2026 44.7416 26.006 45.2994 26.0959L45.4314 26.1203C45.739 26.1884 46.0546 26.2136 46.3691 26.1952L46.3691 26.1952L46.371 26.1951C46.8 26.1645 47.2207 26.0609 47.6148 25.8886L47.7516 25.8288L47.6925 25.6917L47.5562 25.3757L47.4964 25.237L47.3581 25.2977C47.0318 25.4412 46.6833 25.5276 46.3277 25.5533C46.07 25.568 45.8114 25.5468 45.5595 25.4903L45.5595 25.4902L45.5542 25.4892L45.4077 25.4617L45.4077 25.4617L45.4042 25.4611C44.6747 25.3422 43.7458 25.5867 42.6578 26.1481L42.5242 26.217L42.5934 26.3504L42.7515 26.6551Z" fill="#70AD4D" stroke="#70AD4D" stroke-width="0.3"/>
<path d="M48.1062 24.2323C48.1925 24.1749 48.2904 24.1383 48.3924 24.1251L48.48 24.1252C48.6573 24.1254 48.8274 24.1957 48.9531 24.3208C49.0787 24.4457 49.1499 24.6151 49.1513 24.7922C49.1512 24.9251 49.1118 25.0549 49.038 25.1653C48.964 25.2759 48.859 25.362 48.7361 25.4129C48.6132 25.4638 48.478 25.477 48.3476 25.451C48.2171 25.425 48.0973 25.3609 48.0034 25.2668C47.9094 25.1726 47.8454 25.0528 47.8196 24.9223C47.7938 24.7918 47.8072 24.6566 47.8582 24.5338C47.9093 24.411 47.9956 24.3061 48.1062 24.2323ZM47.7488 25.8852C47.9654 26.0297 48.22 26.1067 48.4803 26.1064C48.8289 26.1061 49.163 25.9675 49.4095 25.721C49.6559 25.4746 49.7945 25.1404 49.7949 24.7919C49.7951 24.5315 49.7182 24.2769 49.5737 24.0604C49.4292 23.8438 49.2237 23.6749 48.9832 23.5752C48.7427 23.4754 48.478 23.4492 48.2227 23.5C47.9673 23.5507 47.7327 23.6761 47.5486 23.8602C47.3645 24.0443 47.2392 24.2788 47.1885 24.5342C47.1377 24.7896 47.1639 25.0542 47.2636 25.2947C47.3634 25.5352 47.5322 25.7407 47.7488 25.8852Z" fill="#70AD4D" stroke="#70AD4D" stroke-width="0.3"/>
</svg>
