<svg width="70" height="70" viewBox="0 0 70 70" fill="none" xmlns="http://www.w3.org/2000/svg">
<mask id="path-1-inside-1_6_2" fill="white">
<path d="M58.7607 60H11.3194C10.9699 59.9991 10.635 59.86 10.3878 59.613C10.1407 59.366 10.0012 59.0312 10 58.6818V31.1447C10 30.7279 10.1577 30.4424 10.5261 30.1926L16.9099 24.8231V15.8801C16.9099 15.1041 17.4521 14.5607 18.2293 14.5607H29.1593L34.2479 10.2872C34.4896 10.101 34.7861 10 35.0912 10C35.3963 10 35.6929 10.101 35.9345 10.2872L35.9472 10.2976L41.0231 14.5573H44.4032V22.5804C44.4032 23.041 44.6876 23.3242 45.147 23.3242H53.1644V24.8208L59.5504 30.1926C59.6432 30.2544 59.7286 30.3266 59.8049 30.4079L59.8371 30.4344C60.0039 30.6307 60.0903 30.8828 60.0789 31.1401V58.6818C60.0777 59.031 59.9384 59.3656 59.6914 59.6126C59.4445 59.8595 59.1099 59.9988 58.7607 60ZM18.2293 15.1364C17.7687 15.1364 17.4855 15.4219 17.4855 15.8801V25.0902L10.86 30.6623C10.6182 30.8235 10.5756 30.9455 10.5756 31.1447V58.6818C10.5759 58.879 10.6544 59.0679 10.7938 59.2074C10.9332 59.3468 11.1222 59.4252 11.3194 59.4255H58.7607C58.9577 59.4249 59.1465 59.3464 59.2859 59.207C59.4252 59.0677 59.5038 58.8789 59.5044 58.6818V31.1447C59.5044 30.9455 59.4618 30.8235 59.22 30.6623L58.8815 30.4321L58.9184 30.4044L52.5887 25.0902V23.9033H45.1423C44.3652 23.9033 43.823 23.361 43.823 22.5839V15.1364H40.809L35.5834 10.7431C35.4433 10.6328 35.2702 10.5728 35.0918 10.5728C34.9135 10.5728 34.7403 10.6328 34.6002 10.7431L29.3689 15.1364H18.2293ZM35.0377 50.1878L18.9718 36.6408V16.6238H42.3425V22.5839C42.3425 24.183 43.549 25.3895 45.1493 25.3895H51.1094V36.6408L35.0377 50.1878ZM19.5474 36.3726L35.0389 49.4348L50.5303 36.3726V25.9652H45.1458C44.7006 25.9696 44.2591 25.8852 43.8469 25.7168C43.4348 25.5485 43.0604 25.2995 42.7457 24.9846C42.4311 24.6697 42.1824 24.2952 42.0143 23.8829C41.8462 23.4707 41.7621 23.0291 41.7668 22.5839V17.1994H19.5474V36.3726ZM17.4855 35.3779L12.5247 31.1447L17.4867 26.9069L17.4855 35.3779ZM13.4123 31.1447L16.9099 34.1299V28.1595L13.4123 31.1447ZM38.5099 15.1421H31.5759L35.0435 12.2087L38.5099 15.1421ZM33.1473 14.5665H36.9315L35.0354 12.9628L33.1473 14.5665Z"/>
</mask>
<path d="M58.7607 60H11.3194C10.9699 59.9991 10.635 59.86 10.3878 59.613C10.1407 59.366 10.0012 59.0312 10 58.6818V31.1447C10 30.7279 10.1577 30.4424 10.5261 30.1926L16.9099 24.8231V15.8801C16.9099 15.1041 17.4521 14.5607 18.2293 14.5607H29.1593L34.2479 10.2872C34.4896 10.101 34.7861 10 35.0912 10C35.3963 10 35.6929 10.101 35.9345 10.2872L35.9472 10.2976L41.0231 14.5573H44.4032V22.5804C44.4032 23.041 44.6876 23.3242 45.147 23.3242H53.1644V24.8208L59.5504 30.1926C59.6432 30.2544 59.7286 30.3266 59.8049 30.4079L59.8371 30.4344C60.0039 30.6307 60.0903 30.8828 60.0789 31.1401V58.6818C60.0777 59.031 59.9384 59.3656 59.6914 59.6126C59.4445 59.8595 59.1099 59.9988 58.7607 60ZM18.2293 15.1364C17.7687 15.1364 17.4855 15.4219 17.4855 15.8801V25.0902L10.86 30.6623C10.6182 30.8235 10.5756 30.9455 10.5756 31.1447V58.6818C10.5759 58.879 10.6544 59.0679 10.7938 59.2074C10.9332 59.3468 11.1222 59.4252 11.3194 59.4255H58.7607C58.9577 59.4249 59.1465 59.3464 59.2859 59.207C59.4252 59.0677 59.5038 58.8789 59.5044 58.6818V31.1447C59.5044 30.9455 59.4618 30.8235 59.22 30.6623L58.8815 30.4321L58.9184 30.4044L52.5887 25.0902V23.9033H45.1423C44.3652 23.9033 43.823 23.361 43.823 22.5839V15.1364H40.809L35.5834 10.7431C35.4433 10.6328 35.2702 10.5728 35.0918 10.5728C34.9135 10.5728 34.7403 10.6328 34.6002 10.7431L29.3689 15.1364H18.2293ZM35.0377 50.1878L18.9718 36.6408V16.6238H42.3425V22.5839C42.3425 24.183 43.549 25.3895 45.1493 25.3895H51.1094V36.6408L35.0377 50.1878ZM19.5474 36.3726L35.0389 49.4348L50.5303 36.3726V25.9652H45.1458C44.7006 25.9696 44.2591 25.8852 43.8469 25.7168C43.4348 25.5485 43.0604 25.2995 42.7457 24.9846C42.4311 24.6697 42.1824 24.2952 42.0143 23.8829C41.8462 23.4707 41.7621 23.0291 41.7668 22.5839V17.1994H19.5474V36.3726ZM17.4855 35.3779L12.5247 31.1447L17.4867 26.9069L17.4855 35.3779ZM13.4123 31.1447L16.9099 34.1299V28.1595L13.4123 31.1447ZM38.5099 15.1421H31.5759L35.0435 12.2087L38.5099 15.1421ZM33.1473 14.5665H36.9315L35.0354 12.9628L33.1473 14.5665Z" fill="#70AD4D"/>
<path d="M58.7607 60L58.7607 64L58.7744 64L58.7607 60ZM11.3194 60L11.3091 64H11.3194V60ZM10.3878 59.613L7.55995 62.442L7.56052 62.4426L10.3878 59.613ZM10 58.6818L5.99998 58.6818L6.00002 58.6955L10 58.6818ZM10.5261 30.1926L12.771 33.5033L12.9424 33.387L13.1009 33.2537L10.5261 30.1926ZM16.9099 24.8231L19.4847 27.8842L20.9099 26.6855V24.8231H16.9099ZM29.1593 14.5607V18.5607H30.6161L31.7317 17.6238L29.1593 14.5607ZM34.2479 10.2872L31.8068 7.11846L31.74 7.1699L31.6755 7.22411L34.2479 10.2872ZM35.9345 10.2872L38.4689 7.19252L38.4231 7.15505L38.3763 7.11895L35.9345 10.2872ZM35.9472 10.2976L38.5185 7.23357L38.5001 7.21814L38.4816 7.20292L35.9472 10.2976ZM41.0231 14.5573L38.4518 17.6213L39.5671 18.5573H41.0231V14.5573ZM44.4032 14.5573H48.4032V10.5573H44.4032V14.5573ZM53.1644 23.3242H57.1644V19.3242H53.1644V23.3242ZM53.1644 24.8208H49.1644V26.6831L50.5895 27.8818L53.1644 24.8208ZM59.5504 30.1926L56.9755 33.2536L57.1469 33.3978L57.3333 33.5219L59.5504 30.1926ZM59.8049 30.4079L56.8882 33.1452L57.0643 33.3329L57.263 33.4964L59.8049 30.4079ZM59.8371 30.4344L62.8853 27.8443L62.6543 27.5725L62.379 27.3459L59.8371 30.4344ZM60.0789 31.1401L56.0828 30.963L56.0789 31.0515V31.1401H60.0789ZM60.0789 58.6818L64.0789 58.6955V58.6818H60.0789ZM17.4855 25.0902L20.0601 28.1515L21.4855 26.9527V25.0902H17.4855ZM10.86 30.6623L13.0788 33.9905L13.2641 33.867L13.4346 33.7236L10.86 30.6623ZM10.5756 58.6818L6.5756 58.6818L6.5756 58.6879L10.5756 58.6818ZM10.7938 59.2074L7.96436 62.0348L7.96537 62.0358L10.7938 59.2074ZM11.3194 59.4255L11.3133 63.4255H11.3194V59.4255ZM58.7607 59.4255V63.4255L58.7729 63.4255L58.7607 59.4255ZM59.5044 58.6818L63.5044 58.694V58.6818H59.5044ZM59.22 30.6623L56.9706 33.9699L56.9859 33.9803L57.0012 33.9905L59.22 30.6623ZM58.8815 30.4321L56.4801 27.2332L52.0047 30.5928L56.6321 33.7397L58.8815 30.4321ZM58.9184 30.4044L61.3198 33.6033L65.3478 30.5795L61.4904 27.3409L58.9184 30.4044ZM52.5887 25.0902H48.5887V26.9548L50.0167 28.1537L52.5887 25.0902ZM52.5887 23.9033H56.5887V19.9033H52.5887V23.9033ZM43.823 15.1364H47.823V11.1364H43.823V15.1364ZM40.809 15.1364L38.2349 18.1981L39.351 19.1364H40.809V15.1364ZM35.5834 10.7431L38.1575 7.68138L38.1083 7.64001L38.0578 7.60024L35.5834 10.7431ZM34.6002 10.7431L32.1258 7.60024L32.0762 7.63934L32.0278 7.67999L34.6002 10.7431ZM29.3689 15.1364V19.1364H30.8257L31.9413 18.1995L29.3689 15.1364ZM35.0377 50.1878L32.4592 53.2458L35.0372 55.4196L37.6157 53.2462L35.0377 50.1878ZM18.9718 36.6408H14.9718V38.5002L16.3933 39.6988L18.9718 36.6408ZM18.9718 16.6238V12.6238H14.9718V16.6238H18.9718ZM42.3425 16.6238H46.3425V12.6238H42.3425V16.6238ZM51.1094 25.3895H55.1094V21.3895H51.1094V25.3895ZM51.1094 36.6408L53.6874 39.6992L55.1094 38.5006V36.6408H51.1094ZM19.5474 36.3726H15.5474V38.232L16.9689 39.4306L19.5474 36.3726ZM35.0389 49.4348L32.4604 52.4928L35.0389 54.667L37.6174 52.4928L35.0389 49.4348ZM50.5303 36.3726L53.1088 39.4306L54.5303 38.232V36.3726H50.5303ZM50.5303 25.9652H54.5303V21.9652H50.5303V25.9652ZM45.1458 25.9652V21.9652H45.126L45.1063 21.9654L45.1458 25.9652ZM43.8469 25.7168L45.3597 22.0139L45.3592 22.0137L43.8469 25.7168ZM42.7457 24.9846L39.9159 27.8117L39.9164 27.8121L42.7457 24.9846ZM42.0143 23.8829L45.7183 22.3727L45.7181 22.3724L42.0143 23.8829ZM41.7668 22.5839L45.7666 22.6261L45.7668 22.605V22.5839H41.7668ZM41.7668 17.1994H45.7668V13.1994H41.7668V17.1994ZM19.5474 17.1994V13.1994H15.5474V17.1994H19.5474ZM17.4855 35.3779L14.889 38.4207L21.4843 44.0486L21.4855 35.3785L17.4855 35.3779ZM12.5247 31.1447L9.92696 28.103L6.364 31.146L9.92823 34.1875L12.5247 31.1447ZM17.4867 26.9069L21.4867 26.9075L21.4879 18.2294L14.889 23.8652L17.4867 26.9069ZM13.4123 31.1447L10.8155 28.1022L7.2508 31.1447L10.8155 34.1872L13.4123 31.1447ZM16.9099 34.1299L14.3131 37.1724L20.9099 42.8027V34.1299H16.9099ZM16.9099 28.1595H20.9099V19.4867L14.3131 25.117L16.9099 28.1595ZM38.5099 15.1421V19.1421H49.4288L41.0938 12.0887L38.5099 15.1421ZM31.5759 15.1421L28.9925 12.0882L20.6541 19.1421H31.5759V15.1421ZM35.0435 12.2087L37.6274 9.15528L35.0439 6.96905L32.4601 9.15484L35.0435 12.2087ZM33.1473 14.5665L30.5578 11.5178L22.2591 18.5665H33.1473V14.5665ZM36.9315 14.5665V18.5665H47.8549L39.5146 11.5124L36.9315 14.5665ZM35.0354 12.9628L37.6185 9.90871L35.0299 7.71931L32.4459 9.9141L35.0354 12.9628ZM58.7607 56H11.3194V64H58.7607V56ZM11.3297 56C12.0365 56.0018 12.7145 56.2832 13.2151 56.7834L7.56052 62.4426C8.55555 63.4368 9.90329 63.9964 11.3091 64L11.3297 56ZM13.2157 56.784C13.7151 57.2833 13.9975 57.9603 14 58.6681L6.00002 58.6955C6.00485 60.1021 6.56629 61.4487 7.55995 62.442L13.2157 56.784ZM14 58.6818V31.1447H6V58.6818H14ZM14 31.1447C14 31.461 13.9342 31.9828 13.626 32.5405C13.3275 33.0807 12.9526 33.3801 12.771 33.5033L8.28124 26.8819C7.73117 27.2549 7.09322 27.8219 6.62377 28.6716C6.1447 29.5386 6 30.4116 6 31.1447H14ZM13.1009 33.2537L19.4847 27.8842L14.3351 21.762L7.95133 27.1315L13.1009 33.2537ZM20.9099 24.8231V15.8801H12.9099V24.8231H20.9099ZM20.9099 15.8801C20.9099 16.4481 20.6951 17.1689 20.1075 17.7569C19.5195 18.3453 18.798 18.5607 18.2293 18.5607V10.5607C16.8834 10.5607 15.5022 11.0478 14.4488 12.1019C13.3958 13.1556 12.9099 14.5361 12.9099 15.8801H20.9099ZM18.2293 18.5607H29.1593V10.5607H18.2293V18.5607ZM31.7317 17.6238L36.8203 13.3503L31.6755 7.22411L26.5869 11.4976L31.7317 17.6238ZM36.689 13.4559C36.2313 13.8085 35.6696 14 35.0912 14V6C33.9026 6 32.7479 6.39347 31.8068 7.11846L36.689 13.4559ZM35.0912 14C34.5133 14 33.9512 13.8088 33.4927 13.4555L38.3763 7.11895C37.4346 6.39322 36.2793 6 35.0912 6V14ZM33.4001 13.3819L33.4128 13.3923L38.4816 7.20292L38.4689 7.19252L33.4001 13.3819ZM33.3759 13.3616L38.4518 17.6213L43.5944 11.4933L38.5185 7.23357L33.3759 13.3616ZM41.0231 18.5573H44.4032V10.5573H41.0231V18.5573ZM40.4032 14.5573V22.5804H48.4032V14.5573H40.4032ZM40.4032 22.5804C40.4032 23.6423 40.7479 24.9281 41.7761 25.9551C42.8035 26.9813 44.0881 27.3242 45.147 27.3242V19.3242C45.7465 19.3242 46.6592 19.5255 47.4296 20.2949C48.2007 21.0652 48.4032 21.9791 48.4032 22.5804H40.4032ZM45.147 27.3242H53.1644V19.3242H45.147V27.3242ZM49.1644 23.3242V24.8208H57.1644V23.3242H49.1644ZM50.5895 27.8818L56.9755 33.2536L62.1253 27.1316L55.7393 21.7598L50.5895 27.8818ZM57.3333 33.5219C57.172 33.4145 57.0225 33.2883 56.8882 33.1452L62.7216 27.6706C62.4347 27.3649 62.1144 27.0943 61.7675 26.8633L57.3333 33.5219ZM57.263 33.4964L57.2952 33.5229L62.379 27.3459L62.3468 27.3194L57.263 33.4964ZM56.7889 33.0245C56.3021 32.4516 56.0495 31.7152 56.0828 30.963L64.075 31.3172C64.1311 30.0504 63.7057 28.8098 62.8853 27.8443L56.7889 33.0245ZM56.0789 31.1401V58.6818H64.0789V31.1401H56.0789ZM56.0789 58.6681C56.0814 57.9607 56.3635 57.2837 56.863 56.7842L62.5198 62.441C63.5133 61.4475 64.074 60.1013 64.0789 58.6955L56.0789 58.6681ZM56.863 56.7842C57.3627 56.2844 58.0399 56.0025 58.747 56L58.7744 64C60.1799 63.9951 61.5263 63.4346 62.5198 62.441L56.863 56.7842ZM18.2293 11.1364C17.1632 11.1364 15.8782 11.4839 14.8532 12.511C13.8297 13.5368 13.4855 14.8194 13.4855 15.8801H21.4855C21.4855 16.4826 21.2829 17.3934 20.5161 18.1618C19.7479 18.9317 18.8348 19.1364 18.2293 19.1364V11.1364ZM13.4855 15.8801V25.0902H21.4855V15.8801H13.4855ZM14.9109 22.0289L8.28542 27.601L13.4346 33.7236L20.0601 28.1515L14.9109 22.0289ZM8.6412 27.3341C8.26441 27.5853 7.59096 28.0951 7.10903 28.9858C6.60394 29.9194 6.5756 30.7827 6.5756 31.1447H14.5756C14.5756 31.3075 14.5686 32.0102 14.1452 32.7927C13.745 33.5323 13.2138 33.9005 13.0788 33.9905L8.6412 27.3341ZM6.5756 31.1447V58.6818H14.5756V31.1447H6.5756ZM6.5756 58.6879C6.57752 59.9451 7.07818 61.148 7.96436 62.0348L13.6232 56.38C14.2306 56.9878 14.5743 57.8129 14.5756 58.6757L6.5756 58.6879ZM7.96537 62.0358C8.8541 62.9246 10.0583 63.4236 11.3133 63.4255L11.3255 55.4255C12.1861 55.4268 13.0123 55.769 13.6222 56.379L7.96537 62.0358ZM11.3194 63.4255H58.7607V55.4255H11.3194V63.4255ZM58.7729 63.4255C60.0263 63.4217 61.2276 62.9221 62.1143 62.0354L56.4575 56.3786C57.0654 55.7707 57.8891 55.4281 58.7485 55.4255L58.7729 63.4255ZM62.1143 62.0354C63.0004 61.1493 63.5006 59.9482 63.5044 58.694L55.5044 58.6696C55.507 57.8096 55.85 56.9861 56.4575 56.3786L62.1143 62.0354ZM63.5044 58.6818V31.1447H55.5044V58.6818H63.5044ZM63.5044 31.1447C63.5044 30.7827 63.4761 29.9194 62.971 28.9859C62.4891 28.0951 61.8156 27.5853 61.4388 27.3341L57.0012 33.9905C56.8662 33.9005 56.3349 33.5323 55.9348 32.7926C55.5114 32.0102 55.5044 31.3075 55.5044 31.1447H63.5044ZM61.4694 27.3547L61.1309 27.1245L56.6321 33.7397L56.9706 33.9699L61.4694 27.3547ZM61.2829 33.631L61.3198 33.6033L56.517 27.2055L56.4801 27.2332L61.2829 33.631ZM61.4904 27.3409L55.1607 22.0267L50.0167 28.1537L56.3464 33.4679L61.4904 27.3409ZM56.5887 25.0902V23.9033H48.5887V25.0902H56.5887ZM52.5887 19.9033H45.1423V27.9033H52.5887V19.9033ZM45.1423 19.9033C45.7088 19.9033 46.4307 20.1175 47.0198 20.7067C47.6089 21.2959 47.823 22.0176 47.823 22.5839H39.823C39.823 23.9273 40.3082 25.3087 41.3627 26.3633C42.4172 27.4179 43.7987 27.9033 45.1423 27.9033V19.9033ZM47.823 22.5839V15.1364H39.823V22.5839H47.823ZM43.823 11.1364H40.809V19.1364H43.823V11.1364ZM43.3831 12.0747L38.1575 7.68138L33.0093 13.8048L38.2349 18.1981L43.3831 12.0747ZM38.0578 7.60024C37.2127 6.9349 36.1681 6.5728 35.0918 6.5728V14.5728C34.3723 14.5728 33.6739 14.3307 33.109 13.886L38.0578 7.60024ZM35.0918 6.5728C34.0158 6.5728 32.9712 6.93474 32.1258 7.60024L37.0746 13.886C36.5094 14.3309 35.8112 14.5728 35.0918 14.5728V6.5728ZM32.0278 7.67999L26.7965 12.0733L31.9413 18.1995L37.1726 13.8062L32.0278 7.67999ZM29.3689 11.1364H18.2293V19.1364H29.3689V11.1364ZM37.6162 47.1298L21.5503 33.5828L16.3933 39.6988L32.4592 53.2458L37.6162 47.1298ZM22.9718 36.6408V16.6238H14.9718V36.6408H22.9718ZM18.9718 20.6238H42.3425V12.6238H18.9718V20.6238ZM38.3425 16.6238V22.5839H46.3425V16.6238H38.3425ZM38.3425 22.5839C38.3425 26.3933 41.341 29.3895 45.1493 29.3895V21.3895C45.3813 21.3895 45.7054 21.4892 45.9738 21.7575C46.2422 22.0258 46.3425 22.3505 46.3425 22.5839H38.3425ZM45.1493 29.3895H51.1094V21.3895H45.1493V29.3895ZM47.1094 25.3895V36.6408H55.1094V25.3895H47.1094ZM48.5314 33.5824L32.4597 47.1294L37.6157 53.2462L53.6874 39.6992L48.5314 33.5824ZM16.9689 39.4306L32.4604 52.4928L37.6174 46.3768L22.1259 33.3146L16.9689 39.4306ZM37.6174 52.4928L53.1088 39.4306L47.9518 33.3146L32.4604 46.3768L37.6174 52.4928ZM54.5303 36.3726V25.9652H46.5303V36.3726H54.5303ZM50.5303 21.9652H45.1458V29.9652H50.5303V21.9652ZM45.1063 21.9654C45.1929 21.9645 45.2791 21.981 45.3597 22.0139L42.3341 29.4197C43.2391 29.7894 44.2083 29.9747 45.1853 29.965L45.1063 21.9654ZM45.3592 22.0137C45.4405 22.0469 45.5137 22.0957 45.575 22.1571L39.9164 27.8121C40.6071 28.5033 41.4291 29.0501 42.3346 29.4199L45.3592 22.0137ZM45.5755 22.1575C45.6367 22.2188 45.6853 22.2919 45.7183 22.3727L38.3103 25.3931C38.6795 26.2985 39.2255 27.1206 39.9159 27.8117L45.5755 22.1575ZM45.7181 22.3724C45.7511 22.4534 45.7675 22.5397 45.7666 22.6261L37.767 22.5417C37.7567 23.5185 37.9413 24.488 38.3105 25.3934L45.7181 22.3724ZM45.7668 22.5839V17.1994H37.7668V22.5839H45.7668ZM41.7668 13.1994H19.5474V21.1994H41.7668V13.1994ZM15.5474 17.1994V36.3726H23.5474V17.1994H15.5474ZM20.082 32.3351L15.1212 28.1019L9.92823 34.1875L14.889 38.4207L20.082 32.3351ZM15.1224 34.1864L20.0844 29.9486L14.889 23.8652L9.92696 28.103L15.1224 34.1864ZM13.4867 26.9063L13.4855 35.3773L21.4855 35.3785L21.4867 26.9075L13.4867 26.9063ZM10.8155 34.1872L14.3131 37.1724L19.5067 31.0874L16.0091 28.1022L10.8155 34.1872ZM20.9099 34.1299V28.1595H12.9099V34.1299H20.9099ZM14.3131 25.117L10.8155 28.1022L16.0091 34.1872L19.5067 31.202L14.3131 25.117ZM38.5099 11.1421H31.5759V19.1421H38.5099V11.1421ZM34.1593 18.196L37.6269 15.2626L32.4601 9.15484L28.9925 12.0882L34.1593 18.196ZM32.4596 15.2621L35.926 18.1955L41.0938 12.0887L37.6274 9.15528L32.4596 15.2621ZM33.1473 18.5665H36.9315V10.5665H33.1473V18.5665ZM39.5146 11.5124L37.6185 9.90871L32.4523 16.0169L34.3484 17.6206L39.5146 11.5124ZM32.4459 9.9141L30.5578 11.5178L35.7368 17.6152L37.6249 16.0115L32.4459 9.9141Z" fill="#70AD4D" mask="url(#path-1-inside-1_6_2)"/>
<mask id="path-3-inside-2_6_2" fill="white">
<path d="M53.5765 21.8413H45.8906V14.1543L53.5765 21.8413ZM46.4663 21.2657H52.1869L46.4663 15.5439V21.2657Z"/>
</mask>
<path d="M53.5765 21.8413H45.8906V14.1543L53.5765 21.8413ZM46.4663 21.2657H52.1869L46.4663 15.5439V21.2657Z" fill="#70AD4D"/>
<path d="M53.5765 21.8413V25.8413H63.2324L56.4051 19.0131L53.5765 21.8413ZM45.8906 21.8413H41.8906V25.8413H45.8906V21.8413ZM45.8906 14.1543L48.7192 11.3261L41.8906 4.49647V14.1543H45.8906ZM46.4663 21.2657H42.4663V25.2657H46.4663V21.2657ZM52.1869 21.2657V25.2657H61.8423L55.0156 18.4376L52.1869 21.2657ZM46.4663 15.5439L49.295 12.7158L42.4663 5.88561V15.5439H46.4663ZM53.5765 17.8413H45.8906V25.8413H53.5765V17.8413ZM49.8906 21.8413V14.1543H41.8906V21.8413H49.8906ZM43.062 16.9825L50.7479 24.6695L56.4051 19.0131L48.7192 11.3261L43.062 16.9825ZM46.4663 25.2657H52.1869V17.2657H46.4663V25.2657ZM55.0156 18.4376L49.295 12.7158L43.6376 18.372L49.3582 24.0938L55.0156 18.4376ZM42.4663 15.5439V21.2657H50.4663V15.5439H42.4663Z" fill="#70AD4D" mask="url(#path-3-inside-2_6_2)"/>
<mask id="path-5-inside-3_6_2" fill="white">
<path d="M34.2664 41.2298C33.9994 41.2278 33.7373 41.1574 33.5051 41.0254C33.273 40.8934 33.0785 40.7042 32.9401 40.4758L28.5032 33.1503C28.3577 32.9158 28.2786 32.6462 28.2741 32.3703C28.2697 32.0944 28.3401 31.8225 28.4778 31.5834C28.615 31.3307 28.8183 31.12 29.0658 30.9738C29.3134 30.8277 29.596 30.7514 29.8835 30.7533H30.9358V22.5794C30.9358 21.8023 31.478 21.26 32.2552 21.26H36.3801C37.1572 21.26 37.6995 21.8023 37.6995 22.5794V30.7533H38.7529C39.0442 30.7507 39.3305 30.8298 39.5791 30.9816C39.8278 31.1334 40.0289 31.3519 40.1597 31.6122C40.2848 31.8572 40.3384 32.1325 40.3144 32.4065C40.2903 32.6805 40.1897 32.9423 40.0239 33.1618L35.5961 40.4723C35.4577 40.7017 35.2627 40.8917 35.03 41.0243C34.7972 41.1569 34.5343 41.2277 34.2664 41.2298ZM29.8835 31.329C29.7005 31.3284 29.5207 31.3771 29.3631 31.4701C29.2055 31.5631 29.0758 31.6969 28.9879 31.8574C28.9002 32.0075 28.855 32.1785 28.857 32.3523C28.859 32.5261 28.9082 32.6961 28.9994 32.844L33.4363 40.1695C33.5217 40.316 33.6439 40.4375 33.7909 40.522C33.9379 40.6064 34.1044 40.6509 34.2739 40.6509C34.4434 40.6509 34.6099 40.6064 34.7569 40.522C34.9038 40.4375 35.0261 40.316 35.1114 40.1695L39.5599 32.8268C39.6645 32.692 39.7286 32.5303 39.7447 32.3605C39.7608 32.1907 39.7282 32.0198 39.6509 31.8678C39.5673 31.7035 39.4395 31.5659 39.2818 31.4704C39.1242 31.375 38.9429 31.3256 38.7586 31.3278H37.1296V22.5782C37.1296 22.1177 36.8452 21.8345 36.3859 21.8345H32.2609C31.8004 21.8345 31.5172 22.12 31.5172 22.5782V31.3278L29.8835 31.329Z"/>
</mask>
<path d="M34.2664 41.2298C33.9994 41.2278 33.7373 41.1574 33.5051 41.0254C33.273 40.8934 33.0785 40.7042 32.9401 40.4758L28.5032 33.1503C28.3577 32.9158 28.2786 32.6462 28.2741 32.3703C28.2697 32.0944 28.3401 31.8225 28.4778 31.5834C28.615 31.3307 28.8183 31.12 29.0658 30.9738C29.3134 30.8277 29.596 30.7514 29.8835 30.7533H30.9358V22.5794C30.9358 21.8023 31.478 21.26 32.2552 21.26H36.3801C37.1572 21.26 37.6995 21.8023 37.6995 22.5794V30.7533H38.7529C39.0442 30.7507 39.3305 30.8298 39.5791 30.9816C39.8278 31.1334 40.0289 31.3519 40.1597 31.6122C40.2848 31.8572 40.3384 32.1325 40.3144 32.4065C40.2903 32.6805 40.1897 32.9423 40.0239 33.1618L35.5961 40.4723C35.4577 40.7017 35.2627 40.8917 35.03 41.0243C34.7972 41.1569 34.5343 41.2277 34.2664 41.2298ZM29.8835 31.329C29.7005 31.3284 29.5207 31.3771 29.3631 31.4701C29.2055 31.5631 29.0758 31.6969 28.9879 31.8574C28.9002 32.0075 28.855 32.1785 28.857 32.3523C28.859 32.5261 28.9082 32.6961 28.9994 32.844L33.4363 40.1695C33.5217 40.316 33.6439 40.4375 33.7909 40.522C33.9379 40.6064 34.1044 40.6509 34.2739 40.6509C34.4434 40.6509 34.6099 40.6064 34.7569 40.522C34.9038 40.4375 35.0261 40.316 35.1114 40.1695L39.5599 32.8268C39.6645 32.692 39.7286 32.5303 39.7447 32.3605C39.7608 32.1907 39.7282 32.0198 39.6509 31.8678C39.5673 31.7035 39.4395 31.5659 39.2818 31.4704C39.1242 31.375 38.9429 31.3256 38.7586 31.3278H37.1296V22.5782C37.1296 22.1177 36.8452 21.8345 36.3859 21.8345H32.2609C31.8004 21.8345 31.5172 22.12 31.5172 22.5782V31.3278L29.8835 31.329Z" fill="#70AD4D"/>
<path d="M34.2664 41.2298L34.2364 45.2297L34.2671 45.2299L34.2977 45.2297L34.2664 41.2298ZM33.5051 41.0254L31.5276 44.5024L31.5283 44.5028L33.5051 41.0254ZM32.9401 40.4758L29.5187 42.5481L29.5191 42.5488L32.9401 40.4758ZM28.5032 33.1503L31.9246 31.0781L31.9134 31.0597L31.9021 31.0414L28.5032 33.1503ZM28.2741 32.3703L24.2746 32.4341L24.2746 32.4355L28.2741 32.3703ZM28.4778 31.5834L31.9441 33.5797L31.9691 33.5361L31.9931 33.492L28.4778 31.5834ZM29.0658 30.9738L27.033 27.5288L27.0314 27.5298L29.0658 30.9738ZM29.8835 30.7533L29.8571 34.7532L29.8703 34.7533H29.8835V30.7533ZM30.9358 30.7533V34.7533H34.9358V30.7533H30.9358ZM37.6995 30.7533H33.6995V34.7533H37.6995V30.7533ZM38.7529 30.7533V34.7533H38.7707L38.7886 34.7531L38.7529 30.7533ZM39.5791 30.9816L37.4945 34.3955L37.4951 34.3959L39.5791 30.9816ZM40.1597 31.6122L36.5856 33.4082L36.5914 33.4197L36.5972 33.4312L40.1597 31.6122ZM40.3144 32.4065L44.299 32.757L44.2991 32.7555L40.3144 32.4065ZM40.0239 33.1618L36.8321 30.7509L36.7086 30.9143L36.6025 31.0896L40.0239 33.1618ZM35.5961 40.4723L32.1747 38.4001L32.1711 38.406L35.5961 40.4723ZM35.03 41.0243L37.0097 44.5L37.0104 44.4997L35.03 41.0243ZM29.8835 31.329L29.8704 35.329L29.8784 35.329L29.8864 35.329L29.8835 31.329ZM28.9879 31.8574L32.4416 33.8753L32.4696 33.8274L32.4962 33.7788L28.9879 31.8574ZM28.9994 32.844L32.4208 30.7718L32.4125 30.7581L32.4041 30.7445L28.9994 32.844ZM33.4363 40.1695L36.892 38.1551L36.8751 38.126L36.8577 38.0973L33.4363 40.1695ZM33.7909 40.522L31.7974 43.9899L31.7992 43.9909L33.7909 40.522ZM34.7569 40.522L36.7486 43.9909L36.7514 43.9893L34.7569 40.522ZM35.1114 40.1695L31.6903 38.0969L31.6722 38.1267L31.6547 38.1568L35.1114 40.1695ZM39.5599 32.8268L36.3997 30.3746L36.2583 30.5569L36.1388 30.7542L39.5599 32.8268ZM39.6509 31.8678L43.2163 30.0546L43.2159 30.0538L39.6509 31.8678ZM39.2818 31.4704L41.3538 28.0489L41.3532 28.0485L39.2818 31.4704ZM38.7586 31.3278V35.3278H38.7825L38.8063 35.3275L38.7586 31.3278ZM37.1296 31.3278H33.1296V35.3278H37.1296V31.3278ZM31.5172 31.3278L31.5201 35.3278L35.5172 35.3249V31.3278H31.5172ZM34.2964 37.2299C34.713 37.233 35.121 37.3429 35.4819 37.548L31.5283 44.5028C32.3536 44.9719 33.2858 45.2226 34.2364 45.2297L34.2964 37.2299ZM35.4825 37.5484C35.8436 37.7537 36.146 38.0479 36.361 38.4029L29.5191 42.5488C30.011 43.3605 30.7024 44.0331 31.5276 44.5024L35.4825 37.5484ZM36.3615 38.4036L31.9246 31.0781L25.0818 35.2226L29.5187 42.5481L36.3615 38.4036ZM31.9021 31.0414C32.1384 31.4223 32.2663 31.8592 32.2736 32.3051L24.2746 32.4355C24.2909 33.4333 24.5769 34.4093 25.1043 35.2592L31.9021 31.0414ZM32.2736 32.3065C32.2807 32.753 32.1667 33.193 31.9441 33.5797L25.0115 29.5872C24.5134 30.452 24.2587 31.4358 24.2746 32.4341L32.2736 32.3065ZM31.9931 33.492C31.7845 33.8761 31.4758 34.1959 31.1002 34.4178L27.0314 27.5298C26.1608 28.0441 25.4455 28.7853 24.9625 29.6748L31.9931 33.492ZM31.0986 34.4188C30.7238 34.6399 30.2948 34.7561 29.8571 34.7532L29.9099 26.7534C28.8971 26.7467 27.903 27.0155 27.033 27.5288L31.0986 34.4188ZM29.8835 34.7533H30.9358V26.7533H29.8835V34.7533ZM34.9358 30.7533V22.5794H26.9358V30.7533H34.9358ZM34.9358 22.5794C34.9358 23.1457 34.7217 23.8675 34.1325 24.4566C33.5434 25.0459 32.8215 25.26 32.2552 25.26V17.26C30.9116 17.26 29.5301 17.7453 28.4755 18.7999C27.421 19.8546 26.9358 21.236 26.9358 22.5794H34.9358ZM32.2552 25.26H36.3801V17.26H32.2552V25.26ZM36.3801 25.26C35.8136 25.26 35.0919 25.0458 34.5028 24.4567C33.9137 23.8676 33.6995 23.1459 33.6995 22.5794H41.6995C41.6995 21.2358 41.2141 19.8544 40.1596 18.7999C39.1051 17.7454 37.7237 17.26 36.3801 17.26V25.26ZM33.6995 22.5794V30.7533H41.6995V22.5794H33.6995ZM37.6995 34.7533H38.7529V26.7533H37.6995V34.7533ZM38.7886 34.7531C38.3325 34.7572 37.8842 34.6335 37.4945 34.3955L41.6637 27.5677C40.7767 27.0262 39.7559 26.7442 38.7172 26.7535L38.7886 34.7531ZM37.4951 34.3959C37.105 34.1578 36.7902 33.8154 36.5856 33.4082L43.7338 29.8162C43.2676 28.8884 42.5506 28.1091 41.6631 27.5674L37.4951 34.3959ZM36.5972 33.4312C36.3808 33.0074 36.2881 32.5313 36.3296 32.0575L44.2991 32.7555C44.3886 31.7337 44.1888 30.707 43.7221 29.7932L36.5972 33.4312ZM36.3298 32.056C36.3713 31.5837 36.5448 31.1312 36.8321 30.7509L43.2157 35.5727C43.8346 34.7534 44.2093 33.7773 44.299 32.757L36.3298 32.056ZM36.6025 31.0896L32.1747 38.4001L39.0175 42.5446L43.4453 35.2341L36.6025 31.0896ZM32.1711 38.406C32.3867 38.0488 32.6895 37.7542 33.0496 37.5489L37.0104 44.4997C37.8359 44.0293 38.5287 43.3547 39.021 42.5386L32.1711 38.406ZM33.0503 37.5486C33.4108 37.3432 33.8186 37.2332 34.235 37.2299L34.2977 45.2297C35.25 45.2222 36.1836 44.9706 37.0097 44.5L33.0503 37.5486ZM29.8966 27.329C28.9953 27.3261 28.1085 27.5659 27.3302 28.0252L31.3959 34.915C30.9329 35.1883 30.4057 35.3307 29.8704 35.329L29.8966 27.329ZM27.3302 28.0252C26.5538 28.4833 25.9139 29.143 25.4796 29.936L32.4962 33.7788C32.2377 34.2508 31.8571 34.6429 31.3959 34.915L27.3302 28.0252ZM25.5342 29.8395C25.0806 30.6159 24.8469 31.5003 24.8573 32.3983L32.8567 32.3063C32.8631 32.8567 32.7198 33.3991 32.4416 33.8753L25.5342 29.8395ZM24.8573 32.3983C24.8676 33.2969 25.1219 34.1769 25.5947 34.9435L32.4041 30.7445C32.6944 31.2154 32.8504 31.7553 32.8567 32.3063L24.8573 32.3983ZM25.578 34.9163L30.0149 42.2418L36.8577 38.0973L32.4208 30.7718L25.578 34.9163ZM29.9806 42.184C30.4178 42.934 31.044 43.5568 31.7974 43.9899L35.7843 37.0541C36.2438 37.3182 36.6256 37.698 36.892 38.1551L29.9806 42.184ZM31.7992 43.9909C32.5509 44.4225 33.4038 44.6509 34.2739 44.6509V36.6509C34.8049 36.6509 35.3249 36.7904 35.7826 37.0531L31.7992 43.9909ZM34.2739 44.6509C35.1439 44.6509 35.9969 44.4225 36.7486 43.9909L32.7652 37.0531C33.2229 36.7903 33.7429 36.6509 34.2739 36.6509V44.6509ZM36.7514 43.9893C37.503 43.557 38.1301 42.9345 38.5681 42.1822L31.6547 38.1568C31.9221 37.6975 32.3046 37.3181 32.7624 37.0547L36.7514 43.9893ZM38.5325 42.2422L42.981 34.8995L36.1388 30.7542L31.6903 38.0969L38.5325 42.2422ZM42.7201 35.279C43.2895 34.5452 43.639 33.6641 43.7268 32.7381L35.7626 31.9829C35.8182 31.3965 36.0395 30.8388 36.3997 30.3746L42.7201 35.279ZM43.7268 32.7381C43.8147 31.8119 43.6368 30.8813 43.2163 30.0546L36.0855 33.681C35.8196 33.1583 35.7069 32.5695 35.7626 31.9829L43.7268 32.7381ZM43.2159 30.0538C42.7942 29.2249 42.1492 28.5306 41.3538 28.0489L37.2098 34.8919C36.7298 34.6012 36.3404 34.1821 36.0859 33.6818L43.2159 30.0538ZM41.3532 28.0485C40.5563 27.5662 39.6409 27.317 38.7108 27.3281L38.8063 35.3275C38.2449 35.3342 37.692 35.1838 37.2104 34.8923L41.3532 28.0485ZM38.7586 27.3278H37.1296V35.3278H38.7586V27.3278ZM41.1296 31.3278V22.5782H33.1296V31.3278H41.1296ZM41.1296 22.5782C41.1296 21.5162 40.7848 20.2304 39.7567 19.2036C38.7295 18.1775 37.445 17.8345 36.3859 17.8345V25.8345C35.7861 25.8345 34.8735 25.6331 34.1032 24.8638C33.3322 24.0936 33.1296 23.1797 33.1296 22.5782H41.1296ZM36.3859 17.8345H32.2609V25.8345H36.3859V17.8345ZM32.2609 17.8345C31.1946 17.8345 29.9096 18.1822 28.8848 19.2093C27.8614 20.235 27.5172 21.5175 27.5172 22.5782H35.5172C35.5172 23.1807 35.3146 24.0914 34.5479 24.8598C33.7798 25.6296 32.8667 25.8345 32.2609 25.8345V17.8345ZM27.5172 22.5782V31.3278H35.5172V22.5782H27.5172ZM31.5143 27.3278L29.8806 27.329L29.8864 35.329L31.5201 35.3278L31.5143 27.3278Z" fill="#70AD4D" mask="url(#path-5-inside-3_6_2)"/>
</svg>
