<svg width="94" height="101" viewBox="0 0 94 101" fill="none" xmlns="http://www.w3.org/2000/svg">
<path d="M83.0264 51.2212C79.016 51.2212 75.6332 47.9633 75.6332 43.702C75.6332 42.8243 75.7582 41.9476 76.0091 41.4468L61.4725 27.913C60.5949 28.2889 59.4673 28.6647 58.4648 28.6647C56.5855 28.6647 54.956 27.913 53.7027 26.6595L37.2869 34.4287V34.5537C37.2869 38.5642 34.029 41.9469 29.7677 41.9469C25.5072 41.9469 22.3744 38.8141 22.3744 34.6788C22.3744 33.5512 22.7503 32.5486 23.252 31.4209L9.59314 14.63C8.8414 14.8809 8.33965 15.0059 7.7138 15.0059C3.70334 15.0059 0.320557 11.748 0.320557 7.48669C0.320557 3.10029 3.95419 -0.157402 8.2155 0.0934481C9.96984 0.218446 11.7243 1.22106 12.8519 2.59948C16.1098 6.48396 15.233 8.36433 14.2303 10.7444L28.0143 27.7869C28.7661 27.5361 29.2678 27.4111 29.8937 27.4111C31.773 27.4111 33.4024 28.1628 34.7809 29.4163L51.1967 21.6471V21.5221C51.1967 17.5116 54.4546 14.1289 58.7159 14.1289C62.8512 14.1289 66.1091 17.3868 66.1091 21.5221C66.1091 22.3997 65.9841 23.2764 65.7333 23.7773L80.5197 37.1862C81.3974 36.8104 82.525 36.4345 83.5275 36.4345C87.538 36.4345 91.0467 39.6924 90.9207 43.9537C90.2949 47.9624 87.0371 51.2212 83.0267 51.2212H83.0264Z" fill="#42505C"/>
<path d="M24.1293 100.08C18.8661 100.08 14.6057 95.8194 14.6057 90.5563C14.6057 85.2931 18.8661 81.0327 24.1293 81.0327C29.3924 81.0327 33.6528 85.2931 33.6528 90.5563C33.6528 95.8185 29.5175 100.08 24.1293 100.08V100.08ZM24.1293 86.6709C21.8741 86.6709 20.2448 88.4252 20.2448 90.5554C20.2448 92.8106 21.9991 94.4399 24.1293 94.4399C26.3845 94.4399 28.0138 92.6855 28.0138 90.5554C28.0138 88.3002 26.2594 86.6709 24.1293 86.6709V86.6709Z" fill="#68A355"/>
<path d="M83.0263 69.8794L69.8683 68.2501L59.2171 57.5989C53.3274 51.7092 46.8109 51.0824 40.5452 51.0824H38.9159C31.7726 51.0824 24.3794 50.9574 18.2397 57.724C15.8585 60.356 13.4776 62.9872 11.3473 65.619C10.9714 65.9948 10.8464 66.2457 10.4696 66.6216L7.83762 66.4966C5.45645 66.4966 3.20126 67.4992 1.69705 69.3785L0.445312 70.6312V82.7865C0.445312 84.7917 1.44793 86.671 3.07733 87.6737L5.83422 89.428C6.83684 90.0548 8.0894 90.4307 9.09213 90.4307H11.5982C11.5982 83.6642 17.1122 78.0245 24.0044 78.0245C30.8966 78.0245 36.4106 83.7893 36.4106 90.5558H58.4655C58.4655 83.7893 63.9795 78.1496 70.8717 78.1496C77.6381 78.1496 83.2779 83.6635 83.2779 90.5558H88.4159C89.7944 90.5558 91.2979 86.0445 91.2979 86.0445C92.0497 84.791 92.5514 83.4125 92.5514 81.9092C92.4247 76.1452 90.4194 71.3831 83.0263 69.8796L83.0263 69.8794ZM17.6129 66.6215C19.1164 64.8672 20.7458 63.1127 22.2493 61.4834C25.7581 57.599 30.0185 56.8471 34.9057 56.7213V67.1223L17.6129 66.6215ZM40.4199 67.1224V56.5963C46.8107 56.5963 50.946 57.3481 54.9564 61.3584L61.097 67.6241L40.4199 67.1224Z" fill="#68A355"/>
<path d="M70.8712 100.08C65.6081 100.08 61.3477 95.8194 61.3477 90.5563C61.3477 85.2931 65.6081 81.0327 70.8712 81.0327C76.1344 81.0327 80.3948 85.2931 80.3948 90.5563C80.5207 95.8185 76.2601 100.08 70.8712 100.08V100.08ZM70.8712 86.6709C68.616 86.6709 66.9867 88.4252 66.9867 90.5554C66.9867 92.8106 68.7411 94.4399 70.8712 94.4399C73.1264 94.4399 74.7557 92.6855 74.7557 90.5554C74.8816 88.3002 73.1272 86.6709 70.8712 86.6709Z" fill="#68A355"/>
<path d="M84.0463 43.2678L83.8484 43.2261C83.1759 43.0585 82.4638 42.64 82.4638 42.2218C82.4638 41.7198 82.8596 41.2595 83.3342 41.2595C84.3629 41.2595 84.7981 41.5943 84.7981 41.636L84.9167 41.7198L85.352 41.1758L85.8266 40.6318L85.7477 40.548C85.6685 40.4642 85.273 40.0877 84.4026 39.9205V39H82.9388V39.8788C81.8705 40.0881 81.0792 41.1341 81.0792 42.2639C81.0792 43.6864 82.4244 44.4397 83.5719 44.6907C84.2444 44.8162 84.917 45.2347 84.8775 45.7367C84.838 46.2387 84.3236 46.6572 83.7303 46.6572C82.5433 46.6155 82.0291 46.1969 82.0291 46.1969L81.9099 46.1966L81 47.2844L81.1187 47.3682C81.1581 47.4099 81.7518 47.9122 82.9782 48.1212V49H84.4025L84.4023 48.0795C85.4706 47.8285 86.2618 46.9079 86.2618 45.8202C86.3015 44.5649 85.4706 43.6022 84.0463 43.2678Z" fill="white"/>
<path d="M59.0463 20.2678L58.8484 20.2261C58.1759 20.0585 57.4638 19.64 57.4638 19.2218C57.4638 18.7198 57.8596 18.2595 58.3342 18.2595C59.3629 18.2595 59.7981 18.5943 59.7981 18.636L59.9167 18.7198L60.352 18.1758L60.8266 17.6318L60.7477 17.548C60.6685 17.4642 60.273 17.0877 59.4026 16.9205V16H57.9388V16.8788C56.8705 17.0881 56.0792 18.1341 56.0792 19.2639C56.0792 20.6864 57.4244 21.4397 58.5719 21.6907C59.2444 21.8162 59.917 22.2347 59.8775 22.7367C59.838 23.2387 59.3236 23.6572 58.7303 23.6572C57.5433 23.6155 57.0291 23.1969 57.0291 23.1969L56.9099 23.1966L56 24.2844L56.1187 24.3682C56.1581 24.4099 56.7518 24.9122 57.9782 25.1212V26H59.4025L59.4023 25.0795C60.4706 24.8285 61.2618 23.9079 61.2618 22.8202C61.3015 21.5649 60.4706 20.6022 59.0463 20.2678Z" fill="white"/>
<path d="M30.0463 34.2678L29.8484 34.2261C29.1759 34.0585 28.4638 33.64 28.4638 33.2218C28.4638 32.7198 28.8596 32.2595 29.3342 32.2595C30.3629 32.2595 30.7981 32.5943 30.7981 32.636L30.9167 32.7198L31.352 32.1758L31.8266 31.6318L31.7477 31.548C31.6685 31.4642 31.273 31.0877 30.4026 30.9205V30H28.9388V30.8788C27.8705 31.0881 27.0792 32.1341 27.0792 33.2639C27.0792 34.6864 28.4244 35.4397 29.5719 35.6907C30.2444 35.8162 30.917 36.2347 30.8775 36.7367C30.838 37.2387 30.3236 37.6572 29.7303 37.6572C28.5433 37.6155 28.0291 37.1969 28.0291 37.1969L27.9099 37.1966L27 38.2844L27.1187 38.3682C27.1581 38.4099 27.7518 38.9122 28.9782 39.1212V40H30.4025L30.4023 39.0795C31.4706 38.8285 32.2618 37.9079 32.2618 36.8202C32.3015 35.5649 31.4706 34.6022 30.0463 34.2678Z" fill="white"/>
<path d="M8.04632 6.2678L7.84844 6.22607C7.17588 6.05854 6.46382 5.64001 6.46382 5.22181C6.46382 4.71981 6.85958 4.25954 7.33424 4.25954C8.36285 4.25954 8.79806 4.59431 8.79806 4.63604L8.91673 4.71981L9.35196 4.17578L9.82665 3.63176L9.74772 3.548C9.66851 3.46423 9.27303 3.08773 8.40259 2.9205V2H6.93877V2.87881C5.87046 3.08808 5.07923 4.13412 5.07923 5.2639C5.07923 6.68642 6.42436 7.4397 7.57188 7.69068C8.24444 7.81618 8.917 8.2347 8.87751 8.7367C8.83804 9.2387 8.32362 9.6572 7.73028 9.6572C6.54327 9.61547 6.02914 9.19694 6.02914 9.19694L5.90991 9.19664L5 10.2844L5.11867 10.3682C5.15814 10.4099 5.75177 10.9122 6.97821 11.1212V12H8.40253L8.40226 11.0795C9.47057 10.8285 10.2618 9.90795 10.2618 8.82023C10.3015 7.56493 9.47065 6.60223 8.04632 6.2678Z" fill="white"/>
</svg>