<svg width="70" height="70" viewBox="0 0 70 70" fill="none" xmlns="http://www.w3.org/2000/svg">
<path d="M9.85 35C9.85 48.8679 21.1321 60.15 35 60.15C48.8679 60.15 60.15 48.8679 60.15 35C60.15 21.1321 48.8679 9.85 35 9.85C28.3302 9.85123 21.9339 12.5013 17.2176 17.2176C12.5013 21.9339 9.85123 28.3302 9.85 35ZM17.8358 17.8358C22.3881 13.2835 28.5621 10.7256 35 10.7247C48.385 10.7247 59.2753 21.615 59.2753 35C59.2753 48.385 48.385 59.2753 35 59.2753C21.615 59.2753 10.7247 48.385 10.7247 35C10.7256 28.5621 13.2835 22.3881 17.8358 17.8358Z" fill="#70AD4D" stroke="#70AD4D" stroke-width="0.3"/>
<path d="M44.1539 25.8064H44.5161L44.26 25.5503L39.8956 21.1859L39.6396 20.9299V21.292V24.6644C39.6396 24.8509 39.6757 25.0723 39.8031 25.2742C39.9177 25.4559 40.0994 25.6108 40.3694 25.7107V25.8064H40.5194H44.1539ZM40.7877 25.0394L40.7878 25.039L40.7767 25.0365C40.6501 25.0078 40.5597 24.9754 40.4998 24.9242C40.449 24.8808 40.4051 24.8108 40.4051 24.6644V22.7649L42.683 25.0466H40.811L40.7877 25.0394Z" fill="#70AD4D" stroke="#70AD4D" stroke-width="0.3"/>
<path d="M26.0924 50.2006H26.0931H42.3874V50.0506L42.3876 50.2006C42.824 50.1999 43.2424 50.0266 43.5513 49.7183C43.8602 49.4101 44.0346 48.9922 44.0362 48.5558V48.5552V26.6517V26.5017H43.8862H43.7489V26.3644V26.2144H43.5989H39.6484C39.5442 26.2141 39.4444 26.1726 39.3708 26.0988C39.2971 26.025 39.2558 25.925 39.2558 25.8207V22.4138V22.2638H39.1058L26.0931 22.2638L26.0924 22.2638C25.6572 22.2658 25.2403 22.4396 24.9325 22.7474C24.6247 23.0552 24.4509 23.4721 24.4489 23.9074H24.4489V23.9081L24.4489 48.5563L24.4489 48.557C24.4509 48.9923 24.6247 49.4092 24.9325 49.717C25.2403 50.0248 25.6572 50.1986 26.0924 50.2006ZM39.6434 27.0845H39.6437H43.1569V48.5502C43.1552 48.7539 43.0736 48.9487 42.9295 49.0928C42.7855 49.2368 42.5907 49.3184 42.387 49.3201H26.0935C25.8899 49.3184 25.695 49.2368 25.551 49.0928C25.4069 48.9487 25.3252 48.7538 25.3236 48.55V23.9085C25.325 23.7048 25.4065 23.5097 25.5506 23.3656C25.6948 23.2215 25.8898 23.1399 26.0936 23.1385H38.3765V25.8161V25.8163C38.3768 26.1523 38.5103 26.4745 38.7478 26.7122C38.9853 26.9499 39.3074 27.0838 39.6434 27.0845Z" fill="#70AD4D" stroke="#70AD4D" stroke-width="0.3"/>
<path d="M18.9097 53.7445L18.8125 53.8587L18.9267 53.956L19.3642 54.3286L19.4784 54.4259L19.5757 54.3117L51.6156 16.6915L51.7129 16.5773L51.5987 16.48L51.1611 16.1074L51.0469 16.0101L50.9497 16.1243L18.9097 53.7445Z" fill="#70AD4D" stroke="#70AD4D" stroke-width="0.3"/>
<path d="M27.3794 29.319H27.2294V29.469V30.0437V30.1937H27.3794H41.8093H41.9593V30.0437V29.469V29.319H41.8093H27.3794Z" fill="#70AD4D" stroke="#70AD4D" stroke-width="0.3"/>
<path d="M27.3794 32.9247H27.2294V33.0747V33.6494V33.7994H27.3794H38.6874H38.8374V33.6494V33.0747V32.9247H38.6874H27.3794Z" fill="#70AD4D" stroke="#70AD4D" stroke-width="0.3"/>
<path d="M28.4448 37.0211H28.2948V37.1711V37.7459V37.8959H28.4448H41.3092H41.4592V37.7459V37.1711V37.0211H41.3092H28.4448Z" fill="#70AD4D" stroke="#70AD4D" stroke-width="0.3"/>
<path d="M27.3794 41.528H27.2294V41.678V42.2527V42.4027H27.3794H42.2104H42.3604V42.2527V41.678V41.528H42.2104H27.3794Z" fill="#70AD4D" stroke="#70AD4D" stroke-width="0.3"/>
</svg>
