<svg width="90" height="90" viewBox="0 0 90 90" fill="none" xmlns="http://www.w3.org/2000/svg">
<g clip-path="url(#clip0_219_1161)">
<path d="M1.60105 39.6131C1.76523 39.6134 1.92747 39.5776 2.07634 39.5084C2.22522 39.4392 2.35711 39.3381 2.46273 39.2125C2.56835 39.0868 2.64513 38.9394 2.68766 38.7809C2.7302 38.6223 2.73746 38.4563 2.70893 38.2946C1.64358 32.2294 2.42489 25.984 4.95154 20.3682C7.4782 14.7523 11.6337 10.025 16.8792 6.79915C22.1247 3.57329 28.2184 1.99765 34.3701 2.27652C40.5219 2.55538 46.448 4.67589 51.3802 8.36312L47.6233 12.1302C47.4196 12.3318 47.3005 12.6035 47.2903 12.8899C47.2801 13.1763 47.3796 13.4558 47.5685 13.6713C47.6794 13.7925 47.8151 13.8882 47.9664 13.9521C48.1178 14.0159 48.2811 14.0463 48.4452 14.0412H57.9675C58.1158 14.0414 58.2627 14.0124 58.3998 13.9558C58.5369 13.8992 58.6615 13.8161 58.7665 13.7113C58.8715 13.6065 58.9547 13.482 59.0116 13.345C59.0684 13.208 59.0976 13.0611 59.0976 12.9128V3.39566C59.1002 3.23041 59.0672 3.06655 59.0007 2.91525C58.9342 2.76395 58.8358 2.62877 58.7123 2.51895C58.4972 2.33295 58.2196 2.23523 57.9353 2.24539C57.6511 2.25556 57.3812 2.37285 57.1798 2.57374L52.9932 6.76038C47.7178 2.73319 41.3501 0.391251 34.7226 0.0406841C28.095 -0.309883 21.5158 1.34723 15.845 4.79543C10.1742 8.24362 5.67567 13.3225 2.93736 19.3681C0.19906 25.4137 -0.651592 32.1448 0.496598 38.6816C0.542032 38.9418 0.677591 39.1778 0.879525 39.3481C1.08146 39.5184 1.33689 39.6122 1.60105 39.6131V39.6131Z" fill="#70AD4D"/>
<path d="M64.065 42.1816C62.6862 47.4077 59.9537 52.1777 56.1429 56.0106C52.3322 59.8435 47.5782 62.6037 42.3602 64.0128C37.1423 65.4219 31.645 65.4301 26.4229 64.0366C21.2008 62.643 16.4385 59.897 12.6164 56.0755C12.4897 55.9487 12.3647 55.8169 12.2397 55.6885V55.6799L16.0958 51.8169C16.2965 51.6153 16.4135 51.3453 16.4233 51.0611C16.4331 50.7768 16.3351 50.4993 16.1489 50.2844C16.0394 50.1604 15.9043 50.0618 15.7529 49.9952C15.6016 49.9287 15.4375 49.8959 15.2722 49.8991H5.75507C5.60659 49.8986 5.45949 49.9275 5.32219 49.984C5.18488 50.0405 5.06008 50.1236 4.95494 50.2284C4.84979 50.3332 4.76636 50.4578 4.70944 50.5949C4.65252 50.732 4.62322 50.879 4.62322 51.0275V60.5498C4.62036 60.7153 4.65331 60.8795 4.7198 61.0311C4.7863 61.1827 4.88478 61.3182 5.00849 61.4282C5.2242 61.6167 5.50361 61.7159 5.78988 61.7057C6.07616 61.6956 6.34781 61.5767 6.54959 61.3734L10.6472 57.2758H10.6558C10.7808 57.4059 10.9058 57.5361 11.0342 57.6628C17.0792 63.7075 25.2357 67.168 33.7832 67.3143C42.3307 67.4606 50.6009 64.2813 56.8493 58.447H56.8578L67.4743 69.0635L69.0565 67.483V67.4744L58.44 56.8666C58.44 56.8666 58.44 56.8666 58.44 56.858C62.2329 52.8002 64.9392 47.8499 66.3075 42.4666C67.6759 37.0834 67.6619 31.4416 66.2671 26.0652C66.1926 25.7766 66.0065 25.5294 65.7498 25.378C65.493 25.2266 65.1867 25.1833 64.8981 25.2578C64.6095 25.3323 64.3623 25.5184 64.2108 25.7751C64.0594 26.0319 64.0162 26.3382 64.0907 26.6268C65.406 31.7297 65.3953 37.084 64.0599 42.1816H64.065Z" fill="#70AD4D"/>
<path d="M78.6678 88.1353C79.862 89.3293 81.4816 90.0001 83.1704 90.0001C84.8591 90.0001 86.4787 89.3293 87.6729 88.1353L88.0154 87.7928C89.2082 86.5979 89.8781 84.9786 89.8781 83.2902C89.8781 81.6019 89.2082 79.9826 88.0154 78.7877L73.7294 64.5017L64.3835 73.8408L78.6678 88.1353Z" fill="#70AD4D"/>
<path d="M33.7895 56.2945C38.9702 56.291 43.9895 54.4913 47.9921 51.202C51.9947 47.9128 54.733 43.3375 55.7405 38.2556C56.748 33.1738 55.9624 27.8998 53.5174 23.3323C51.0725 18.7648 47.1195 15.1863 42.332 13.2065C37.5444 11.2267 32.2185 10.9681 27.2617 12.4747C22.3049 13.9814 18.0238 17.1601 15.1478 21.4692C12.2719 25.7784 10.9789 30.9514 11.4894 36.107C11.9998 41.2625 14.2819 46.0816 17.947 49.7432C20.0279 51.8224 22.498 53.4712 25.2164 54.5953C27.9347 55.7194 30.8479 56.2968 33.7895 56.2945V56.2945ZM33.7895 34.9247C32.4236 34.9244 31.1063 34.4177 30.0923 33.5027C29.0782 32.5876 28.4393 31.3291 28.2992 29.9705C28.1591 28.6118 28.5276 27.2494 29.3336 26.1466C30.1396 25.0439 31.3257 24.279 32.6628 24C32.6628 24 32.6628 24 32.6628 24V22.649C32.6579 22.3497 32.7692 22.0602 32.9732 21.8411C33.1772 21.6221 33.4581 21.4906 33.757 21.4743C33.9071 21.4702 34.0564 21.4962 34.1963 21.5508C34.3362 21.6054 34.4637 21.6875 34.5713 21.7922C34.6788 21.8969 34.7644 22.0222 34.8227 22.1605C34.8811 22.2988 34.9111 22.4475 34.9111 22.5976V24C36.1519 24.2604 37.2655 24.9395 38.0652 25.9234C38.8649 26.9073 39.302 28.1362 39.3032 29.4041C39.3032 29.5654 39.2684 29.7247 39.2014 29.8713C39.1343 30.018 39.0364 30.1484 38.9144 30.2539C38.7924 30.3593 38.6491 30.4372 38.4943 30.4824C38.3395 30.5275 38.1768 30.5388 38.0172 30.5154C37.7451 30.4671 37.4989 30.3237 37.3226 30.1108C37.1464 29.8978 37.0515 29.6291 37.0549 29.3527C37.0441 28.7084 36.8432 28.0816 36.4774 27.5511C36.1116 27.0205 35.5972 26.6099 34.9988 26.3706C34.4005 26.1314 33.7447 26.0743 33.114 26.2065C32.4833 26.3387 31.9057 26.6543 31.4537 27.1136C31.0017 27.5729 30.6954 28.1555 30.5734 28.7883C30.4514 29.4211 30.5191 30.0758 30.7679 30.6703C31.0167 31.2647 31.4356 31.7724 31.9719 32.1296C32.5083 32.4869 33.1382 32.6776 33.7827 32.6781C35.1473 32.6799 36.4628 33.1872 37.4755 34.1019C38.4882 35.0166 39.1262 36.2739 39.2664 37.6313C39.4066 38.9887 39.0391 40.3499 38.2349 41.4524C37.4306 42.5548 36.2465 43.3202 34.9111 43.601V43.601V45.1524C34.9155 45.452 34.804 45.7417 34.5997 45.961C34.3955 46.1802 34.1144 46.312 33.8152 46.3288C33.6652 46.3327 33.516 46.3065 33.3764 46.2518C33.2367 46.1971 33.1094 46.1149 33.002 46.0102C32.8946 45.9055 32.8093 45.7804 32.751 45.6422C32.6927 45.504 32.6627 45.3555 32.6628 45.2055V43.601C31.4215 43.3413 30.3073 42.6624 29.5072 41.6784C28.7072 40.6944 28.27 39.4651 28.269 38.1969C28.2803 37.9064 28.4037 37.6315 28.6133 37.4299C28.8229 37.2284 29.1023 37.1158 29.3931 37.1158C29.6839 37.1158 29.9633 37.2284 30.1729 37.4299C30.3825 37.6315 30.5059 37.9064 30.5172 38.1969C30.5185 39.0591 30.8595 39.886 31.4662 40.4985C32.073 41.111 32.8966 41.4597 33.7587 41.4692H33.8203C34.6882 41.4651 35.5189 41.1164 36.1296 40.4999C36.7404 39.8833 37.0813 39.0494 37.0772 38.1815C37.0731 37.3136 36.7244 36.483 36.1079 35.8722C35.4913 35.2614 34.6574 34.9206 33.7895 34.9247V34.9247Z" fill="#42505C"/>
</g>
<defs>
<clipPath id="clip0_219_1161">
<rect width="89.8853" height="90" fill="white"/>
</clipPath>
</defs>
</svg>
