<svg width="80" height="80" viewBox="0 0 80 80" fill="none" xmlns="http://www.w3.org/2000/svg">
<path d="M63.4014 26.6138C63.4066 28.7272 62.7094 30.7824 61.4192 32.4564C61.2856 32.6419 61.1371 32.8127 60.9887 32.9834C59.4983 34.6684 57.4643 35.7774 55.2406 36.1174C53.017 36.4574 50.7445 36.0069 48.8188 34.8443C46.893 33.6817 45.4359 31.8806 44.701 29.7546C43.9662 27.6285 44.0001 25.3121 44.797 23.2084C45.5938 21.1048 47.103 19.3472 49.062 18.2415C51.021 17.1358 53.3057 16.7521 55.5185 17.1571C57.7312 17.5621 59.7318 18.7303 61.1722 20.4581C62.6125 22.186 63.4014 24.3643 63.4014 26.6138Z" fill="#E9EAEC" stroke="#4A4A4A" stroke-miterlimit="10"/>
<path d="M47.4927 25.4111L51.4867 30.2069L59.9648 22.6123" stroke="#4A4A4A" stroke-miterlimit="10" stroke-linecap="round"/>
<path d="M9 30.0221C9.12774 29.7027 9.3566 29.434 9.65156 29.257C9.94652 29.08 10.2913 29.0045 10.6333 29.0421C14.1052 28.9786 17.5633 29.4981 20.8633 30.5789C21.2193 30.6646 21.5528 30.8251 21.8418 31.0498C22.1308 31.2746 22.3685 31.5583 22.5392 31.8822C22.7099 32.206 22.8096 32.5625 22.8317 32.9279C22.8538 33.2933 22.7978 33.6592 22.6673 34.0013C20.8114 40.5689 18.9505 47.1316 17.0846 53.6894C17.0641 53.8723 17.0063 54.049 16.9147 54.2086C16.8231 54.3683 16.6997 54.5074 16.5522 54.6174C16.4046 54.7273 16.236 54.8058 16.0569 54.848C15.8777 54.8901 15.6919 54.895 15.5107 54.8624C13.6548 54.8624 11.7988 54.8624 9.95026 54.8624C9.61633 54.8036 9.29493 54.6881 9 54.5209V30.0221Z" fill="#E9EAEC" stroke="#4A4A4A" stroke-miterlimit="10"/>
<path d="M26.7501 33.7934C29.3564 33.9257 31.9137 34.5531 34.2853 35.642C35.2715 36.1006 36.2263 36.6239 37.1435 37.2084C38.2331 37.8519 39.4436 38.2638 40.6996 38.4185C42.6542 38.7602 44.5876 39.2138 46.4902 39.7771C47.4353 40.1139 48.3127 40.6167 49.0811 41.2618C49.5113 41.6036 49.847 42.0497 50.0562 42.5578C50.2654 43.0658 50.3412 43.619 50.2764 44.1646C50.2914 44.6516 50.1573 45.1316 49.8919 45.5403C49.6265 45.9489 49.2426 46.2667 48.7916 46.4511C47.9547 46.7906 47.0711 47.0009 46.171 47.0747C43.3472 47.1508 40.5232 46.9318 37.7449 46.4214C36.6461 46.2655 35.5548 46.0799 34.3893 45.8943C34.4374 45.9638 34.4921 46.0284 34.5526 46.0873C37.3091 47.8922 40.4028 49.1195 43.6468 49.6953C45.402 49.9413 47.1909 49.7343 48.8435 49.094C51.9393 47.9359 54.9757 46.6367 58.064 45.486C60.1353 44.7436 62.2436 44.0012 64.3743 43.4296C65.9163 43.025 67.5546 43.2242 68.9548 43.9864C69.4513 44.2178 69.8877 44.5606 70.2302 44.988C70.5726 45.4155 70.812 45.9161 70.9296 46.4511C71.0191 46.7317 71.0231 47.0326 70.9411 47.3155C70.8592 47.5984 70.6949 47.8505 70.4693 48.0398C69.6533 48.7742 68.7876 49.4514 67.8784 50.0665C61.2492 54.2417 54.043 57.4209 46.4902 59.5023C43.5575 60.2386 40.481 60.1745 37.5815 59.3167C32.0578 57.7266 26.6706 55.6958 21.4717 53.244C21.4058 53.1998 21.3437 53.1501 21.2861 53.0955L26.7501 33.7934Z" stroke="#4A4A4A" stroke-linecap="round" stroke-linejoin="round"/>
</svg>
