<svg width="70" height="70" viewBox="0 0 70 70" fill="none" xmlns="http://www.w3.org/2000/svg">
<path d="M57.093 60.1061L57.1992 60.2122L57.3052 60.106L60.1061 57.3017L60.2121 57.1956L60.1061 57.0896L46.1942 43.1754C49.1525 39.5434 50.7753 35.0045 50.7884 30.3174V30.3169C50.7884 19.0316 41.6057 9.85 30.3192 9.85L29.9657 9.84998L29.9631 9.85002C18.8403 10.0414 9.85 19.148 9.85 30.3158C9.85 41.6023 19.0316 50.7839 30.3181 50.7839L30.3185 50.7839C35.0059 50.7702 39.545 49.1475 43.1777 46.1896L57.093 60.1061ZM43.3266 45.1121L43.2312 45.0173L43.1266 45.1019L42.924 45.2655L42.924 45.2655L42.9213 45.2677C39.3988 48.2529 34.9349 49.8977 30.3176 49.9118C19.5128 49.9115 10.7221 41.1218 10.7221 30.3158C10.7221 19.5096 19.5131 10.7187 30.3181 10.7198H30.456C41.1982 10.7939 49.915 19.555 49.9152 30.3142C49.9014 34.9315 48.2565 39.3955 45.2712 42.9179L45.2711 42.918L45.1006 43.1193L45.0114 43.2247L45.1091 43.3223L58.987 57.1957L57.1991 58.9846L43.5134 45.2978L43.5131 45.2975L43.3266 45.1121Z" fill="#70AD4D" stroke="#70AD4D" stroke-width="0.3"/>
<path d="M13.2392 30.1878C13.2392 20.9191 20.7395 13.3712 29.9872 13.2904V13.2931H30.1372C39.4583 13.2931 47.0353 20.8702 47.0353 30.1878C47.0353 39.5054 39.456 47.0858 30.1372 47.0858C20.8185 47.0858 13.2392 39.5065 13.2392 30.1878ZM12.3671 30.1878C12.3671 39.9869 20.3404 47.9579 30.1372 47.9579C39.9455 47.9579 47.9074 39.9868 47.9074 30.1878C47.9074 20.3887 39.9363 12.4176 30.1372 12.4176C20.3381 12.4176 12.3671 20.3887 12.3671 30.1878Z" fill="#70AD4D" stroke="#70AD4D" stroke-width="0.3"/>
<path d="M30.2107 39.9511V42.0345V42.1845H30.0607H29.5024H29.3524V42.0345V39.9109C28.4148 39.818 27.5075 39.5254 26.6916 39.0522M30.2107 39.9511L26.6914 39.0521C26.6915 39.0521 26.6915 39.0521 26.6916 39.0522M30.2107 39.9511H30.2563H30.2107ZM26.6916 39.0522C25.9103 38.6024 25.247 37.9733 24.7565 37.2169M26.6916 39.0522C26.6917 39.0522 26.6918 39.0523 26.6918 39.0523L24.7565 37.2169M24.7565 37.2169C24.3029 36.5209 24.0137 35.7309 23.9107 34.9066L23.8897 34.738H24.0596H24.6179H24.7468L24.7662 34.8654C24.8612 35.4893 25.0818 36.0874 25.4147 36.6235L25.4154 36.6246C25.8128 37.277 26.3502 37.8329 26.9886 38.2523L26.991 38.254C27.6359 38.6957 28.4215 38.9796 29.3524 39.1012V29.8678C28.3882 29.5944 27.4448 29.2523 26.5294 28.8442L26.5267 28.843L26.5268 28.843C25.7652 28.4856 25.1066 27.9411 24.6125 27.2604C24.0862 26.5475 23.8303 25.6058 23.8295 24.4499L23.8295 24.4498C23.8295 23.0533 24.3048 21.892 25.2578 20.9777C26.2153 20.059 27.5648 19.6099 29.2838 19.6099H29.357V17.2759V17.1259H29.507H30.0653H30.2153V17.2759V19.6587C31.6274 19.8258 32.7653 20.315 33.6168 21.1359C34.4845 21.9723 35.0353 22.9196 35.2612 23.9768L35.2999 24.1581H35.1145H34.5562H34.4391L34.4106 24.0446C34.2134 23.2572 33.7556 22.4936 33.026 21.7542C32.3431 21.0622 31.4093 20.6295 30.2119 20.4653V29.254C31.1761 29.5301 32.1175 29.8805 33.0277 30.3022L32.9646 30.4383L33.0305 30.3036C33.8023 30.6813 34.4653 31.2492 34.9569 31.9539C35.4821 32.6949 35.7374 33.6776 35.7382 34.8878L24.7565 37.2169ZM30.2107 30.1254V39.1579L30.2514 39.1579L30.2518 39.1579M30.2107 30.1254L30.2518 39.3079V39.1579M30.2107 30.1254C31.032 30.3688 31.8323 30.6784 32.6039 31.051C33.2572 31.3836 33.8163 31.8753 34.2298 32.4806L34.2305 32.4816C34.6553 33.0928 34.8741 33.8933 34.8741 34.8948C34.8734 36.1211 34.4784 37.1328 33.6926 37.9409L33.6913 37.94C32.9108 38.7402 31.7725 39.1533 30.2518 39.1579M30.2107 30.1254L30.2518 39.1579M33.3748 39.2049C34.1496 38.7604 34.7765 38.0979 35.1776 37.2997L35.1781 37.2987C35.5478 36.5489 35.7395 35.7239 35.7382 34.8879L33.3748 39.2049ZM29.2793 20.4121H29.3409V28.997C28.5141 28.7561 27.7058 28.4551 26.9227 28.0964C26.3452 27.8235 25.8385 27.4229 25.4404 26.9259L25.3114 26.7484C24.8958 26.1762 24.6818 25.416 24.6833 24.4546L24.6833 24.4545C24.6848 23.1662 25.1041 22.1813 25.9291 21.4794C26.7596 20.7727 27.8712 20.4121 29.2793 20.4121Z" fill="#70AD4D" stroke="#70AD4D" stroke-width="0.3"/>
<path d="M20.0799 44.3061L20.0003 44.4332L20.1274 44.5129L20.6122 44.8165L20.7394 44.8962L20.819 44.769L39.2035 15.4161L39.2831 15.289L39.156 15.2094L38.6712 14.9057L38.544 14.8261L38.4644 14.9532L20.0799 44.3061Z" fill="#70AD4D" stroke="#70AD4D" stroke-width="0.3"/>
</svg>
