<svg width="100" height="100" viewBox="0 0 100 100" fill="none" xmlns="http://www.w3.org/2000/svg">
<g clip-path="url(#clip0_250_2352)">
<path d="M92.3399 12.6733H7.66016V82.3267H92.3399V12.6733Z" stroke="#42505C" stroke-width="3" stroke-miterlimit="10"/>
<path d="M7.66016 23.8174H92.3399" stroke="#42505C" stroke-width="3" stroke-miterlimit="10"/>
<path d="M19.9515 18.2463H14.4895" stroke="#42505C" stroke-width="3" stroke-miterlimit="10"/>
<path d="M30.8792 18.2463H25.4153" stroke="#42505C" stroke-width="3" stroke-miterlimit="10"/>
<path d="M41.8052 18.2463H36.3413" stroke="#42505C" stroke-width="3" stroke-miterlimit="10"/>
<path d="M18.2266 50.6061C20.6158 49.412 25.8429 48.3682 32.2655 47.6222L47.2013 39.565L47.3505 39.4158C50.3375 37.9238 53.1755 37.7746 56.909 38.2217C59.1491 38.5195 61.3896 38.9677 63.7789 39.5645C68.707 40.7586 73.9347 42.6976 78.2662 44.7863H80.9544C83.4933 44.7863 85.435 45.8302 86.6296 47.6211C87.0778 48.3676 87.5259 49.4126 87.5259 50.457V58.5142C87.5259 60.0062 87.0778 61.0506 86.6302 61.9463C86.481 62.0955 86.3313 62.3944 86.1821 62.5431C84.9874 63.8859 83.195 64.3334 81.4025 64.3334C82.0004 61.6473 81.1036 58.8131 79.1625 56.7243C77.6689 55.2323 75.5775 54.3371 73.1883 54.3371C70.7991 54.3371 68.7077 55.2322 67.2141 56.7243C65.2724 58.6644 64.3762 61.4986 64.974 64.3334H37.792C38.3898 61.6473 37.4931 58.8131 35.5519 56.7243C34.0583 55.2323 31.9669 54.3371 29.5777 54.3371C27.1885 54.3371 25.0971 55.2322 23.6035 56.7243C21.6618 58.6644 20.7657 61.4986 21.3635 64.3334H20.617C17.9288 64.3334 16.7342 64.0355 16.1363 62.0955C15.2406 59.4094 13.0001 58.0671 13.0001 55.9784C13.0001 55.5302 13.1493 55.0832 13.4482 54.6356C14.3439 52.8441 16.8824 51.3522 18.2267 50.6062L18.2266 50.6061ZM40.1812 46.8757L71.8429 45.0854C72.1418 45.0854 72.1418 44.7875 71.992 44.6372C67.9595 42.8469 60.193 41.0565 56.3096 40.6088C53.7707 40.311 50.9334 40.758 48.9912 41.6527L40.0299 46.427C39.732 46.5778 39.8812 46.8757 40.1802 46.8757L40.1812 46.8757ZM29.5767 56.5741C32.8626 56.5741 35.5509 59.2602 35.5509 62.542C35.5509 65.8244 32.8628 68.51 29.428 68.51C26.2918 68.51 23.603 65.8238 23.603 62.6907C23.6025 59.4089 26.2917 56.5741 29.5767 56.5741V56.5741ZM26.2917 63.4372C26.5906 64.6313 27.6361 65.6751 28.8306 65.9736C31.0707 66.4217 33.1621 64.7795 33.1621 62.5415C33.1621 60.6014 31.6685 59.1094 29.7273 59.1094C27.4862 59.111 25.6937 61.1992 26.2917 63.4373V63.4372ZM73.3363 56.5741C76.6222 56.5741 79.3105 59.2602 79.3105 62.542C79.3105 65.8244 76.6224 68.51 73.1876 68.51C70.0514 68.51 67.3626 65.8238 67.3626 62.6907C67.2124 59.4089 69.9016 56.5741 73.3363 56.5741V56.5741ZM69.9016 63.4372C70.2005 64.6313 71.246 65.6751 72.4405 65.9736C74.6806 66.4217 76.772 64.7795 76.772 62.5415C76.772 60.6014 75.2784 59.1094 73.3372 59.1094C71.0961 59.111 69.3036 61.1992 69.9016 63.4373V63.4372Z" fill="#42505C"/>
</g>
<defs>
<clipPath id="clip0_250_2352">
<rect x="7" y="12" width="86" height="71" rx="2" fill="white"/>
</clipPath>
</defs>
</svg>
