<svg width="80" height="80" viewBox="0 0 80 80" fill="none" xmlns="http://www.w3.org/2000/svg">
<path d="M10.1921 56.928V63.056C10.1921 63.632 10.6561 64.088 11.2241 64.088H26.3601C26.9361 64.088 27.3921 63.624 27.3921 63.056V56.928" fill="#EBEBEB"/>
<path d="M66.176 26.568L66.52 27L64.288 30.496C64.088 30.84 63.688 31.072 63.288 31.072L16.624 31.128C16.192 31.128 15.792 30.896 15.592 30.552L13.728 27.424C13.84 27.256 13.896 27.168 13.896 27.168L20.944 17.744C21.4 17.144 22.088 16.8 22.832 16.8H56.688C57.752 16.8 58.752 17.288 59.408 18.12L66.176 26.576V26.568Z" fill="#E5E5E5"/>
<path d="M50.3281 56.928H10.6961C10.3761 56.928 10.0721 56.8 9.8401 56.576L7.6801 54.416C7.4561 54.192 7.3281 53.88 7.3281 53.56V39.456C7.3281 39.248 7.3841 39.048 7.4801 38.872L9.4881 35.264C9.8561 34.6 9.5361 33.776 8.8161 33.536L2.4241 31.408C1.9281 31.24 1.6001 30.784 1.6001 30.264V26.608C1.6001 25.944 2.1441 25.4 2.8081 25.4H11.8001C12.2241 25.4 12.6161 25.624 12.8321 25.984L15.5761 30.544C15.7921 30.904 16.1841 31.128 16.6081 31.128L63.2801 31.056C63.6961 31.056 64.0801 30.84 64.2961 30.496L67.1681 25.952C67.3921 25.6 67.7761 25.392 68.1841 25.392H76.0641C76.7281 25.392 77.2721 25.936 77.2721 26.6V31.392C77.2721 31.984 76.8401 32.488 76.2561 32.584L70.4321 33.528C69.4401 33.688 69.0481 34.936 69.8001 35.6C71.4001 37.008 73.2561 39.336 73.2561 42.6" stroke="#4A4A4A" stroke-linecap="round" stroke-linejoin="round"/>
<path d="M13.8882 27.168L20.9602 17.736C21.4002 17.144 22.0962 16.8 22.8402 16.8H56.7042C57.7602 16.8 58.7602 17.28 59.4162 18.104L66.1762 26.576" stroke="#4A4A4A" stroke-linecap="round" stroke-linejoin="round"/>
<path d="M12.3682 39.728L14.3922 41.752C14.9282 42.288 15.6642 42.592 16.4242 42.592H21.6642" stroke="#4A4A4A" stroke-linecap="round" stroke-linejoin="round"/>
<path d="M24.5281 48.328H49.0641" stroke="#4A4A4A" stroke-linecap="round" stroke-linejoin="round"/>
<path d="M10.1921 56.928V63.056C10.1921 63.632 10.6561 64.088 11.2241 64.088H26.3601C26.9361 64.088 27.3921 63.624 27.3921 63.056V56.928" stroke="#4A4A4A" stroke-linecap="round" stroke-linejoin="round"/>
<path d="M74.7041 54.288C74.7041 56.656 73.9121 58.84 72.5681 60.584C72.4161 60.776 72.2641 60.968 72.1041 61.152C70.2081 63.296 67.4321 64.648 64.3441 64.648C58.6241 64.648 53.9841 60.008 53.9841 54.288C53.9841 48.568 58.6241 43.928 64.3441 43.928C67.0641 43.928 69.5441 44.976 71.3921 46.696C73.4321 48.584 74.7041 51.288 74.7041 54.288V54.288Z" fill="#E9EAEC" stroke="#4A4A4A" stroke-miterlimit="10"/>
<path d="M57.5522 52.984L61.8642 58.16L70.9922 49.976" stroke="#4A4A4A" stroke-miterlimit="10" stroke-linecap="round"/>
</svg>
