<svg width="96" height="96" viewBox="0 0 96 96" fill="none" xmlns="http://www.w3.org/2000/svg">
<path d="M47.6165 1.96119C46.0172 1.96119 44.418 2.52095 43.2185 3.5605C40.1799 6.15937 35.742 11.1172 34.4626 12.1967C34.0228 12.6365 33.3831 12.9164 32.7434 12.9164H20.6291C18.71 12.9164 16.8308 13.6761 15.4715 15.0755C14.1121 16.4749 13.3524 18.2741 13.3125 20.2332V32.348C13.3125 32.9877 13.0726 33.6274 12.5928 34.1072L4.07678 42.5835C2.71741 43.9429 1.95776 45.8221 1.95776 47.7413C1.95776 49.6605 2.71741 51.4997 4.07678 52.899L12.6328 61.4553C13.0726 61.8951 13.3524 62.5349 13.3524 63.1746V75.2493C13.3524 77.1685 14.1121 79.0477 15.4715 80.4071C16.8308 81.7665 18.67 82.5262 20.6291 82.5262H32.7034C33.3831 82.5262 33.9828 82.806 34.4626 83.2459L43.0186 91.7621C44.378 93.1216 46.2171 93.8812 48.1762 93.8812C50.1353 93.8812 51.9744 93.1216 53.3338 91.7621L61.9298 83.2059C62.3696 82.7661 63.0093 82.4862 63.609 82.4862H75.7234C77.6425 82.4862 79.5216 81.7265 80.881 80.3671C82.2403 79.0077 83 77.1685 83 75.2093V63.1346C83 62.4949 83.2399 61.8951 83.7196 61.4153L92.2756 52.8591C93.635 51.4997 94.3947 49.6205 94.3947 47.7013C94.3947 45.7821 93.635 43.9429 92.2756 42.5435L83.7196 33.9873C83.2798 33.5475 83 32.9077 83 32.268V20.1533C83 18.2341 82.2403 16.3549 80.841 14.9955C79.4416 13.6361 77.6425 12.8764 75.6834 12.8365H63.569C62.9293 12.8365 62.2896 12.5966 61.8498 12.1168C60.2906 10.7574 56.6922 6.67914 53.8136 4.08027C52.2143 2.6409 50.1753 1.88123 48.0563 1.88123H47.6165V1.96119Z" stroke="#68A355" stroke-width="3" stroke-miterlimit="10"/>
<path d="M48.1362 79.2876C65.4477 79.2876 79.4815 65.2533 79.4815 47.9412C79.4815 30.6291 65.4477 16.5948 48.1362 16.5948C30.8246 16.5948 16.7908 30.6291 16.7908 47.9412C16.7908 65.2533 30.8246 79.2876 48.1362 79.2876Z" fill="#42505C"/>
<path d="M40.1399 33.7874C42.019 33.7874 43.4583 34.4671 44.4179 35.8664C45.3774 37.2658 45.8572 39.225 45.8572 41.7839C45.8572 44.3428 45.3774 46.3019 44.4579 47.7013C43.5383 49.1407 42.099 49.8204 40.1399 49.8204C38.3007 49.8204 36.9014 49.1007 35.9818 47.7013C35.0223 46.2619 34.5425 44.3028 34.5425 41.7839C34.5425 39.265 34.9823 37.2658 35.9018 35.8664C36.8214 34.4671 38.2208 33.7874 40.1399 33.7874V33.7874ZM40.1399 36.6661C39.3802 36.6661 38.8205 37.1059 38.4607 37.9455C38.1008 38.7852 37.9409 40.1046 37.9409 41.8239C37.9409 43.5431 38.1008 44.8226 38.4607 45.7022C38.8205 46.5818 39.3802 47.0216 40.1399 47.0216C40.8995 47.0216 41.4992 46.5818 41.8591 45.7422C42.2189 44.8625 42.4188 43.5831 42.4188 41.8638C42.4188 40.1446 42.2189 38.8651 41.8591 38.0255C41.4992 37.1859 40.8995 36.7461 40.1399 36.7461V36.6661ZM57.2919 34.1472L43.0985 59.6961H39.7401L53.9334 34.1472H57.2919ZM56.8121 44.0229C58.6912 44.0229 60.1306 44.7026 61.0901 46.102C62.0497 47.5014 62.5294 49.4605 62.5294 52.0194C62.5294 54.5783 62.0497 56.4975 61.1301 57.9369C60.2105 59.3762 58.7712 60.0559 56.7721 60.0559C54.933 60.0559 53.5336 59.3362 52.6141 57.9369C51.6545 56.4975 51.1747 54.5383 51.1747 52.0194C51.1747 49.5005 51.6145 47.5014 52.5341 46.102C53.4537 44.7026 54.853 44.0229 56.7721 44.0229H56.8121ZM56.8121 46.9017C56.0525 46.9017 55.4927 47.3415 55.1329 48.1811C54.7731 49.0207 54.6131 50.3402 54.6131 52.0594C54.6131 53.7787 54.7731 55.0581 55.1329 55.9377C55.4927 56.8173 56.0525 57.2572 56.8121 57.2572C57.5717 57.2572 58.1715 56.8173 58.5313 55.9777C58.8911 55.1381 59.091 53.8186 59.091 52.0994C59.091 50.3801 58.8911 49.1007 58.5313 48.2611C58.1715 47.4214 57.5717 46.9816 56.8121 46.9816V46.9017Z" fill="white"/>
</svg>
