<svg width="80" height="80" viewBox="0 0 80 80" fill="none" xmlns="http://www.w3.org/2000/svg">
<path d="M54.1231 67L10.6013 65.7898V33.1521L32.3622 31.942L54.1231 67Z" fill="#E9EAEC"/>
<path d="M61.8095 66.3986H12.5817C11.1515 66.3986 10 65.2397 10 63.8169V35.1324C10 33.7022 11.1588 32.5507 12.5817 32.5507H61.8095C63.2397 32.5507 64.3912 33.7096 64.3912 35.1324V63.8096C64.3912 65.2397 63.2324 66.3912 61.8095 66.3912V66.3986Z" stroke="#4A4A4A" stroke-miterlimit="10"/>
<path d="M68.0218 33.7609V30.2991C68.0218 28.8689 66.863 27.7174 65.4401 27.7174H16.2123C14.7821 27.7174 13.6306 28.8762 13.6306 30.2991V32.5507" stroke="#4A4A4A" stroke-miterlimit="10"/>
<path d="M62.9684 21.674H19.8353C18.4051 21.674 17.2537 22.8328 17.2537 24.2556V27.5781" stroke="#4A4A4A" stroke-miterlimit="10"/>
<path d="M63.3939 16.8333H23.466C22.0358 16.8333 20.8843 17.9921 20.8843 19.415V21.0359" stroke="#4A4A4A" stroke-miterlimit="10"/>
<path d="M69.2317 30.7392C69.2317 35.0224 67.7942 38.9756 65.3739 42.1294C65.1025 42.4814 64.8238 42.8261 64.5304 43.1562C61.098 47.0287 56.0813 49.4783 50.4999 49.4783C40.1512 49.4783 31.7607 41.0879 31.7607 30.7392C31.7607 20.3905 40.1439 12 50.4926 12C55.4139 12 59.8951 13.8996 63.2396 17.002C66.9214 20.4271 69.2317 25.3118 69.2317 30.7318V30.7392Z" fill="#E9EAEC" stroke="#4A4A4A" stroke-miterlimit="10"/>
<path d="M41.4275 54.3116H58.3551" stroke="#4A4A4A" stroke-miterlimit="10"/>
<path d="M41.4275 57.9348H58.3551" stroke="#4A4A4A" stroke-miterlimit="10"/>
<path d="M41.4275 61.5579H58.3551" stroke="#4A4A4A" stroke-miterlimit="10"/>
<path d="M22.0869 50.6812C25.4246 50.6812 28.1304 47.9754 28.1304 44.6377C28.1304 41.3 25.4246 38.5942 22.0869 38.5942C18.7492 38.5942 16.0435 41.3 16.0435 44.6377C16.0435 47.9754 18.7492 50.6812 22.0869 50.6812Z" stroke="#4A4A4A" stroke-miterlimit="10"/>
<path d="M57.145 21.674V28.9276C57.145 29.353 57.0937 29.749 56.991 30.1377H45.2194C45.1094 29.749 45.0654 29.353 45.0654 28.9276V21.674C45.0654 19.0116 47.2437 16.8406 49.8987 16.8406H52.3191C54.9814 16.8406 57.1524 19.0189 57.1524 21.674H57.145Z" stroke="#4A4A4A" stroke-width="0.75" stroke-miterlimit="10"/>
<path d="M56.9834 30.1304H58.3476V38.2788C58.3476 41.1172 56.0373 43.4275 53.1989 43.4275H48.989C46.1506 43.4275 43.8403 41.1172 43.8403 38.2788V30.1304H45.2045" stroke="#4A4A4A" stroke-width="0.75" stroke-miterlimit="10"/>
<path d="M52.2088 37.6041L52.9129 40.4058H49.2898L49.9939 37.6041C49.5685 37.274 49.2898 36.7606 49.2898 36.1812C49.2898 35.1764 50.0966 34.3696 51.1014 34.3696C52.1062 34.3696 52.9129 35.1764 52.9129 36.1812C52.9129 36.7606 52.6342 37.2814 52.2088 37.6041Z" fill="#4A4A4A"/>
<path d="M31.3428 62.1667H12.8311C13.0071 55.9545 17.085 50.9892 22.087 50.9892C27.0889 50.9892 31.1668 55.9472 31.3428 62.1667Z" stroke="#4A4A4A" stroke-width="0.75" stroke-miterlimit="10"/>
</svg>
