<svg xmlns="http://www.w3.org/2000/svg" xmlns:xlink="http://www.w3.org/1999/xlink" width="60" height="96" viewBox="0 0 60 96">
  <defs>
    <clipPath id="clip-path">
      <rect id="Rectangle_1" data-name="Rectangle 1" width="60" height="96" fill="#fff"/>
    </clipPath>
  </defs>
  <g id="pricetag" clip-path="url(#clip-path)">
    <path id="Path_1" data-name="Path 1" d="M10.354,91.294,4.8,56.192,0,32.248,10.2,18.209l4.99-.788L26.054,15.7l11-1.741L39.015,15.7l9.927,8.8,4.791,23.92L60,87.978l-6.267.991L39.081,91.29,11.058,95.729l-.7-4.439ZM31.795,21.181a2.53,2.53,0,1,0-2.533,2.532A2.529,2.529,0,0,0,31.795,21.181Z" fill="#828282"/>
    <path id="Path_2" data-name="Path 2" d="M4.791,27.813l10.4-10.4,1.724-1.724H43.76l9.972,12.119V91.294H4.795V27.813Zm21.938-6.636a2.53,2.53,0,1,0,2.528-2.528A2.529,2.529,0,0,0,26.729,21.177Z" fill="#70ad4d"/>
    <path id="Path_3" data-name="Path 3" d="M6.225,28.837,17.636,17.148H42.911L52.3,28.837V89.844H6.229V28.837Z" fill="none" stroke="#fff" stroke-miterlimit="10" stroke-width="0.71"/>
    <path id="Path_4" data-name="Path 4" d="M29.586,23.473C27.7,17.434,28.421,9.837,33.1,5.215a14.66,14.66,0,0,1,10.648-4A18.706,18.706,0,0,1,54.517,5.253a6.743,6.743,0,0,1,2.516,3.125,2.9,2.9,0,0,1-1.289,3.494,4.293,4.293,0,0,1-1.894.228l-5.5-.149c-1.832-.05-3.983.054-5.015,1.571s-.319,3.623.729,5.131a13.835,13.835,0,0,0,3.374,3.4A17.2,17.2,0,0,1,50.2,24.746" fill="none" stroke="#818181" stroke-miterlimit="10" stroke-width="1.5"/>
    <path id="Path_5" data-name="Path 5" d="M30.483,54.484q1.486.485,2.934,1.057a10.983,10.983,0,0,1,2.595,1.447,6.6,6.6,0,0,1,1.836,2.16,6.517,6.517,0,0,1,.659,3.212,9.721,9.721,0,0,1-.7,3.511,8.717,8.717,0,0,1-1.886,2.889,9.306,9.306,0,0,1-2.988,2,11.447,11.447,0,0,1-4.008.862l-.311,3.457a1.166,1.166,0,0,1-.344.742,1.047,1.047,0,0,1-.792.319l-1.492-.029.414-4.592A13.837,13.837,0,0,1,21.87,70.16a12.519,12.519,0,0,1-3.54-2.6l1.256-1.844a1.682,1.682,0,0,1,.464-.406,1.117,1.117,0,0,1,.605-.153,1.621,1.621,0,0,1,.916.39c.336.257.734.551,1.2.883a13.021,13.021,0,0,0,1.65.982,7.753,7.753,0,0,0,2.3.692l.957-10.532q-1.442-.46-2.843-1.036a9.53,9.53,0,0,1-2.5-1.5,6.818,6.818,0,0,1-1.761-2.28,7.428,7.428,0,0,1-.622-3.39,7.664,7.664,0,0,1,.655-2.972,7.8,7.8,0,0,1,1.8-2.557,9.047,9.047,0,0,1,2.872-1.815,10.759,10.759,0,0,1,3.879-.738l.257-2.9a1.145,1.145,0,0,1,.344-.742,1.047,1.047,0,0,1,.792-.319l1.492.025-.365,4.078a10.818,10.818,0,0,1,3.739,1.219,12.064,12.064,0,0,1,2.748,2.11l-1,1.475a1.234,1.234,0,0,1-1.028.667,1.453,1.453,0,0,1-.709-.261c-.282-.17-.613-.365-1.007-.589s-.837-.448-1.347-.676a7.9,7.9,0,0,0-1.712-.531l-.879,9.645Zm-1.65-9.732a7.83,7.83,0,0,0-2.259.477A5.124,5.124,0,0,0,25,46.174a3.654,3.654,0,0,0-.924,1.31,4.3,4.3,0,0,0-.319,1.55,3.655,3.655,0,0,0,1.2,2.889,6.138,6.138,0,0,0,1.372.949,16.844,16.844,0,0,0,1.7.754l.8-8.878Zm.406,23.41a6.191,6.191,0,0,0,3.987-1.617,5.036,5.036,0,0,0,1.434-3.61,3.615,3.615,0,0,0-.332-1.683A4.065,4.065,0,0,0,33.367,60a6.1,6.1,0,0,0-1.447-.928q-.833-.385-1.778-.717Z" fill="#818181"/>
    <path id="Path_6" data-name="Path 6" d="M32.141,54.07q1.486.485,2.934,1.057a10.98,10.98,0,0,1,2.595,1.447,6.6,6.6,0,0,1,1.836,2.159,6.518,6.518,0,0,1,.659,3.212,9.721,9.721,0,0,1-.7,3.511,8.719,8.719,0,0,1-1.886,2.889,9.309,9.309,0,0,1-2.988,2,11.45,11.45,0,0,1-4.008.862l-.311,3.457a1.166,1.166,0,0,1-.344.742,1.047,1.047,0,0,1-.792.319l-1.492-.029.414-4.592a13.837,13.837,0,0,1-4.534-1.355,12.52,12.52,0,0,1-3.54-2.6L21.244,65.3a1.682,1.682,0,0,1,.464-.406,1.117,1.117,0,0,1,.605-.153,1.621,1.621,0,0,1,.916.39c.336.257.734.551,1.2.883a13.034,13.034,0,0,0,1.65.982,7.715,7.715,0,0,0,2.3.692l.958-10.532q-1.442-.46-2.843-1.036a9.532,9.532,0,0,1-2.5-1.5,6.82,6.82,0,0,1-1.762-2.28,7.427,7.427,0,0,1-.622-3.39,7.661,7.661,0,0,1,.655-2.972,7.8,7.8,0,0,1,1.8-2.557,9.048,9.048,0,0,1,2.872-1.815,10.76,10.76,0,0,1,3.88-.738l.257-2.9a1.145,1.145,0,0,1,.344-.742,1.047,1.047,0,0,1,.792-.319l1.492.025-.365,4.079a10.818,10.818,0,0,1,3.739,1.219,12.064,12.064,0,0,1,2.748,2.11l-1,1.476a1.234,1.234,0,0,1-1.028.667,1.453,1.453,0,0,1-.709-.261c-.282-.17-.613-.365-1.007-.589s-.837-.448-1.347-.676a7.908,7.908,0,0,0-1.712-.53l-.879,9.645Zm-1.65-9.732a7.83,7.83,0,0,0-2.259.477,5.124,5.124,0,0,0-1.571.945,3.654,3.654,0,0,0-.924,1.31,4.3,4.3,0,0,0-.319,1.55,3.655,3.655,0,0,0,1.2,2.889,6.139,6.139,0,0,0,1.372.949,16.844,16.844,0,0,0,1.7.754l.8-8.878Zm.406,23.41a6.191,6.191,0,0,0,3.987-1.617,5.036,5.036,0,0,0,1.434-3.61,3.615,3.615,0,0,0-.332-1.683,4.065,4.065,0,0,0-.962-1.252,6.1,6.1,0,0,0-1.446-.928q-.833-.385-1.778-.717Z" fill="#fff"/>
  </g>
</svg>
