<svg width="60" height="63" viewBox="0 0 60 63" fill="none" xmlns="http://www.w3.org/2000/svg">
<g clip-path="url(#clip0_1222_55)">
<path d="M27.6326 22.2529C28.1217 22.0485 28.7029 21.9162 29.3764 21.8521L28.8793 28.7472C28.4063 28.5748 27.9653 28.3864 27.5524 28.186C27.1395 27.9815 26.7827 27.741 26.474 27.4684C26.1694 27.1958 25.9329 26.8751 25.7605 26.5143C25.5881 26.1495 25.5039 25.7246 25.5039 25.2435C25.5039 24.8226 25.5761 24.4217 25.7284 24.0369C25.8767 23.652 26.1092 23.3073 26.4259 23.0066C26.7426 22.7059 27.1435 22.4574 27.6326 22.2529V22.2529Z" fill="#FCA909"/>
<path d="M33.87 34.568C34.0584 34.9328 34.1506 35.3658 34.1506 35.8669C34.1506 37.0174 33.7978 37.9555 33.0922 38.6891C32.3827 39.4227 31.3604 39.8597 30.0215 40L30.5827 32.3792C31.0758 32.5396 31.5408 32.716 31.9738 32.9124C32.4067 33.1048 32.7836 33.3373 33.1083 33.6099C33.429 33.8825 33.6815 34.2032 33.87 34.568V34.568Z" fill="#FCA909"/>
<path d="M51.6332 31.7028C51.5542 31.5798 51.5542 31.4211 51.6332 31.2982L56.9415 23.0101C57.0678 22.8117 56.981 22.5459 56.7637 22.4586L47.6204 18.8918C47.4861 18.8363 47.3913 18.7093 47.3834 18.5625L46.8305 8.72311C46.8147 8.48903 46.5896 8.32239 46.3644 8.38587L36.8775 10.8933C36.7353 10.933 36.5853 10.8814 36.4944 10.7703L30.2896 3.13688C30.1395 2.95437 29.863 2.95437 29.713 3.13688L23.5082 10.7703C23.4134 10.8814 23.2633 10.933 23.125 10.8933L13.6381 8.38587C13.409 8.32239 13.1839 8.48903 13.1721 8.72311L12.6191 18.5625C12.6073 18.7093 12.5164 18.8363 12.3821 18.8918L3.23884 22.4586C3.01766 22.5459 2.93077 22.8117 3.06111 23.0101L8.36936 31.2982C8.4444 31.4211 8.4444 31.5798 8.36936 31.7028L3.06111 39.9909C2.93077 40.1893 3.01766 40.4551 3.23884 40.5385L12.3821 44.1092C12.5164 44.1608 12.6073 44.2917 12.6191 44.4345L13.1721 54.2739C13.1839 54.512 13.409 54.6746 13.6381 54.6151L23.125 52.1037C23.2633 52.068 23.4134 52.1156 23.5082 52.2307L29.713 59.8601C29.863 60.0466 30.1395 60.0466 30.2896 59.8601L36.4944 52.2307C36.5853 52.1156 36.7353 52.068 36.8775 52.1037L46.3644 54.6151C46.5896 54.6746 46.8147 54.512 46.8305 54.2739L47.3834 44.4345C47.3913 44.2917 47.4861 44.1608 47.6204 44.1092L56.7637 40.5385C56.981 40.4551 57.0678 40.1893 56.9415 39.9909L51.6332 31.7028ZM36.5418 38.1024C36.2179 38.9515 35.7519 39.6973 35.1397 40.344C34.5275 40.9907 33.7731 41.5184 32.8805 41.9191C31.9919 42.3238 30.9729 42.5619 29.8354 42.6373L29.6419 45.2915C29.634 45.5058 29.5471 45.6962 29.3891 45.8668C29.2311 46.0334 29.0297 46.1207 28.7888 46.1207H27.6473L27.9001 42.5896C26.6441 42.4508 25.4829 42.1254 24.4166 41.6097C23.3502 41.0939 22.4378 40.4472 21.6755 39.6616L22.6116 38.2294C22.7064 38.1024 22.8209 37.9953 22.9592 37.912C23.0974 37.8247 23.2514 37.785 23.4173 37.785C23.6306 37.785 23.8636 37.8802 24.1243 38.0707C24.381 38.2611 24.693 38.4793 25.0485 38.7293C25.4079 38.9792 25.8345 39.2252 26.3242 39.4633C26.8179 39.7013 27.4064 39.8679 28.0897 39.9632L28.6782 31.8655C27.9396 31.6433 27.2089 31.3894 26.4901 31.1077C25.7752 30.83 25.1275 30.457 24.5587 29.9968C23.99 29.5326 23.5279 28.9573 23.1803 28.271C22.8328 27.5806 22.659 26.7157 22.659 25.6762C22.659 24.8906 22.813 24.1289 23.1171 23.383C23.4252 22.6411 23.8715 21.9785 24.4561 21.3953C25.0406 20.8121 25.7673 20.336 26.6244 19.963C27.4854 19.594 28.4728 19.3877 29.5787 19.3441L29.7367 17.1144C29.7485 16.9041 29.8354 16.7136 29.9934 16.543C30.1514 16.3724 30.3488 16.2891 30.5937 16.2891H31.7352L31.514 19.4234C32.6199 19.5702 33.5796 19.8678 34.3853 20.3042C35.195 20.7446 35.9059 21.2763 36.5181 21.8873L35.7716 23.0339C35.5505 23.383 35.2937 23.5615 34.9975 23.5615C34.8474 23.5615 34.6657 23.4981 34.4485 23.3671C34.2352 23.2402 33.9746 23.0973 33.6744 22.9307C33.3742 22.768 33.0267 22.6014 32.6357 22.4308C32.2447 22.2602 31.8062 22.1332 31.3204 22.0499L30.7833 29.4612C31.5456 29.6953 32.296 29.9532 33.0425 30.2349C33.785 30.5166 34.4525 30.8736 35.0449 31.3101C35.6373 31.7425 36.1153 32.2861 36.4786 32.9407C36.842 33.5914 37.0237 34.4087 37.0237 35.3966C37.0237 36.3845 36.8617 37.2534 36.5418 38.1024Z" fill="#FCA909"/>
<path d="M54.5795 31.4332L59.6546 23.5478C60.0034 23.0026 60.0916 22.3371 59.8912 21.7198C59.6907 21.1024 59.2297 20.6133 58.6244 20.3808L49.8852 16.9814L49.352 7.62077C49.2878 6.48226 48.3458 5.5923 47.2073 5.5923C47.0229 5.5923 46.8385 5.61636 46.6621 5.66446L37.5941 8.05372L31.6611 0.789737C31.2522 0.288635 30.6428 0 29.9974 0C29.352 0 28.7427 0.288635 28.3297 0.789737L22.4007 8.05372L13.3328 5.66446C13.1524 5.61636 12.9679 5.5923 12.7835 5.5923C11.645 5.5923 10.703 6.48226 10.6388 7.62077L10.1097 16.9814L1.37044 20.3808C0.765104 20.6133 0.30409 21.1024 0.103649 21.7198C-0.0967922 22.3371 -0.00859821 23.0026 0.340169 23.5478L5.41533 31.4332L0.340169 39.3185C-0.00859821 39.8637 -0.0967922 40.5292 0.103649 41.1465C0.30409 41.7599 0.765104 42.2489 1.37044 42.4855L10.1097 45.8809L10.6388 55.2415C10.703 56.38 11.645 57.27 12.7835 57.27C12.9679 57.27 13.1524 57.2459 13.3328 57.2018L22.4007 54.8126L28.3297 62.0726C28.7427 62.5737 29.348 62.8623 29.9974 62.8623C30.6468 62.8623 31.2522 62.5737 31.6611 62.0726L37.5941 54.8126L46.6621 57.2018C46.8385 57.2459 47.0229 57.27 47.2073 57.27C48.3458 57.27 49.2878 56.38 49.352 55.2415L49.8852 45.8809L58.6244 42.4855C59.2297 42.2489 59.6907 41.7599 59.8912 41.1465C60.0916 40.5292 60.0034 39.8637 59.6546 39.3185L54.5795 31.4332V31.4332ZM57.983 40.8338L48.4059 44.554C48.2656 44.6101 48.1734 44.7384 48.1654 44.8868L47.5841 55.1413C47.5721 55.3458 47.4037 55.4981 47.2073 55.4981C47.1752 55.4981 47.1431 55.4941 47.1111 55.4861L37.1772 52.8683C37.1451 52.8603 37.1131 52.8563 37.081 52.8563C36.9687 52.8563 36.8605 52.9044 36.7883 52.9966L30.2901 60.9541C30.2139 61.0463 30.1057 61.0904 29.9974 61.0904C29.8892 61.0904 29.7809 61.0463 29.7048 60.9541L23.2065 52.9966C23.1343 52.9044 23.0261 52.8563 22.9138 52.8563C22.8818 52.8563 22.8497 52.8603 22.8176 52.8683L12.8798 55.4861C12.8477 55.4941 12.8156 55.4981 12.7835 55.4981C12.5911 55.4981 12.4187 55.3458 12.4107 55.1413L11.8294 44.8868C11.8174 44.7384 11.7252 44.6101 11.5889 44.554L2.01185 40.8338C1.79136 40.7456 1.70317 40.4771 1.83145 40.2766L7.39168 31.6376C7.47186 31.5133 7.47186 31.353 7.39168 31.2287L1.83145 22.5897C1.70317 22.3893 1.79136 22.1207 2.01185 22.0325L11.5889 18.3083C11.7252 18.2562 11.8174 18.1279 11.8294 17.9796L12.4107 7.72099C12.4187 7.51654 12.5911 7.3642 12.7835 7.3642C12.8156 7.3642 12.8477 7.36821 12.8798 7.38024L22.8176 9.99399C22.8497 10.006 22.8818 10.01 22.9138 10.01C23.0261 10.01 23.1343 9.95791 23.2065 9.86971L29.7048 1.91221C29.7809 1.82 29.8892 1.7719 29.9974 1.7719C30.1057 1.7719 30.2139 1.82 30.2901 1.91221L36.7883 9.86971C36.8605 9.95791 36.9687 10.01 37.081 10.01C37.1131 10.01 37.1451 10.006 37.1772 9.99399L47.1111 7.38024C47.1431 7.36821 47.1752 7.3642 47.2073 7.3642C47.4037 7.3642 47.5721 7.51654 47.5841 7.72099L48.1654 17.9796C48.1734 18.1279 48.2656 18.2562 48.4059 18.3083L57.983 22.0325C58.2035 22.1207 58.2917 22.3893 58.1634 22.5897L52.6031 31.2287C52.523 31.353 52.523 31.5133 52.6031 31.6376L58.1634 40.2766C58.2917 40.4771 58.2035 40.7456 57.983 40.8338V40.8338Z" fill="#FCA909"/>
</g>
<defs>
<clipPath id="clip0_1222_55">
<rect width="60" height="62.8623" fill="white"/>
</clipPath>
</defs>
</svg>
