<svg width="28" height="28" viewBox="0 0 28 28" fill="none" xmlns="http://www.w3.org/2000/svg">
<path d="M22.7705 20.1238V21.2075C22.7705 21.4558 22.9963 21.6364 23.2898 21.6364H25.6378C25.9313 21.6364 26.1571 21.4558 26.1571 21.2075V19.6045C25.7055 19.9432 25.0282 20.1238 23.8091 20.1238H22.7705Z" fill="#FCA909"/>
<path d="M26.8576 8.49639H25.3449C24.9836 8.49639 24.6901 8.78989 24.6901 9.15113V9.33175L23.9677 9.60267C23.471 8.27062 22.1389 6.1032 21.3713 5.71939C20.9197 5.49362 18.0976 5.35815 15.6818 5.35815C14.1014 5.35815 12.3404 5.42589 11.189 5.51619H11.2341L11.7308 6.14836C14.6659 5.94516 20.7843 6.01289 21.2133 6.37413C21.8003 6.84825 23.5161 9.96391 23.3355 10.438C23.1775 10.9122 15.6818 10.7315 15.6818 10.7315C15.6818 10.7315 12.4759 10.7541 11.2341 10.7541V11.0025L11.7082 12.6054L12.1372 13.6892L12.3178 13.9375H19.1813C19.9941 13.9375 20.1295 14.1859 20.1295 15.0212C20.1295 16.0823 19.7909 17.2789 18.8652 17.2789H13.8982L13.9885 17.7756L14.2369 19.5818H23.8774C25.3675 19.5818 25.6384 19.198 25.9093 18.5433C26.3157 17.595 26.248 14.818 26.0674 13.644C25.9996 13.057 25.4578 12.2442 24.9159 11.4992C24.7579 11.2734 24.6224 11.025 24.4644 10.8218L25.1417 10.3929C25.1417 10.3929 25.2997 10.3929 25.3449 10.3929H26.8576C27.2414 10.3929 27.5349 10.0994 27.5349 9.71556V9.12855C27.5349 8.76732 27.2414 8.47381 26.8576 8.47381V8.49639ZM25.2094 13.802V13.9375C25.0965 15.1341 23.9225 15.9695 22.2292 15.9695H21.9583C21.8003 15.9695 21.6422 15.9243 21.5293 15.8114C20.7617 15.0664 22.3873 12.8538 23.9451 12.6958C24.5998 12.628 25.1868 13.1247 25.2094 13.802V13.802Z" fill="#FCA909"/>
<path d="M13.7401 18.8821C13.6046 18.0468 13.4691 17.234 13.3111 16.4212C13.1756 15.6762 12.7692 15.1343 12.2274 14.7053C9.58586 12.7186 7.9603 12.4928 9.11174 12.9895C9.60844 13.5313 8.43442 15.9697 7.68937 17.392C7.37329 18.0016 7.10236 18.408 7.10236 18.408C7.10236 18.408 6.83144 18.0016 6.51536 17.392C5.74773 15.9923 4.59629 13.5313 5.09299 12.9895C4.95753 13.0572 4.82206 13.1024 4.6866 13.1701C3.73836 13.5991 2.81269 14.0732 1.97733 14.7053C1.43548 15.1117 1.02909 15.6762 0.893626 16.4212C0.735585 17.234 0.600122 18.0468 0.464659 18.8821C0.442081 19.0628 0.464659 19.2659 0.600122 19.4014C0.713008 19.5369 0.893626 19.6272 1.09682 19.6272H13.0853C13.2659 19.6272 13.4466 19.5369 13.582 19.4014C13.6949 19.2659 13.7626 19.0628 13.7175 18.8821H13.7401ZM11.4598 17.663H9.69874V17.3243H11.4598V17.663Z" fill="#2B2B2B"/>
<path d="M9.67627 17.3243H11.4373V17.663H9.67627V17.3243Z" fill="white"/>
<path d="M7.14744 16.3762L7.10228 16.331H7.05713V16.2859H7.10228L7.14744 16.2407C7.14744 16.2407 7.14744 16.331 7.17002 16.3762H7.14744Z" fill="black"/>
<path d="M7.68927 17.3919C7.35061 18.0015 7.10226 18.4079 7.07968 18.4079C7.05711 18.4079 6.80876 18.0015 6.49268 17.3919C6.49268 17.2113 6.51525 17.0307 6.53783 16.8501C6.60556 16.2631 6.62814 15.6761 6.67329 15.1116V14.9084H7.48607V15.1116C7.53123 15.6761 7.55381 16.2631 7.62154 16.8501L7.68927 17.3919Z" fill="#2B2B2B"/>
<path d="M7.62148 14.2989C7.55375 14.7052 7.5086 14.7278 7.05705 14.7278C6.60551 14.7278 6.56035 14.6827 6.49262 14.2989C6.44747 13.9828 6.49262 13.9376 6.89901 13.915H7.21509C7.62148 13.915 7.66664 13.9828 7.62148 14.2989V14.2989Z" fill="#2B2B2B"/>
<path d="M9.26963 10.6412L9.22448 10.709C9.22448 10.709 9.11159 10.867 9.02128 10.867C9.02128 10.867 8.97613 10.867 8.95355 10.867C8.9084 11.0251 8.84066 11.1831 8.79551 11.3411C8.79551 11.3863 8.77293 11.4089 8.75036 11.454C8.68262 11.6121 8.59231 11.7701 8.52458 11.9056C8.16335 12.5152 7.57634 12.8312 6.98933 12.8312C6.40232 12.8312 5.81532 12.5152 5.45408 11.9056C5.36377 11.7701 5.29604 11.6121 5.22831 11.454C5.22831 11.4089 5.20573 11.3863 5.18315 11.3411C5.138 11.1831 5.07027 11.0251 5.02511 10.867C5.02511 10.867 4.97996 10.867 4.95738 10.867C4.86707 10.867 4.79934 10.7993 4.75419 10.709L4.70903 10.6412C4.52841 10.28 4.41553 9.87362 4.41553 9.44465C4.41553 9.37692 4.4381 9.28661 4.48326 9.26403C4.57357 9.1963 4.57357 9.10599 4.55099 9.01568C4.55099 8.97053 4.55099 8.9028 4.52841 8.85764C4.21233 6.59992 6.58294 4.90663 8.27623 6.19353C8.38912 6.28384 8.50201 6.48703 8.61489 6.59992C8.68262 6.66765 8.72778 6.6225 8.79551 6.66765C8.79551 6.66765 8.86324 6.7128 8.9084 6.73538C9.22448 6.87085 9.35994 7.18693 9.42767 7.52559C9.51798 7.95455 9.47283 8.38352 9.42767 8.83506C9.42767 8.83506 9.42767 8.97053 9.40509 9.01568C9.38252 9.10599 9.35994 9.1963 9.47283 9.26403C9.51798 9.28661 9.54056 9.37692 9.54056 9.44465C9.54056 9.87362 9.45025 10.2574 9.24705 10.6412H9.26963Z" fill="#2B2B2B"/>
</svg>
