<svg width="30" height="30" fill="none" xmlns="http://www.w3.org/2000/svg">
    <circle cx="15" cy="15" r="14.5" fill="#fff" stroke="#8A8A8A"/>
    <path fill-rule="evenodd" clip-rule="evenodd" d="M9 7a2 2 0 0 0-2 2v7.333a2 2 0 0 0 2 2h8.148L20 22v-3.667h1a2 2 0 0 0 2-2V9a2 2 0 0 0-2-2H9Z" fill="#8A8A8A"/>
    <path d="m17.148 18.333.395-.307-.15-.193h-.245v.5ZM20 22l-.395.307.895 1.15V22H20Zm0-3.667v-.5h-.5v.5h.5ZM7.5 9A1.5 1.5 0 0 1 9 7.5v-1A2.5 2.5 0 0 0 6.5 9h1Zm0 7.333V9h-1v7.333h1Zm1.5 1.5a1.5 1.5 0 0 1-1.5-1.5h-1a2.5 2.5 0 0 0 2.5 2.5v-1Zm8.148 0H9v1h8.148v-1Zm3.247 3.86-2.852-3.667-.79.614 2.852 3.667.79-.614Zm-.895-3.36V22h1v-3.667h-1Zm1.5-.5h-1v1h1v-1Zm1.5-1.5a1.5 1.5 0 0 1-1.5 1.5v1a2.5 2.5 0 0 0 2.5-2.5h-1ZM22.5 9v7.333h1V9h-1ZM21 7.5A1.5 1.5 0 0 1 22.5 9h1A2.5 2.5 0 0 0 21 6.5v1Zm-12 0h12v-1H9v1Z" fill="#8A8A8A"/>
    <path d="M11.994 14.725c-.215 0-.395-.033-.54-.1a.82.82 0 0 1-.34-.295c-.081-.131-.14-.29-.175-.475a3.482 3.482 0 0 1-.053-.639v-.46h.744v.52c0 .276.024.476.07.597.048.12.14.181.279.181.094 0 .164-.021.21-.064a.355.355 0 0 0 .098-.211c.017-.098.026-.225.026-.38 0-.194-.041-.371-.123-.531a2.097 2.097 0 0 0-.366-.498l-.381-.393a2.864 2.864 0 0 1-.287-.348 1.673 1.673 0 0 1-.202-.41 1.665 1.665 0 0 1-.074-.51c0-.272.034-.501.1-.689a.784.784 0 0 1 .337-.425c.158-.097.375-.146.65-.146.207 0 .377.032.51.097.135.062.24.155.313.278.077.121.13.27.162.445.03.174.046.373.046.598v.32h-.723v-.37c0-.156-.009-.286-.027-.39a.445.445 0 0 0-.09-.231c-.045-.053-.11-.08-.197-.08a.33.33 0 0 0-.199.056.302.302 0 0 0-.111.167 1.07 1.07 0 0 0-.032.29c0 .108.013.2.04.279.028.078.07.153.127.226.056.072.127.153.21.243l.425.46c.204.218.362.446.475.682.113.236.17.5.17.791 0 .309-.033.569-.1.78a.874.874 0 0 1-.334.474c-.156.107-.369.161-.638.161Zm1.626-.058V9.51h.975l.733 3.768.688-3.768h.982v5.157h-.7v-1.922l.029-1.764-.695 3.662h-.624l-.723-3.662.029 1.764v1.922h-.694Zm5.094.058c-.214 0-.394-.033-.539-.1a.82.82 0 0 1-.34-.295c-.082-.131-.14-.29-.175-.475a3.482 3.482 0 0 1-.053-.639v-.46h.744v.52c0 .276.024.476.07.597.047.12.14.181.279.181.094 0 .164-.021.21-.064a.355.355 0 0 0 .097-.211c.018-.098.027-.225.027-.38 0-.194-.041-.371-.123-.531a2.097 2.097 0 0 0-.367-.498l-.38-.393a2.864 2.864 0 0 1-.288-.348 1.673 1.673 0 0 1-.202-.41 1.665 1.665 0 0 1-.073-.51c0-.272.033-.501.1-.689a.784.784 0 0 1 .337-.425c.158-.097.375-.146.65-.146.207 0 .377.032.51.097.134.062.239.155.313.278.076.121.13.27.161.445.032.174.047.373.047.598v.32h-.723v-.37c0-.156-.01-.286-.027-.39a.445.445 0 0 0-.09-.231c-.046-.053-.11-.08-.197-.08a.33.33 0 0 0-.2.056.302.302 0 0 0-.11.167 1.07 1.07 0 0 0-.033.29c0 .108.014.2.041.279.028.078.07.153.126.226.057.072.127.153.211.243l.425.46c.203.218.361.446.475.682.113.236.17.5.17.791 0 .309-.034.569-.1.78a.874.874 0 0 1-.334.474c-.156.107-.37.161-.639.161Z" fill="#fff"/>
</svg>