<svg width="100" height="100" viewBox="0 0 100 100" fill="none" xmlns="http://www.w3.org/2000/svg">
<g clip-path="url(#clip0_250_2342)">
<path d="M71.8678 88.1129V88.328H17.6687V22.2101L28.1531 11.6721H71.8678V40.0045" stroke="#42505C" stroke-width="3" stroke-linecap="round" stroke-linejoin="round"/>
<path d="M18 22H28V18" fill="#C4C4C4"/>
<path d="M18 22H28V18" stroke="#42505C" stroke-width="2" stroke-linecap="round" stroke-linejoin="round"/>
<path d="M47.2398 66.7872C57.3611 66.7872 65.566 58.5418 65.566 48.3706C65.566 38.1995 57.3611 29.9541 47.2398 29.9541C37.1185 29.9541 28.9136 38.1995 28.9136 48.3706C28.9136 58.5418 37.1185 66.7872 47.2398 66.7872Z" stroke="#42505C" stroke-width="3" stroke-linecap="round" stroke-linejoin="round"/>
<path d="M62.501 58.8139L61.2866 60.4954L65.9847 63.9218L67.199 62.2403L62.501 58.8139Z" fill="#42505C"/>
<path d="M66.3097 62.9891L66.3086 62.9907C65.041 64.7458 65.4293 67.2013 67.1759 68.4751L76.7947 75.4903C78.5413 76.7641 80.9848 76.3739 82.2523 74.6187L82.2535 74.6172C83.521 72.862 83.1327 70.4065 81.3861 69.1327L71.7673 62.1175C70.0207 60.8437 67.5773 61.2339 66.3097 62.9891Z" fill="#42505C"/>
<path d="M60.5388 48.3707C58.009 53.1501 53.0027 56.4048 47.2379 56.4048C41.4731 56.4048 36.4688 53.1501 33.939 48.3707C36.4688 43.5914 41.4751 40.3367 47.2379 40.3367C53.0008 40.3367 58.009 43.5914 60.5388 48.3707Z" fill="#42505C"/>
<path d="M47.2399 53.8107C50.2295 53.8107 52.6531 51.3752 52.6531 48.3708C52.6531 45.3664 50.2295 42.9309 47.2399 42.9309C44.2502 42.9309 41.8267 45.3664 41.8267 48.3708C41.8267 51.3752 44.2502 53.8107 47.2399 53.8107Z" fill="white"/>
<path d="M51.1435 48.3688C51.1435 50.4542 49.462 52.1459 47.3869 52.1459C45.3119 52.1459 43.6304 50.4561 43.6304 48.3688C43.6304 47.6545 43.8291 46.9844 44.1711 46.416C44.2132 47.0689 44.752 47.5816 45.4112 47.5816C46.0704 47.5816 46.6513 47.0228 46.6513 46.3334C46.6513 45.6844 46.1564 45.1487 45.5239 45.0911C46.0723 44.7742 46.7086 44.5938 47.3869 44.5938C49.462 44.5938 51.1435 46.2835 51.1435 48.3688V48.3688Z" fill="#42505C"/>
</g>
<defs>
<clipPath id="clip0_250_2342">
<rect width="66" height="78" fill="white" transform="translate(17 11)"/>
</clipPath>
</defs>
</svg>
