<svg width="100" height="100" viewBox="0 0 100 100" fill="none" xmlns="http://www.w3.org/2000/svg">
<path d="M50.5 47C40.2827 47 32 38.7173 32 28.5C32 18.2827 40.2827 10 50.5 10C60.7173 10 69 18.2827 69 28.5C69 38.7173 60.7173 47 50.5 47Z" stroke="#42505C" stroke-width="3" stroke-miterlimit="10"/>
<path d="M50.6609 25.1334C47.8652 25.1334 45.5987 22.8542 45.5987 20.0427C45.5987 17.2311 47.8652 14.9519 50.6609 14.9519C53.4567 14.9519 55.7231 17.2311 55.7231 20.0427C55.7231 22.8542 53.4567 25.1334 50.6609 25.1334Z" stroke="#42505C" stroke-width="2" stroke-miterlimit="10"/>
<path d="M28.5 90C18.2827 90 10 81.7173 10 71.5C10 61.2827 18.2827 53 28.5 53C38.7173 53 47 61.2827 47 71.5C47 81.7173 38.7173 90 28.5 90Z" stroke="#42505C" stroke-width="3" stroke-miterlimit="10"/>
<path d="M72.5 90C62.2827 90 54 81.7173 54 71.5C54 61.2827 62.2827 53 72.5 53C82.7173 53 91 61.2827 91 71.5C91 81.7173 82.7173 90 72.5 90Z" stroke="#42505C" stroke-width="3" stroke-miterlimit="10"/>
<path d="M41.0378 38.4922H60.2822C60.2822 33.1475 55.9738 28.8147 50.659 28.8147C45.3443 28.8147 41.0378 33.1475 41.0378 38.4922Z" stroke="#42505C" stroke-width="2" stroke-linecap="round" stroke-linejoin="round"/>
<path d="M28.6231 69.1815C25.8273 69.1815 23.5609 66.9023 23.5609 64.0908C23.5609 61.2792 25.8273 59 28.6231 59C31.4189 59 33.6853 61.2792 33.6853 64.0908C33.6853 66.9023 31.4189 69.1815 28.6231 69.1815Z" stroke="#42505C" stroke-width="2" stroke-miterlimit="10"/>
<path d="M18.9999 82.5383H38.2444C38.2444 77.1936 33.9359 72.8608 28.6212 72.8608C23.3065 72.8608 18.9999 77.1936 18.9999 82.5383V82.5383Z" stroke="#42505C" stroke-width="2" stroke-linecap="round" stroke-linejoin="round"/>
<path d="M72.6233 68.1815C69.8276 68.1815 67.5612 65.9023 67.5612 63.0908C67.5612 60.2792 69.8276 58 72.6233 58C75.4191 58 77.6855 60.2792 77.6855 63.0908C77.6855 65.9023 75.4191 68.1815 72.6233 68.1815Z" stroke="#42505C" stroke-width="2" stroke-miterlimit="10"/>
<path d="M62.9999 81.5383H82.2444C82.2444 76.1936 77.9359 71.8608 72.6212 71.8608C67.3065 71.8608 62.9999 76.1936 62.9999 81.5383Z" stroke="#42505C" stroke-width="2" stroke-linecap="round" stroke-linejoin="round"/>
<path d="M50.5723 47.0398H51.7637V55.6995H50.5723V47.0398Z" fill="#42505C"/>
<path d="M50.742 54.3679L51.4744 55.2556L43.5177 61.8939L42.7854 61.0061L50.742 54.3679Z" fill="#42505C"/>
<path d="M50.6638 55.0234L51.511 54.3167L58.0874 62.2884L57.2403 62.9951L50.6638 55.0234Z" fill="#42505C"/>
</svg>
