<svg width="1097" height="700" viewBox="0 0 1097 700" fill="none" xmlns="http://www.w3.org/2000/svg">
<g clip-path="url(#clip0_213_220)">
<path d="M652.759 709.999H951.582C951.582 709.999 1020.94 613.672 1072.68 537.988C1124.43 462.304 1088.08 343.5 1015.44 359.971C942.79 376.442 858.013 344.809 832.694 276.405C807.375 208.001 675.264 -107.944 458.95 57.1856C242.636 222.316 50.1573 58.2495 6.02931 231.899C-38.0987 405.548 174.099 538.365 185.229 593.344C196.359 648.322 43.9203 709.999 43.9203 709.999H652.759Z" fill="#EFF3FF"/>
<path d="M309.353 702H394C394 702 373.908 661.046 355.465 663.665C343.6 665.336 345.244 672.241 347.892 676.961C342.958 670.725 333.243 660.64 323.516 663.499C311.022 667.173 322.164 682.626 331.237 689.418C324.795 685.326 308.74 676.118 298.154 678.498C284.648 681.535 287.612 700.378 309.353 702Z" fill="#70AD4D"/>
<path d="M768.672 701H706C706 701 720.876 670.547 734.531 672.495C743.309 673.737 742.113 678.872 740.138 682.381C743.79 677.744 750.983 670.245 758.185 672.371C767.436 675.103 759.187 686.594 752.469 691.644C757.238 688.602 769.125 681.754 776.963 683.524C786.963 685.783 784.768 699.794 768.672 701Z" fill="#70AD4D"/>
<path d="M284.76 677.572H280.273V700H284.76V677.572Z" fill="#FFCB6E"/>
<path d="M269.388 677.572H264.901V700H269.388V677.572Z" fill="#FFCB6E"/>
<path d="M254.016 677.572H249.529V700H254.016V677.572Z" fill="#FFCB6E"/>
<path d="M257.992 655.137H253.505V677.565H257.992V655.137Z" fill="#FFCB6E"/>
<path d="M696.759 37.9609H380.66C369.062 37.9609 359.66 47.363 359.66 58.9609V679C359.66 690.598 369.062 700 380.66 700H696.759C708.357 700 717.759 690.598 717.759 679V58.9609C717.759 47.363 708.357 37.9609 696.759 37.9609Z" fill="#CDCDCD"/>
<path d="M706.167 76.7061V654.248C706.167 663.173 699.209 670.404 690.627 670.404H386.827C378.245 670.404 371.287 663.173 371.287 654.248V76.7061C371.287 67.7811 378.245 60.55 386.827 60.55H445.9C445.863 67.1101 448.373 73.4287 452.9 78.1761C455.083 80.4747 457.71 82.3063 460.622 83.5601C463.534 84.8138 466.67 85.4636 469.84 85.47H607.53C620.767 85.47 631.498 74.312 631.498 60.55H690.627C699.209 60.55 706.167 67.7811 706.167 76.7061Z" fill="white"/>
<path d="M604.947 75.0749C608.071 75.0749 610.603 72.5427 610.603 69.4189C610.603 66.2952 608.071 63.7629 604.947 63.7629C601.823 63.7629 599.291 66.2952 599.291 69.4189C599.291 72.5427 601.823 75.0749 604.947 75.0749Z" fill="#2F2F2F"/>
<path d="M469.952 72.5409C471.676 72.5409 473.074 71.1431 473.074 69.4189C473.074 67.6946 471.676 66.2969 469.952 66.2969C468.228 66.2969 466.83 67.6946 466.83 69.4189C466.83 71.1431 468.228 72.5409 469.952 72.5409Z" fill="#2F2F2F"/>
<path d="M585.214 66.2969H492.205C490.651 66.2969 489.391 67.5567 489.391 69.1109V69.7339C489.391 71.288 490.651 72.5479 492.205 72.5479H585.214C586.768 72.5479 588.028 71.288 588.028 69.7339V69.1109C588.028 67.5567 586.768 66.2969 585.214 66.2969Z" fill="#2F2F2F"/>
<path d="M610.26 659.414H467.173C466.137 659.414 465.297 660.254 465.297 661.29V661.297C465.297 662.333 466.137 663.173 467.173 663.173H610.26C611.296 663.173 612.136 662.333 612.136 661.297V661.29C612.136 660.254 611.296 659.414 610.26 659.414Z" fill="#D3DCFE"/>
<path d="M664.034 283.843H413.392C409.526 283.843 406.392 286.977 406.392 290.843V500.801C406.392 504.667 409.526 507.801 413.392 507.801H664.034C667.9 507.801 671.034 504.667 671.034 500.801V290.843C671.034 286.977 667.9 283.843 664.034 283.843Z" fill="#EFF3FF"/>
<path d="M445.697 308.623H443.737C438.873 308.623 434.931 312.566 434.931 317.429V464.499C434.931 469.362 438.873 473.305 443.737 473.305H445.697C450.56 473.305 454.503 469.362 454.503 464.499V317.429C454.503 312.566 450.56 308.623 445.697 308.623Z" fill="#D3DCFE"/>
<path d="M492.695 308.623H490.735C485.872 308.623 481.929 312.566 481.929 317.429V464.499C481.929 469.362 485.872 473.305 490.735 473.305H492.695C497.558 473.305 501.501 469.362 501.501 464.499V317.429C501.501 312.566 497.558 308.623 492.695 308.623Z" fill="#D3DCFE"/>
<path d="M539.693 308.623H537.733C532.87 308.623 528.927 312.566 528.927 317.429V464.499C528.927 469.362 532.87 473.305 537.733 473.305H539.693C544.556 473.305 548.499 469.362 548.499 464.499V317.429C548.499 312.566 544.556 308.623 539.693 308.623Z" fill="#D3DCFE"/>
<path d="M586.691 308.623H584.731C579.868 308.623 575.925 312.566 575.925 317.429V464.499C575.925 469.362 579.868 473.305 584.731 473.305H586.691C591.554 473.305 595.497 469.362 595.497 464.499V317.429C595.497 312.566 591.554 308.623 586.691 308.623Z" fill="#D3DCFE"/>
<path d="M633.696 308.623H631.736C626.873 308.623 622.93 312.566 622.93 317.429V464.499C622.93 469.362 626.873 473.305 631.736 473.305H633.696C638.56 473.305 642.502 469.362 642.502 464.499V317.429C642.502 312.566 638.56 308.623 633.696 308.623Z" fill="#D3DCFE"/>
<path d="M618.044 550.795H459.382C455.516 550.795 452.382 553.929 452.382 557.795V619.78C452.382 623.646 455.516 626.78 459.382 626.78H618.044C621.91 626.78 625.044 623.646 625.044 619.78V557.795C625.044 553.929 621.91 550.795 618.044 550.795Z" fill="#42505C"/>
<path d="M558.159 378.35C541.926 378.35 530.159 371.273 518.623 364.35C508.865 358.484 498.771 352.45 485.66 350.511C452.494 345.681 431.802 372.708 431.599 372.981C430.983 373.808 430.065 374.357 429.045 374.506C428.025 374.656 426.987 374.394 426.16 373.779C425.333 373.164 424.784 372.245 424.634 371.225C424.485 370.205 424.746 369.167 425.362 368.34C426.307 367.066 448.924 337.288 486.787 342.818C501.431 344.953 512.211 351.421 522.627 357.686C538.65 367.304 552.482 375.613 577.927 366.975C620.683 352.485 645.736 324.233 645.988 323.953C646.324 323.569 646.732 323.255 647.19 323.028C647.647 322.802 648.145 322.668 648.654 322.633C649.163 322.599 649.674 322.666 650.158 322.829C650.642 322.993 651.088 323.25 651.472 323.586C651.857 323.922 652.171 324.33 652.397 324.787C652.624 325.245 652.758 325.742 652.792 326.252C652.826 326.761 652.76 327.272 652.596 327.756C652.433 328.239 652.176 328.686 651.84 329.07C650.769 330.295 625.142 359.17 580.44 374.339C572.103 377.181 564.76 378.35 558.159 378.35Z" fill="#89A2AC"/>
<path d="M445.697 384.825H443.737C438.873 384.825 434.931 388.768 434.931 393.631V464.499C434.931 469.362 438.873 473.305 443.737 473.305H445.697C450.56 473.305 454.503 469.362 454.503 464.499V393.631C454.503 388.768 450.56 384.825 445.697 384.825Z" fill="#42505C"/>
<path d="M492.695 365.477H490.735C485.872 365.477 481.929 369.42 481.929 374.283V464.499C481.929 469.362 485.872 473.305 490.735 473.305H492.695C497.558 473.305 501.501 469.362 501.501 464.499V374.283C501.501 369.42 497.558 365.477 492.695 365.477Z" fill="#42505C"/>
<path d="M539.693 393.82H537.733C532.87 393.82 528.927 397.763 528.927 402.626V464.499C528.927 469.362 532.87 473.305 537.733 473.305H539.693C544.556 473.305 548.499 469.362 548.499 464.499V402.626C548.499 397.763 544.556 393.82 539.693 393.82Z" fill="#42505C"/>
<path d="M586.691 384.825H584.731C579.868 384.825 575.925 388.768 575.925 393.631V464.499C575.925 469.362 579.868 473.305 584.731 473.305H586.691C591.554 473.305 595.497 469.362 595.497 464.499V393.631C595.497 388.768 591.554 384.825 586.691 384.825Z" fill="#42505C"/>
<path d="M633.696 359.828H631.736C626.873 359.828 622.93 363.771 622.93 368.634V464.499C622.93 469.362 626.873 473.305 631.736 473.305H633.696C638.56 473.305 642.502 469.362 642.502 464.499V368.634C642.502 363.771 638.56 359.828 633.696 359.828Z" fill="#42505C"/>
<path d="M539.504 613.704C539.043 613.714 538.592 613.563 538.23 613.277C538.066 613.171 537.931 613.028 537.834 612.858C537.738 612.689 537.684 612.499 537.677 612.304V610.4C535.434 610.407 533.21 609.996 531.118 609.189C529.452 608.57 527.93 607.617 526.645 606.389C525.715 605.588 525.137 604.455 525.035 603.232C525.046 602.701 525.182 602.181 525.434 601.713C525.687 601.177 526.049 600.7 526.498 600.313C526.877 599.954 527.376 599.75 527.898 599.739C528.455 599.766 528.985 599.992 529.389 600.376C529.893 600.803 530.502 601.307 531.216 601.895C532.018 602.544 532.894 603.094 533.827 603.533C535.041 604.091 536.35 604.411 537.684 604.478V590.24C536.349 589.773 535.003 589.248 533.645 588.665C532.309 588.111 531.053 587.384 529.907 586.502C528.765 585.624 527.83 584.506 527.17 583.226C526.438 581.699 526.085 580.018 526.141 578.326C526.092 576.64 526.425 574.965 527.114 573.426C527.729 572.127 528.631 570.985 529.753 570.087C530.871 569.18 532.135 568.47 533.491 567.987C534.851 567.51 536.26 567.184 537.691 567.014V565.257C537.691 565.056 537.742 564.859 537.839 564.682C537.935 564.506 538.075 564.357 538.244 564.249C538.615 563.984 539.062 563.846 539.518 563.857C539.963 563.859 540.398 563.996 540.764 564.249C540.938 564.354 541.082 564.501 541.183 564.678C541.283 564.854 541.337 565.054 541.338 565.257V566.895C542.428 566.945 543.515 567.057 544.593 567.231C545.698 567.402 546.787 567.667 547.848 568.022C548.753 568.309 549.595 568.762 550.333 569.359C550.631 569.582 550.874 569.87 551.044 570.201C551.214 570.532 551.306 570.898 551.313 571.27C551.296 571.752 551.192 572.226 551.005 572.67C550.798 573.186 550.499 573.661 550.123 574.07C549.936 574.279 549.706 574.444 549.448 574.555C549.191 574.665 548.912 574.717 548.632 574.707C548.063 574.683 547.51 574.517 547.022 574.224C546.434 573.902 545.699 573.524 544.803 573.16C543.696 572.73 542.524 572.494 541.338 572.46V584.801C542.673 585.3 543.982 585.867 545.258 586.502C546.553 587.131 547.76 587.926 548.849 588.868C549.956 589.854 550.837 591.067 551.432 592.424C552.122 594.089 552.453 595.88 552.405 597.681C552.405 601.414 551.381 604.324 549.332 606.41C547.178 608.55 544.358 609.889 541.338 610.204V612.304C541.33 612.501 541.273 612.693 541.173 612.863C541.073 613.032 540.932 613.175 540.764 613.277C540.403 613.555 539.96 613.706 539.504 613.704ZM538.048 583.681V572.6C537.018 572.705 536.012 572.972 535.066 573.391C534.231 573.755 533.507 574.332 532.966 575.064C532.44 575.844 532.176 576.77 532.21 577.71C532.177 578.703 532.454 579.681 533.001 580.51C533.542 581.281 534.263 581.908 535.101 582.337C536.056 582.844 537.04 583.292 538.048 583.681ZM540.96 604.408C542.442 604.174 543.812 603.481 544.88 602.427C545.862 601.319 546.366 599.867 546.28 598.388C546.335 597.281 546.093 596.179 545.58 595.196C545.084 594.368 544.421 593.653 543.634 593.096C542.804 592.496 541.907 591.995 540.96 591.605V604.408Z" fill="#F4F4F4"/>
<path d="M484.211 613.704C483.75 613.713 483.3 613.562 482.937 613.277C482.775 613.17 482.641 613.026 482.546 612.857C482.451 612.687 482.398 612.498 482.391 612.304V610.4C480.146 610.407 477.92 609.996 475.825 609.189C474.161 608.57 472.641 607.617 471.359 606.389C470.427 605.59 469.848 604.455 469.749 603.232C469.757 602.702 469.892 602.181 470.141 601.713C470.396 601.179 470.759 600.702 471.205 600.313C471.584 599.954 472.083 599.75 472.605 599.739C473.16 599.767 473.687 599.993 474.089 600.376L475.916 601.895C476.719 602.542 477.595 603.092 478.527 603.533C479.744 604.09 481.055 604.41 482.391 604.478V590.24C481.056 589.773 479.708 589.248 478.345 588.665C477.01 588.111 475.753 587.384 474.607 586.502C473.466 585.625 472.533 584.507 471.877 583.226C471.14 581.701 470.784 580.019 470.841 578.326C470.792 576.64 471.125 574.965 471.814 573.426C472.429 572.125 473.334 570.983 474.46 570.087C475.578 569.18 476.842 568.47 478.198 567.987C479.558 567.508 480.966 567.182 482.398 567.014V565.257C482.398 565.057 482.448 564.86 482.543 564.684C482.639 564.508 482.776 564.358 482.944 564.249C483.316 563.987 483.763 563.849 484.218 563.857C484.664 563.858 485.098 563.995 485.464 564.249C485.639 564.353 485.784 564.501 485.886 564.677C485.988 564.854 486.043 565.053 486.045 565.257V566.895C487.133 566.945 488.218 567.057 489.293 567.231C490.398 567.402 491.487 567.667 492.548 568.022C493.454 568.31 494.299 568.763 495.04 569.359C495.336 569.583 495.577 569.872 495.746 570.203C495.915 570.534 496.006 570.899 496.013 571.27C495.996 571.751 495.892 572.226 495.705 572.67C495.498 573.186 495.199 573.661 494.823 574.07C494.638 574.279 494.409 574.444 494.152 574.554C493.896 574.664 493.618 574.717 493.339 574.707C492.77 574.685 492.216 574.519 491.729 574.224C491.141 573.902 490.399 573.524 489.51 573.16C488.403 572.732 487.231 572.495 486.045 572.46V584.801C487.38 585.301 488.688 585.868 489.965 586.502C491.258 587.131 492.463 587.926 493.549 588.868C494.658 589.852 495.539 591.065 496.132 592.424C496.825 594.088 497.157 595.88 497.105 597.681C497.105 601.414 496.083 604.324 494.039 606.41C491.885 608.55 489.065 609.889 486.045 610.204V612.304C486.035 612.501 485.977 612.693 485.875 612.863C485.774 613.032 485.633 613.174 485.464 613.277C485.106 613.555 484.665 613.705 484.211 613.704ZM482.755 583.681V572.6C481.726 572.707 480.72 572.974 479.773 573.391C478.937 573.752 478.212 574.329 477.673 575.064C477.142 575.842 476.874 576.769 476.91 577.71C476.877 578.703 477.154 579.681 477.701 580.51C478.244 581.279 478.964 581.906 479.801 582.337C480.758 582.844 481.744 583.293 482.755 583.681ZM485.674 604.408C487.155 604.172 488.526 603.48 489.594 602.427C490.576 601.319 491.08 599.867 490.994 598.388C491.045 597.281 490.804 596.18 490.294 595.196C489.794 594.372 489.132 593.657 488.348 593.096C487.518 592.497 486.62 591.997 485.674 591.605V604.408Z" fill="#F4F4F4"/>
<path d="M593.46 613.704C592.996 613.714 592.544 613.563 592.179 613.277C592.017 613.17 591.883 613.026 591.788 612.857C591.693 612.688 591.64 612.498 591.633 612.304V610.4C589.388 610.407 587.162 609.996 585.067 609.189C583.403 608.57 581.883 607.618 580.601 606.389C579.671 605.588 579.093 604.455 578.991 603.232C579.003 602.702 579.137 602.182 579.383 601.713C579.641 601.18 580.003 600.704 580.447 600.313C580.826 599.954 581.325 599.75 581.847 599.739C582.404 599.767 582.933 599.993 583.338 600.376L585.158 601.895C585.963 602.542 586.842 603.092 587.776 603.533C588.99 604.091 590.299 604.411 591.633 604.478V590.24C590.296 589.757 588.945 589.232 587.594 588.665C586.258 588.111 585.002 587.384 583.856 586.502C582.711 585.628 581.776 584.509 581.119 583.226C580.382 581.701 580.026 580.019 580.083 578.326C580.038 576.641 580.37 574.966 581.056 573.426C581.676 572.128 582.58 570.987 583.702 570.087C584.82 569.18 586.084 568.47 587.44 567.987C588.8 567.509 590.208 567.183 591.64 567.014V565.257C591.64 565.057 591.69 564.86 591.785 564.684C591.881 564.508 592.018 564.358 592.186 564.249C592.561 563.986 593.009 563.848 593.467 563.857C593.912 563.86 594.346 563.996 594.713 564.249C594.887 564.354 595.031 564.501 595.132 564.678C595.233 564.854 595.286 565.054 595.287 565.257V566.895C596.377 566.945 597.464 567.057 598.542 567.231C599.645 567.402 600.732 567.667 601.79 568.022C602.697 568.309 603.542 568.762 604.282 569.359C604.579 569.582 604.821 569.87 604.99 570.202C605.159 570.533 605.249 570.898 605.255 571.27C605.241 571.751 605.139 572.226 604.954 572.67C604.747 573.186 604.448 573.661 604.072 574.07C603.885 574.279 603.655 574.444 603.397 574.555C603.14 574.665 602.861 574.717 602.581 574.707C602.012 574.683 601.459 574.517 600.971 574.224C600.383 573.902 599.641 573.524 598.752 573.16C597.634 572.726 596.45 572.49 595.252 572.46V584.801C596.587 585.301 597.895 585.869 599.172 586.502C600.465 587.131 601.67 587.927 602.756 588.868C603.867 589.852 604.751 591.065 605.346 592.424C606.033 594.089 606.362 595.88 606.312 597.681C606.312 601.414 605.29 604.324 603.246 606.41C601.092 608.55 598.272 609.889 595.252 610.204V612.304C595.244 612.501 595.187 612.693 595.087 612.863C594.987 613.032 594.846 613.175 594.678 613.277C594.327 613.544 593.901 613.693 593.46 613.704ZM591.997 583.681V572.6C590.97 572.706 589.966 572.973 589.022 573.391C588.185 573.751 587.46 574.329 586.922 575.064C586.396 575.844 586.132 576.77 586.166 577.71C586.131 578.702 586.405 579.681 586.95 580.51C587.494 581.278 588.214 581.904 589.05 582.337C590.006 582.841 590.99 583.29 591.997 583.681ZM594.916 604.408C596.397 604.172 597.768 603.48 598.836 602.427C599.818 601.319 600.322 599.867 600.236 598.388C600.287 597.281 600.046 596.18 599.536 595.196C599.039 594.37 598.376 593.655 597.59 593.096C596.759 592.497 595.862 591.997 594.916 591.605V604.408Z" fill="#F4F4F4"/>
<path d="M457.492 249.851C485.714 249.851 508.592 226.973 508.592 198.751C508.592 170.529 485.714 147.651 457.492 147.651C429.27 147.651 406.392 170.529 406.392 198.751C406.392 226.973 429.27 249.851 457.492 249.851Z" fill="#81C3FC"/>
<path d="M461.181 198.751H511.98C512.486 198.753 512.986 198.858 513.449 199.061C513.913 199.263 514.33 199.558 514.675 199.928C515.02 200.298 515.286 200.735 515.455 201.211C515.625 201.688 515.695 202.194 515.662 202.699C514.703 216.761 508.681 230 498.713 239.965C488.744 249.93 475.503 255.946 461.44 256.9C460.935 256.936 460.428 256.867 459.95 256.698C459.473 256.529 459.035 256.263 458.665 255.918C458.295 255.572 457.999 255.155 457.797 254.69C457.596 254.226 457.492 253.724 457.492 253.218V202.44C457.492 201.462 457.881 200.523 458.572 199.831C459.264 199.14 460.203 198.751 461.181 198.751Z" fill="#D3DCFE"/>
<path d="M618.275 165.984H543.62C542.153 165.984 540.747 165.401 539.71 164.364C538.673 163.327 538.09 161.921 538.09 160.454C538.09 158.987 538.673 157.581 539.71 156.544C540.747 155.507 542.153 154.924 543.62 154.924H618.275C619.742 154.924 621.148 155.507 622.185 156.544C623.222 157.581 623.805 158.987 623.805 160.454C623.805 161.921 623.222 163.327 622.185 164.364C621.148 165.401 619.742 165.984 618.275 165.984Z" fill="#70AD4D"/>
<path d="M663.537 193.655H543.62C542.153 193.655 540.747 193.072 539.71 192.035C538.673 190.998 538.09 189.592 538.09 188.125C538.09 186.658 538.673 185.252 539.71 184.215C540.747 183.178 542.153 182.595 543.62 182.595H663.537C665.004 182.595 666.41 183.178 667.447 184.215C668.484 185.252 669.067 186.658 669.067 188.125C669.067 189.592 668.484 190.998 667.447 192.035C666.41 193.072 665.004 193.655 663.537 193.655Z" fill="#89A2AC"/>
<path d="M663.537 222.005H543.62C542.153 222.005 540.747 221.422 539.71 220.385C538.673 219.348 538.09 217.942 538.09 216.475C538.09 215.008 538.673 213.602 539.71 212.565C540.747 211.528 542.153 210.945 543.62 210.945H663.537C665.004 210.945 666.41 211.528 667.447 212.565C668.484 213.602 669.067 215.008 669.067 216.475C669.067 217.942 668.484 219.348 667.447 220.385C666.41 221.422 665.004 222.005 663.537 222.005Z" fill="#89A2AC"/>
<path d="M247.03 243.341L278.11 244.335L286.342 257.67L290.444 298.991L275.275 314.657L239.526 304.325L238.889 257.67L247.03 243.341Z" fill="#D3DCFE"/>
<path d="M281.953 673.253V651.259L250.782 659.26L252.455 671.755L256.949 684.586H278.11L281.953 673.253Z" fill="#F2B1A9"/>
<path d="M407.015 633.724L391.461 618.17L375.074 645.862L385.091 653.52L397.341 659.414L412.307 644.448L407.015 633.724Z" fill="#F2B1A9"/>
<path d="M224.777 429.191L250.782 659.26C250.782 659.26 274.778 668.255 283.773 659.26L280.777 534.8L283.773 404.327H225.806L224.777 429.191Z" fill="#1E1E1E"/>
<path d="M322.441 418.551L333.074 543.781L398.055 622.3C398.055 622.3 389.319 646.016 375.074 649.768L291.984 559.3C288.314 555.541 285.883 550.748 285.019 545.566L268.03 443.296V393.057L322.441 418.551Z" fill="#1E1E1E"/>
<path d="M245.462 269.829L268.03 305.823L288.274 269.633L302.624 343.315L304.773 412.804L283.276 426.055L268.03 407.309L254.275 426.055L234.122 417.305L245.462 269.829Z" fill="#D3DCFE"/>
<path d="M264.446 257.67L258.279 267.33L262.57 271.082L261.366 295.197L268.03 305.823L275.275 292.866L269.451 270.83L271.53 266.336L264.446 257.67Z" fill="#C65447"/>
<path d="M253.778 311.325C253.722 315.609 253.54 320.495 253.253 325.801C251.048 366.905 242.9 432.803 242.9 432.803C235.032 440.293 216.3 443.303 216.3 443.303C216.3 443.303 218.295 413.315 217.294 369.32C216.293 325.325 204.799 260.344 204.799 260.344L241.591 245.539L247.037 243.348C251.788 265.688 254.049 288.487 253.778 311.325Z" fill="#252525"/>
<path d="M333.074 434.301C333.074 434.301 304.535 431.97 295.435 426.3C295.435 426.3 282.457 392.791 277.977 331.562C275.934 302.521 275.978 273.37 278.11 244.335L283.71 245.665L315.574 253.267C315.574 253.267 310.394 334.32 333.074 434.301Z" fill="#252525"/>
<path d="M229.299 327.985L238.133 323.498C238.861 323.128 239.659 322.919 240.475 322.887C241.29 322.854 242.103 322.998 242.858 323.309L251.902 327.012C252.604 327.301 253.205 327.792 253.627 328.422C254.05 329.053 254.275 329.795 254.275 330.554V344.722C254.274 345.632 253.949 346.511 253.359 347.203C252.769 347.896 251.953 348.356 251.055 348.502L241.787 350H224.777L229.299 327.985Z" fill="#F2B1A9"/>
<path d="M295.442 339.318L283.136 334.635C282.04 334.215 280.835 334.173 279.713 334.516L276.619 335.468C275.537 335.802 274.603 336.501 273.978 337.445C273.353 338.389 273.074 339.521 273.189 340.648L274.813 356.412C274.904 357.289 275.229 358.125 275.755 358.832C276.281 359.539 276.988 360.091 277.802 360.43L284.172 363.076C285.567 363.657 287.132 363.685 288.547 363.153L306.747 356.314L295.442 339.318Z" fill="#F2B1A9"/>
<path d="M247.03 227.591V243.334L264.446 257.67L278.11 244.335V230.006C278.11 230.006 260.946 212.506 247.03 227.591Z" fill="#F2B1A9"/>
<path d="M302.442 182.7C302.442 182.7 305.774 240.023 284.109 236.691C262.444 233.359 260.113 218.365 260.113 218.365C260.113 218.365 235.284 205.863 245.287 186.865C255.29 167.867 288.61 157.5 302.442 182.7Z" fill="#F2B1A9"/>
<path d="M320.019 171.101C320.019 171.101 318.017 192.101 274.281 187.845V196.343L269.276 207.347C269.276 207.347 267.652 199.052 262.78 199.682C257.908 200.312 254.779 211.47 262.654 215.845H265.902L257.124 227.591H247.03L237.783 192.591L230.538 183.092C230.538 183.092 240.954 170.492 247.114 167.769L241.115 159.677C241.115 159.677 251.118 158.515 253.946 164.514C253.946 164.514 273.28 149.079 290.528 159.614C307.776 170.149 320.019 171.101 320.019 171.101Z" fill="black"/>
<path d="M252.455 671.755C252.455 671.755 272.951 685.006 281.953 673.253C281.953 673.253 290.199 681.254 290.703 700H214.963L212.968 690.004L252.455 671.755Z" fill="black"/>
<path d="M385.091 653.52C385.091 653.52 408.954 648.389 407.008 633.724C407.008 633.724 418.502 633.542 432.11 646.45L378.553 700L370.069 694.344L385.091 653.52Z" fill="black"/>
<path d="M204.792 260.337C202.883 261.82 201.293 263.673 200.118 265.785C198.942 267.897 198.206 270.225 197.953 272.629C196.273 288.666 192.724 326.298 193.753 349.496C193.89 352.586 195.213 355.504 197.446 357.643C199.679 359.783 202.651 360.979 205.744 360.983H229.285C229.285 360.983 231.609 341.32 229.285 327.985L214.9 333.543L217.791 299.327C217.791 299.327 213.458 268.667 204.792 260.337Z" fill="#252525"/>
<path d="M315.546 253.267C318.289 253.801 320.855 255.015 323.008 256.797C325.162 258.578 326.834 260.871 327.873 263.466C334.026 278.866 346.822 311.871 352.485 334.488C353.054 336.774 352.926 339.178 352.118 341.391C351.309 343.604 349.858 345.525 347.949 346.906C340.62 352.219 326.361 360.206 303.114 363.979L295.414 339.318L322.413 330.988L310.8 299.992C310.8 299.992 304.661 263.2 315.546 253.267Z" fill="#252525"/>
<path d="M253.778 311.325C253.722 315.609 253.54 320.495 253.253 325.801C248.647 305.214 238.455 282.66 238.455 282.66L242.9 270.662L237.111 265.664L241.577 245.532L247.023 243.341C251.78 265.683 254.045 288.484 253.778 311.325Z" fill="#545454"/>
<path d="M284.774 273.329L290.444 283.332L277.977 331.562C275.934 302.521 275.978 273.37 278.11 244.335L283.71 245.665L290.472 267.365L284.774 273.329Z" fill="#545454"/>
<path d="M1023.66 604.072C1037.98 604.072 1049.59 592.464 1049.59 578.144C1049.59 563.824 1037.98 552.216 1023.66 552.216C1009.34 552.216 997.731 563.824 997.731 578.144C997.731 592.464 1009.34 604.072 1023.66 604.072Z" fill="#D3DCFE"/>
<path d="M1023.66 597.345C1019.86 597.345 1016.15 596.219 1012.99 594.109C1009.83 591.999 1007.37 589 1005.92 585.492C1004.47 581.983 1004.09 578.123 1004.83 574.398C1005.57 570.673 1007.4 567.252 1010.08 564.567C1012.77 561.882 1016.19 560.053 1019.91 559.312C1023.64 558.571 1027.5 558.951 1031.01 560.405C1034.52 561.858 1037.51 564.319 1039.62 567.477C1041.73 570.634 1042.86 574.346 1042.86 578.144C1042.86 583.235 1040.83 588.117 1037.23 591.717C1033.63 595.317 1028.75 597.341 1023.66 597.345ZM1023.66 560.686C1020.21 560.693 1016.83 561.723 1013.96 563.647C1011.1 565.57 1008.86 568.301 1007.55 571.493C1006.23 574.686 1005.89 578.197 1006.57 581.582C1007.25 584.968 1008.91 588.077 1011.36 590.515C1013.8 592.954 1016.92 594.614 1020.3 595.284C1023.69 595.954 1027.2 595.605 1030.39 594.281C1033.58 592.957 1036.3 590.718 1038.22 587.845C1040.14 584.973 1041.16 581.597 1041.16 578.144C1041.14 573.512 1039.29 569.076 1036.01 565.806C1032.73 562.536 1028.29 560.7 1023.66 560.7V560.686Z" fill="#EFF3FF"/>
<path d="M1023.85 590.135C1023.63 590.139 1023.41 590.067 1023.23 589.932C1023.15 589.88 1023.09 589.81 1023.04 589.729C1023 589.648 1022.97 589.557 1022.97 589.463V588.553C1021.89 588.559 1020.82 588.361 1019.81 587.972C1019.01 587.674 1018.28 587.217 1017.66 586.628C1017.22 586.241 1016.94 585.696 1016.89 585.109C1016.9 584.865 1016.96 584.625 1017.08 584.409C1017.2 584.158 1017.38 583.934 1017.59 583.751C1017.78 583.573 1018.03 583.473 1018.29 583.471C1018.55 583.49 1018.8 583.599 1018.99 583.779L1019.87 584.514C1020.26 584.826 1020.68 585.092 1021.12 585.305C1021.71 585.567 1022.34 585.719 1022.98 585.753V578.886C1022.34 578.648 1021.69 578.396 1021.04 578.123C1020.4 577.859 1019.79 577.51 1019.24 577.087C1018.69 576.664 1018.24 576.124 1017.93 575.505C1017.57 574.774 1017.4 573.966 1017.43 573.153C1017.4 572.339 1017.56 571.53 1017.9 570.787C1018.19 570.161 1018.63 569.611 1019.16 569.177C1019.7 568.746 1020.31 568.41 1020.96 568.183C1021.62 567.953 1022.29 567.795 1022.98 567.714V566.867C1022.98 566.771 1023 566.676 1023.05 566.592C1023.1 566.507 1023.16 566.436 1023.25 566.384C1023.43 566.256 1023.64 566.19 1023.86 566.195C1024.08 566.195 1024.28 566.261 1024.46 566.384C1024.54 566.433 1024.61 566.503 1024.66 566.588C1024.71 566.673 1024.74 566.769 1024.74 566.867V567.658C1025.26 567.68 1025.78 567.734 1026.3 567.819C1026.83 567.897 1027.36 568.024 1027.87 568.197C1028.3 568.335 1028.71 568.554 1029.06 568.841C1029.21 568.949 1029.32 569.088 1029.41 569.248C1029.49 569.409 1029.53 569.585 1029.53 569.765C1029.53 570.006 1029.48 570.243 1029.38 570.465C1029.29 570.724 1029.14 570.962 1028.96 571.165C1028.87 571.264 1028.76 571.342 1028.64 571.396C1028.52 571.449 1028.39 571.475 1028.26 571.473C1027.98 571.462 1027.72 571.38 1027.48 571.235C1027.2 571.081 1026.84 570.913 1026.42 570.724C1025.88 570.52 1025.32 570.407 1024.75 570.388V576.324C1025.39 576.563 1026.02 576.836 1026.63 577.143C1027.26 577.446 1027.84 577.829 1028.36 578.284C1028.9 578.757 1029.32 579.34 1029.6 579.992C1029.94 580.791 1030.1 581.653 1030.07 582.519C1030.12 583.282 1030.01 584.047 1029.76 584.768C1029.5 585.49 1029.11 586.153 1028.59 586.719C1027.56 587.746 1026.2 588.39 1024.75 588.546V589.54C1024.75 589.635 1024.72 589.728 1024.67 589.81C1024.62 589.891 1024.55 589.96 1024.47 590.009C1024.28 590.118 1024.06 590.162 1023.85 590.135ZM1023.15 575.694V570.367C1022.66 570.423 1022.19 570.553 1021.75 570.752C1021.34 570.923 1021 571.201 1020.74 571.557C1020.48 571.929 1020.35 572.373 1020.37 572.824C1020.35 573.308 1020.49 573.785 1020.75 574.189C1021.02 574.558 1021.37 574.858 1021.78 575.064C1022.22 575.299 1022.67 575.509 1023.14 575.694H1023.15ZM1024.55 585.662C1025.26 585.55 1025.92 585.217 1026.43 584.71C1026.67 584.448 1026.86 584.142 1026.98 583.807C1027.1 583.473 1027.15 583.119 1027.13 582.764C1027.15 582.231 1027.03 581.701 1026.78 581.231C1026.55 580.829 1026.23 580.481 1025.85 580.209C1025.45 579.926 1025.02 579.691 1024.56 579.509L1024.55 585.662Z" fill="#EFF3FF"/>
<path d="M96.2639 173.579C110.584 173.579 122.192 161.971 122.192 147.651C122.192 133.331 110.584 121.723 96.2639 121.723C81.9443 121.723 70.3359 133.331 70.3359 147.651C70.3359 161.971 81.9443 173.579 96.2639 173.579Z" fill="#D3DCFE"/>
<path d="M96.2639 166.852C92.4678 166.845 88.7589 165.713 85.606 163.599C82.453 161.485 79.9974 158.484 78.5495 154.975C77.1016 151.465 76.7263 147.606 77.4711 143.884C78.216 140.161 80.0474 136.743 82.7341 134.061C85.4208 131.38 88.8422 129.554 92.5658 128.816C96.2895 128.078 100.148 128.461 103.655 129.915C107.161 131.369 110.158 133.83 112.266 136.987C114.375 140.144 115.5 143.855 115.5 147.651C115.494 152.748 113.465 157.634 109.858 161.234C106.25 164.835 101.361 166.856 96.2639 166.852ZM96.2639 130.186C92.8013 130.179 89.4144 131.199 86.5319 133.118C83.6495 135.037 81.401 137.768 80.0711 140.965C78.7412 144.162 78.3896 147.682 79.0609 151.079C79.7322 154.475 81.3961 157.597 83.8422 160.048C86.2882 162.499 89.4063 164.169 92.8019 164.847C96.1976 165.525 99.718 165.181 102.918 163.857C106.117 162.534 108.853 160.291 110.777 157.412C112.702 154.533 113.729 151.149 113.729 147.686C113.725 143.053 111.885 138.611 108.611 135.333C105.337 132.055 100.897 130.209 96.2639 130.2V130.186Z" fill="#EFF3FF"/>
<path d="M96.4461 159.642C96.2261 159.645 96.0116 159.573 95.8371 159.439C95.7594 159.387 95.6949 159.317 95.6487 159.236C95.6025 159.155 95.5759 159.064 95.5711 158.97V158.06C94.4884 158.074 93.4126 157.884 92.4001 157.5C91.6001 157.202 90.869 156.745 90.2511 156.156C89.8021 155.769 89.523 155.221 89.4741 154.63C89.4835 154.385 89.5506 154.145 89.6701 153.93C89.7948 153.679 89.9686 153.455 90.1811 153.272C90.3702 153.093 90.6206 152.993 90.8811 152.992C91.1429 153.011 91.3902 153.12 91.5811 153.3L92.4561 154C92.8438 154.31 93.2667 154.573 93.7161 154.784C94.2998 155.053 94.9294 155.207 95.5711 155.239V148.372C94.9271 148.134 94.2831 147.882 93.6251 147.609C92.9853 147.343 92.3829 146.995 91.8331 146.573C91.2824 146.15 90.8329 145.61 90.5171 144.991C90.1609 144.26 89.9903 143.452 90.0201 142.639C89.9952 141.826 90.1531 141.017 90.4821 140.273C90.7821 139.649 91.2173 139.099 91.7561 138.663C92.2952 138.232 92.9035 137.896 93.5551 137.669C94.2067 137.435 94.8832 137.278 95.5711 137.2V136.353C95.5714 136.257 95.5958 136.162 95.6423 136.078C95.6888 135.993 95.7558 135.922 95.8371 135.87C96.0146 135.743 96.2281 135.677 96.4461 135.681C96.6615 135.68 96.8718 135.746 97.0481 135.87C97.133 135.919 97.2035 135.989 97.2526 136.074C97.3017 136.159 97.3278 136.255 97.3281 136.353V137.144C97.8512 137.167 98.3725 137.22 98.8891 137.305C99.4222 137.383 99.947 137.51 100.457 137.683C100.892 137.823 101.298 138.041 101.654 138.327C101.797 138.434 101.914 138.572 101.995 138.731C102.076 138.89 102.12 139.066 102.123 139.244C102.118 139.484 102.068 139.722 101.976 139.944C101.879 140.202 101.734 140.439 101.549 140.644C101.461 140.743 101.354 140.821 101.233 140.875C101.112 140.928 100.981 140.954 100.849 140.952C100.575 140.937 100.308 140.855 100.072 140.714C99.7921 140.56 99.4351 140.392 99.0081 140.203C98.4753 139.999 97.9123 139.886 97.3421 139.867V145.803C97.9841 146.042 98.6127 146.315 99.2251 146.622C99.8408 146.906 100.417 147.268 100.94 147.7C101.472 148.173 101.895 148.756 102.179 149.408C102.514 150.207 102.674 151.069 102.648 151.935C102.694 152.698 102.588 153.463 102.334 154.184C102.08 154.906 101.685 155.569 101.171 156.135C100.133 157.161 98.7788 157.805 97.3281 157.962V158.956C97.3235 159.051 97.2955 159.144 97.2467 159.226C97.1978 159.307 97.1297 159.376 97.0481 159.425C96.8764 159.561 96.665 159.637 96.4461 159.642ZM95.7461 145.201V139.874C95.2625 139.93 94.7904 140.06 94.3461 140.259C93.9424 140.43 93.5936 140.708 93.3381 141.064C93.0815 141.436 92.9514 141.88 92.9671 142.331C92.9468 142.813 93.0817 143.289 93.3521 143.689C93.614 144.064 93.9653 144.367 94.3741 144.571C94.8196 144.806 95.2776 145.016 95.7461 145.201ZM97.1461 155.169C97.8582 155.057 98.5171 154.724 99.0291 154.217C99.2692 153.955 99.4547 153.649 99.5749 153.314C99.6951 152.98 99.7475 152.626 99.7291 152.271C99.7528 151.738 99.6318 151.208 99.3791 150.738C99.144 150.336 98.8268 149.988 98.4481 149.716C98.0478 149.433 97.6155 149.198 97.1601 149.016L97.1461 155.169Z" fill="#EFF3FF"/>
<path d="M138.012 539.56C155.428 539.56 169.547 525.441 169.547 508.025C169.547 490.609 155.428 476.49 138.012 476.49C120.596 476.49 106.477 490.609 106.477 508.025C106.477 525.441 120.596 539.56 138.012 539.56Z" fill="#D3DCFE"/>
<path d="M138.012 531.377C133.391 531.378 128.874 530.009 125.032 527.443C121.189 524.877 118.194 521.229 116.425 516.96C114.657 512.692 114.193 507.994 115.095 503.463C115.996 498.931 118.22 494.768 121.488 491.501C124.755 488.233 128.918 486.009 133.45 485.107C137.981 484.206 142.679 484.67 146.947 486.438C151.216 488.207 154.864 491.202 157.43 495.045C159.996 498.887 161.365 503.404 161.364 508.025C161.357 514.216 158.894 520.151 154.516 524.529C150.138 528.907 144.203 531.37 138.012 531.377ZM138.012 486.78C133.81 486.78 129.703 488.026 126.209 490.36C122.715 492.695 119.992 496.013 118.384 499.895C116.776 503.777 116.355 508.049 117.175 512.17C117.995 516.291 120.018 520.076 122.99 523.047C125.961 526.019 129.746 528.042 133.867 528.862C137.988 529.681 142.26 529.261 146.142 527.653C150.024 526.045 153.342 523.322 155.677 519.828C158.011 516.334 159.257 512.227 159.257 508.025C159.251 502.392 157.011 496.992 153.028 493.009C149.045 489.026 143.645 486.786 138.012 486.78Z" fill="#EFF3FF"/>
<path d="M138.236 522.606C137.965 522.61 137.7 522.521 137.487 522.354C137.391 522.293 137.312 522.209 137.256 522.11C137.2 522.012 137.169 521.901 137.165 521.787V520.681C135.854 520.686 134.554 520.449 133.329 519.981C132.356 519.616 131.465 519.059 130.711 518.343C130.173 517.87 129.838 517.208 129.773 516.495C129.779 516.185 129.858 515.88 130.004 515.606C130.156 515.299 130.368 515.025 130.627 514.801C130.849 514.592 131.141 514.472 131.446 514.465C131.77 514.484 132.076 514.616 132.314 514.836L133.378 515.725C133.85 516.105 134.365 516.429 134.911 516.691C135.622 517.011 136.386 517.196 137.165 517.237V508.9C136.388 508.62 135.597 508.312 134.806 507.976C134.023 507.655 133.286 507.231 132.615 506.716C131.947 506.203 131.402 505.548 131.019 504.798C130.586 503.907 130.377 502.925 130.41 501.935C130.378 500.942 130.575 499.956 130.984 499.051C131.342 498.291 131.868 497.623 132.524 497.098C133.182 496.575 133.922 496.166 134.715 495.887C135.507 495.603 136.329 495.413 137.165 495.32V494.284C137.166 494.168 137.196 494.054 137.253 493.953C137.309 493.851 137.389 493.766 137.487 493.703C137.705 493.548 137.968 493.467 138.236 493.472C138.487 493.478 138.731 493.558 138.936 493.703C139.036 493.764 139.119 493.849 139.178 493.951C139.237 494.052 139.269 494.167 139.272 494.284V495.25C139.91 495.274 140.546 495.34 141.176 495.446C141.823 495.544 142.46 495.698 143.08 495.908C143.61 496.073 144.104 496.337 144.536 496.685C144.71 496.816 144.852 496.985 144.952 497.179C145.051 497.373 145.105 497.587 145.11 497.805C145.099 498.087 145.038 498.364 144.928 498.624C144.81 498.934 144.634 499.219 144.41 499.464C144.301 499.585 144.167 499.681 144.017 499.745C143.867 499.809 143.705 499.84 143.542 499.835C143.207 499.823 142.882 499.725 142.597 499.548C142.254 499.359 141.82 499.156 141.302 498.925C140.653 498.676 139.967 498.539 139.272 498.519V505.736C140.054 506.03 140.821 506.364 141.568 506.737C142.326 507.111 143.032 507.581 143.668 508.137C144.317 508.721 144.832 509.437 145.18 510.237C145.583 511.21 145.776 512.257 145.747 513.31C145.801 514.237 145.669 515.166 145.36 516.042C145.052 516.919 144.571 517.724 143.948 518.413C142.69 519.669 141.04 520.455 139.272 520.639V521.85C139.267 521.965 139.233 522.077 139.175 522.176C139.116 522.274 139.034 522.357 138.936 522.417C138.728 522.551 138.483 522.617 138.236 522.606ZM137.382 505.036V498.561C136.78 498.622 136.192 498.778 135.639 499.023C135.15 499.234 134.727 499.572 134.414 500.003C134.102 500.457 133.945 501 133.966 501.55C133.943 502.135 134.105 502.713 134.428 503.202C134.751 503.654 135.178 504.022 135.674 504.273C136.229 504.559 136.799 504.813 137.382 505.036ZM139.09 517.16C139.956 517.026 140.757 516.622 141.379 516.005C141.669 515.686 141.892 515.312 142.036 514.906C142.18 514.5 142.243 514.069 142.219 513.639C142.246 512.991 142.099 512.348 141.792 511.777C141.504 511.286 141.115 510.861 140.651 510.531C140.166 510.18 139.643 509.886 139.09 509.656V517.16Z" fill="#EFF3FF"/>
<path d="M956.788 391.363C974.204 391.363 988.323 377.244 988.323 359.828C988.323 342.412 974.204 328.293 956.788 328.293C939.372 328.293 925.253 342.412 925.253 359.828C925.253 377.244 939.372 391.363 956.788 391.363Z" fill="#D3DCFE"/>
<path d="M956.788 383.18C952.171 383.18 947.657 381.811 943.817 379.246C939.978 376.682 936.985 373.036 935.216 368.771C933.448 364.505 932.984 359.812 933.883 355.282C934.781 350.753 937.003 346.592 940.266 343.325C943.529 340.059 947.687 337.832 952.215 336.928C956.743 336.024 961.438 336.482 965.705 338.245C969.973 340.009 973.622 342.997 976.191 346.834C978.76 350.67 980.134 355.183 980.14 359.8C980.14 365.996 977.681 371.938 973.302 376.322C968.924 380.706 962.984 383.173 956.788 383.18ZM956.788 338.583C952.585 338.582 948.475 339.827 944.98 342.162C941.485 344.497 938.761 347.816 937.153 351.699C935.544 355.583 935.124 359.856 935.945 363.979C936.767 368.101 938.792 371.887 941.766 374.858C944.74 377.829 948.528 379.85 952.651 380.668C956.774 381.485 961.047 381.06 964.929 379.448C968.811 377.836 972.127 375.109 974.459 371.611C976.79 368.114 978.032 364.003 978.026 359.8C978.013 354.173 975.771 348.781 971.79 344.804C967.809 340.827 962.415 338.59 956.788 338.583Z" fill="#EFF3FF"/>
<path d="M957.005 374.409C956.736 374.414 956.474 374.324 956.263 374.157C956.167 374.096 956.088 374.012 956.032 373.913C955.976 373.815 955.945 373.704 955.941 373.59V372.491C954.628 372.493 953.326 372.255 952.098 371.791C951.124 371.431 950.235 370.873 949.487 370.153C948.94 369.686 948.6 369.022 948.542 368.305C948.548 367.995 948.627 367.69 948.773 367.416C948.926 367.111 949.137 366.84 949.396 366.618C949.62 366.411 949.91 366.292 950.215 366.282C950.541 366.3 950.85 366.431 951.09 366.653L952.154 367.542C952.623 367.921 953.135 368.243 953.68 368.501C954.392 368.827 955.159 369.015 955.941 369.054V360.682C955.157 360.395 954.373 360.087 953.575 359.758C952.795 359.433 952.06 359.007 951.391 358.491C950.721 357.978 950.174 357.323 949.788 356.573C949.361 355.681 949.154 354.699 949.186 353.71C949.156 352.721 949.35 351.737 949.753 350.833C950.115 350.072 950.643 349.402 951.3 348.873C951.956 348.349 952.697 347.942 953.491 347.669C954.283 347.386 955.105 347.194 955.941 347.095V346.066C955.941 345.949 955.971 345.834 956.027 345.731C956.083 345.628 956.164 345.541 956.263 345.478C956.479 345.323 956.739 345.242 957.005 345.247C957.256 345.254 957.499 345.335 957.705 345.478C957.806 345.54 957.89 345.626 957.949 345.729C958.008 345.832 958.039 345.948 958.041 346.066V347.025C958.679 347.053 959.315 347.118 959.945 347.221C960.592 347.32 961.229 347.474 961.849 347.683C962.379 347.852 962.872 348.118 963.305 348.467C963.478 348.599 963.619 348.768 963.717 348.962C963.816 349.156 963.868 349.37 963.872 349.587C963.864 349.868 963.805 350.146 963.697 350.406C963.578 350.714 963.402 350.996 963.179 351.239C963.071 351.361 962.937 351.458 962.787 351.522C962.636 351.586 962.474 351.616 962.311 351.61C961.977 351.598 961.652 351.502 961.366 351.33C961.023 351.141 960.589 350.931 960.064 350.707C959.418 350.455 958.734 350.315 958.041 350.294V357.518C958.797 357.798 959.56 358.134 960.337 358.512C961.096 358.884 961.802 359.354 962.437 359.912C963.09 360.492 963.606 361.209 963.949 362.012C964.355 362.987 964.55 364.036 964.523 365.092C964.577 366.019 964.445 366.948 964.136 367.824C963.828 368.701 963.347 369.506 962.724 370.195C961.463 371.445 959.814 372.228 958.048 372.414V373.625C958.043 373.74 958.009 373.852 957.951 373.951C957.892 374.049 957.81 374.132 957.712 374.192C957.505 374.336 957.257 374.412 957.005 374.409ZM956.158 356.839V350.371C955.556 350.43 954.967 350.586 954.415 350.833C953.926 351.043 953.501 351.379 953.183 351.806C952.877 352.263 952.723 352.804 952.742 353.353C952.718 353.941 952.879 354.521 953.204 355.012C953.528 355.462 953.955 355.827 954.45 356.076C955.003 356.364 955.574 356.619 956.158 356.839ZM957.859 368.97C958.726 368.834 959.529 368.431 960.155 367.815C960.444 367.496 960.667 367.122 960.811 366.716C960.955 366.31 961.018 365.879 960.995 365.449C961.019 364.799 960.872 364.155 960.568 363.58C960.278 363.09 959.889 362.666 959.427 362.334C958.94 361.985 958.414 361.693 957.859 361.466V368.97Z" fill="#EFF3FF"/>
</g>
<defs>
<clipPath id="clip0_213_220">
<rect width="1097" height="700" fill="white"/>
</clipPath>
</defs>
</svg>
