<svg width="70" height="70" viewBox="0 0 70 70" fill="none" xmlns="http://www.w3.org/2000/svg">
<path d="M49.4368 9.99228C42.0022 11.0125 36.2626 17.4292 36.2626 25.1679L36.2626 25.1683C36.2708 28.0736 37.1004 30.9173 38.6555 33.3713C38.6556 33.3715 38.6557 33.3716 38.6559 33.3718L38.7392 33.5054L38.7832 33.576H38.8664H41.4169C44.787 33.576 47.6316 36.309 47.755 39.6644L47.755 39.6644L47.763 39.8805L47.7673 39.9936L47.8771 40.0206L48.0864 40.0721C48.0866 40.0721 48.0867 40.0721 48.0869 40.0722C49.0465 40.3152 50.1056 40.4215 51.5139 40.4215C59.9587 40.4215 66.8306 33.5807 66.8295 25.1714C66.8295 16.7213 59.9536 9.85 51.5081 9.85H49.4565L49.4368 9.99228ZM48.6133 39.3002C48.4552 37.522 47.6451 35.8635 46.3369 34.645C45.0018 33.4015 43.2463 32.7081 41.4218 32.7036H41.4214H39.2733C37.8871 30.4352 37.1496 27.8295 37.1419 25.17C37.142 17.2068 43.5923 10.7235 51.5184 10.7235H51.5972C55.4131 10.7492 59.0641 12.282 61.7546 14.9881C64.4452 17.6942 65.957 21.3543 65.9605 25.1704C65.9605 33.0965 59.4771 39.5468 51.5139 39.5468C50.3257 39.5468 49.4161 39.4696 48.6133 39.3002ZM49.7289 25.4247L48.1133 23.8091C47.9053 23.5822 47.6534 23.4 47.3728 23.2735C47.0911 23.1466 46.7865 23.0784 46.4776 23.0732L46.4772 23.0732C46.1482 23.0688 45.8217 23.1302 45.5169 23.254C45.2131 23.3775 44.937 23.5603 44.7048 23.7918C44.4782 24 44.2962 24.252 44.1697 24.5325C44.0428 24.8141 43.9745 25.1185 43.969 25.4273L43.969 25.4275C43.9636 25.7579 44.0252 26.0859 44.15 26.3919C44.2747 26.6977 44.4601 26.9752 44.6948 27.2076C44.6949 27.2076 44.695 27.2077 44.695 27.2077L48.0148 30.5276C48.2347 30.7578 48.4991 30.9409 48.792 31.0658C49.0391 31.1713 49.3022 31.2334 49.5697 31.2499V31.2586L49.7217 31.2566C50.3617 31.2481 50.9734 30.992 51.4285 30.542L51.4291 30.5414L58.0655 23.9051C58.292 23.6969 58.4741 23.4449 58.6005 23.1644C58.7274 22.8829 58.7957 22.5784 58.8013 22.2697L58.8013 22.2693C58.8064 21.94 58.7451 21.6131 58.621 21.3081C58.4973 21.0041 58.3138 20.7281 58.0814 20.4965C57.8733 20.2699 57.6214 20.0879 57.3409 19.9615C57.0593 19.8346 56.7548 19.7663 56.446 19.7608L56.4451 19.7608C56.1154 19.757 55.7881 19.8192 55.4828 19.9438C55.1774 20.0684 54.9001 20.2529 54.6672 20.4864L49.7289 25.4247ZM45.3123 24.4166L45.3132 24.4156C45.4581 24.2682 45.6307 24.151 45.8212 24.0707C46.0103 23.991 46.2133 23.9492 46.4185 23.9479L46.4553 23.95L46.4553 23.9501L46.4614 23.9502C46.6526 23.953 46.8413 23.9949 47.0157 24.0733C47.1902 24.1517 47.3468 24.2649 47.4759 24.406L47.4757 24.4061L47.4805 24.4108L49.6182 26.5486L49.7243 26.6547L49.8304 26.5486L55.2806 21.0984L55.2818 21.0971C55.4297 20.9457 55.607 20.826 55.8027 20.7455C55.9985 20.6649 56.2086 20.6251 56.4203 20.6286L56.4206 20.6286C56.6116 20.6313 56.8001 20.6731 56.9743 20.7515C57.1486 20.8299 57.3049 20.9431 57.4337 21.0842L57.4335 21.0844L57.4384 21.0892L57.4475 21.0984L57.4489 21.0997C57.6004 21.2477 57.7202 21.4251 57.8008 21.621C57.8813 21.817 57.921 22.0273 57.9174 22.2391L57.9174 22.2396C57.9148 22.4308 57.8731 22.6194 57.7949 22.7938C57.7167 22.9683 57.6037 23.1249 57.4627 23.254L57.4626 23.2539L57.458 23.2585L50.8055 29.9098L50.8049 29.9104C50.5169 30.2018 50.1271 30.37 49.7176 30.3796C49.5154 30.3804 49.3152 30.3396 49.1295 30.2595C48.9434 30.1793 48.7758 30.0615 48.6374 29.9134L48.6375 29.9134L48.6339 29.9098L45.3123 26.5882L45.3111 26.587C45.1593 26.4387 45.0396 26.2609 44.9592 26.0646C44.8788 25.8683 44.8395 25.6576 44.8436 25.4455L44.8436 25.4449C44.8465 25.2537 44.8883 25.0651 44.9665 24.8906C45.0447 24.7162 45.1577 24.5595 45.2985 24.4302L45.2986 24.4303L45.3031 24.4258L45.3123 24.4166Z" fill="#70AD4D" stroke="#70AD4D" stroke-width="0.3"/>
<path d="M28.7453 24.1305L28.7452 24.1305C27.7864 24.1305 26.8836 24.5257 26.546 25.3912L26.5459 25.3917C26.1399 26.4223 24.9242 29.007 23.1786 31.7258C21.4349 34.4415 19.1502 37.3108 16.6009 38.8897L16.5988 38.8911L16.5987 38.891C16.3854 39.0183 16.2075 39.1972 16.0814 39.4113C15.9558 39.6248 15.8858 39.8664 15.8777 40.1139V56.0587C15.8777 56.0679 15.8816 56.0934 15.9034 56.1384C15.9245 56.1818 15.9585 56.2354 16.0075 56.2982C16.1055 56.4239 16.2552 56.5759 16.4564 56.7447C16.8582 57.0819 17.4528 57.4761 18.2146 57.8518C19.7376 58.6029 21.9183 59.2752 24.5409 59.2752H39.4282C40.0519 59.2746 40.6499 59.0266 41.0909 58.5855C41.5316 58.1448 41.7796 57.5474 41.7805 56.9242C41.7718 56.4005 41.5936 55.8936 41.2726 55.4797C40.9534 55.0679 40.5101 54.7701 40.0084 54.6302C39.8993 54.6141 39.7991 54.5602 39.7253 54.4778C39.6488 54.3923 39.606 54.282 39.6048 54.1673L39.6048 54.1632H39.6048C39.6059 54.0999 39.6196 54.0375 39.645 53.9795C39.6705 53.9216 39.7073 53.8693 39.7532 53.8257C39.7991 53.7821 39.8533 53.7481 39.9125 53.7257C39.9707 53.7037 40.0327 53.6933 40.095 53.6951C40.7178 53.6939 41.3148 53.4459 41.7552 53.0055C42.1959 52.5648 42.4439 51.9673 42.4448 51.3441C42.4357 50.8205 42.2574 50.3139 41.9365 49.8999C41.6176 49.4886 41.1749 49.1909 40.674 49.0505C40.557 49.0351 40.4498 48.9761 40.3742 48.8851C40.2955 48.7905 40.2572 48.6688 40.2674 48.5462C40.2775 48.4236 40.3354 48.3098 40.4286 48.2295C40.5204 48.1503 40.6392 48.1097 40.7601 48.1161C41.3825 48.1144 41.979 47.8664 42.4192 47.4262C42.8601 46.9853 43.1082 46.3876 43.1091 45.7641C43.1001 45.2404 42.9217 44.7338 42.6008 44.3199C42.2817 43.9083 41.8387 43.6105 41.3374 43.4702C41.2282 43.4546 41.1278 43.401 41.0539 43.3188C40.9772 43.2333 40.9343 43.1228 40.9334 43.0079L40.9334 43.0047C40.9351 42.883 40.9834 42.7665 41.0684 42.6793C41.1516 42.5939 41.2639 42.543 41.3829 42.5365C42.8167 42.3497 43.8401 41.2444 43.8401 39.9174C43.8396 39.2938 43.5915 38.6958 43.1505 38.2548C42.7095 37.8138 42.1116 37.5657 41.4879 37.5652C40.7333 37.5652 38.4011 37.5813 36.1435 37.5974C33.8129 37.6146 31.4009 37.6307 30.5934 37.6307M28.7453 24.1305L30.5934 37.4807M28.7453 24.1305C29.0737 24.1302 29.4006 24.1758 29.7163 24.266M28.7453 24.1305L29.7578 24.1218M30.5934 37.6307V37.4807M30.5934 37.6307C30.5935 37.6307 30.5937 37.6307 30.5938 37.6307L30.5934 37.4807M30.5934 37.6307C30.3249 37.6314 30.0601 37.5676 29.8214 37.4447C29.5829 37.3218 29.3773 37.1434 29.2221 36.9245C29.0642 36.7067 28.9601 36.4547 28.9185 36.1889C28.8769 35.9232 28.899 35.6513 28.9829 35.3958M30.5934 37.4807C30.3488 37.4814 30.1076 37.4234 29.8901 37.3113C29.6727 37.1993 29.4854 37.0367 29.344 36.8371C29.1997 36.6384 29.1047 36.4083 29.0667 36.1657C29.0288 35.9231 29.049 35.675 29.1256 35.4417M28.9829 35.3958C28.9828 35.3961 28.9827 35.3964 28.9826 35.3967L29.1256 35.4417M28.9829 35.3958C28.9829 35.3955 28.983 35.3952 28.9831 35.3949L29.1256 35.4417M28.9829 35.3958C29.1019 35.0176 29.2388 34.59 29.3854 34.1314C29.4568 33.9083 29.5305 33.6779 29.6057 33.4423L29.6058 33.4419C30.3908 31.0051 31.3585 27.9956 31.555 26.9435L31.5552 26.9427C31.7005 26.1879 31.4994 25.5994 31.1383 25.1598C30.7735 24.7157 30.2394 24.4172 29.7163 24.266M29.1256 35.4417C29.2447 35.0638 29.3814 34.6365 29.528 34.178C29.5995 33.9547 29.6733 33.7239 29.7486 33.4879C30.5313 31.0581 31.5036 28.0354 31.7025 26.9711C32.0105 25.3712 30.8474 24.4368 29.7578 24.1218M29.7163 24.266C29.7164 24.266 29.7165 24.266 29.7166 24.2661L29.7578 24.1218M29.7163 24.266C29.7163 24.266 29.7162 24.266 29.7161 24.2659L29.7578 24.1218M15.0065 40.1127H15.0065V40.1161V56.0587C15.0065 56.2455 15.0841 56.4457 15.2106 56.6458C15.3385 56.848 15.524 57.0622 15.7585 57.2804C16.2276 57.7169 16.9053 58.1803 17.7492 58.6042C19.4377 59.4523 21.8076 60.1498 24.5443 60.1498H39.4284V59.9998L39.4285 60.1498C40.2819 60.1489 41.1003 59.8103 41.7048 59.208C42.3094 58.6057 42.651 57.7886 42.6552 56.9352L42.6552 56.9334C42.651 56.3751 42.5037 55.8273 42.2274 55.3422C42.0012 54.9452 41.6948 54.601 41.329 54.331C41.8684 54.1064 42.3388 53.7389 42.6879 53.2656C43.0973 52.7108 43.3186 52.0396 43.3195 51.35L43.3195 51.3487C43.3153 50.7905 43.168 50.2426 42.8917 49.7575C42.6656 49.3605 42.3592 49.0163 41.9933 48.7463C42.5327 48.5217 43.0031 48.1542 43.3523 47.681C43.7616 47.1261 43.9829 46.4549 43.9838 45.7654L43.9838 45.7637C43.9782 45.1883 43.8209 44.6246 43.5277 44.1295C43.2862 43.7216 42.9595 43.3721 42.5713 43.1041C43.8426 42.5375 44.7148 41.3119 44.7148 39.9196V39.9194C44.7138 39.064 44.3736 38.2438 43.7687 37.6389C43.1638 37.034 42.3436 36.6938 41.4882 36.6928H41.488C40.8299 36.6928 39.0407 36.7051 37.0249 36.7189C36.7327 36.7209 36.4357 36.7229 36.1368 36.725H36.1367C33.8101 36.7422 31.3972 36.7583 30.5934 36.7583L30.593 36.7583C30.4637 36.7586 30.3363 36.7278 30.2214 36.6684C30.1066 36.6091 30.0077 36.5229 29.9332 36.4173L29.9332 36.4173L29.9319 36.4155C29.8546 36.3092 29.8036 36.1861 29.7832 36.0563C29.7627 35.9265 29.7733 35.7937 29.8142 35.6688L29.8148 35.6669C29.9783 35.1429 30.1715 34.5431 30.3789 33.8992C30.3986 33.838 30.4185 33.7763 30.4385 33.7143L30.4385 33.7143L30.4497 33.6794C31.2329 31.2452 32.2071 28.2173 32.4187 27.112C32.6174 26.0783 32.3484 25.2518 31.8511 24.6359C31.3574 24.0245 30.6452 23.6278 29.9614 23.4306C29.1872 23.2065 28.3003 23.1967 27.5225 23.4512C26.7422 23.7064 26.0654 24.2307 25.7357 25.075C25.1514 26.5504 23.8478 29.1429 22.1391 31.7078C20.4283 34.2758 18.3237 36.7972 16.1424 38.1493C15.8035 38.3548 15.5218 38.6422 15.3233 38.9852C15.1247 39.3285 15.0157 39.7162 15.0065 40.1127Z" fill="#70AD4D" stroke="#70AD4D" stroke-width="0.3"/>
<path d="M5.01288 58.7547H5.01481H9.5984V58.6048L9.60016 58.7547C10.1716 58.748 10.7178 58.5182 11.1222 58.1143C11.5265 57.7104 11.757 57.1645 11.7643 56.593V56.5911V39.785C11.7669 39.5 11.7126 39.2174 11.6046 38.9537C11.4966 38.6897 11.3369 38.4501 11.135 38.2486C10.9332 38.0472 10.6931 37.8881 10.4289 37.7806C10.165 37.6733 9.88241 37.6197 9.59754 37.6228H5.01481V37.6228L5.01288 37.6229C4.44217 37.6302 3.89684 37.8599 3.49291 38.2631C3.08898 38.6664 2.85832 39.2113 2.85002 39.782L2.85 39.782V39.7842L2.84999 56.5911L2.85001 56.5931C2.85768 57.1642 3.08806 57.7098 3.49206 58.1135C3.89606 58.5173 4.44175 58.7474 5.01288 58.7547ZM10.8897 39.783H10.8897V39.7842V56.5892C10.8811 56.9295 10.7421 57.2534 10.5015 57.4941C10.2608 57.7348 9.93678 57.8738 9.59654 57.8824H5.01668C4.677 57.8735 4.35362 57.7347 4.11322 57.4945C3.87283 57.2543 3.73377 56.9311 3.72467 56.5914V39.7885C3.73377 39.4488 3.87283 39.1255 4.11322 38.8853C4.35362 38.6451 4.67701 38.5063 5.0167 38.4975H9.5984V38.4975L9.6001 38.4975C9.76963 38.4956 9.93784 38.5275 10.0949 38.5914C10.252 38.6552 10.3947 38.7498 10.5148 38.8695C10.6349 38.9892 10.7299 39.1316 10.7942 39.2885C10.8586 39.4453 10.8911 39.6134 10.8897 39.783Z" fill="#70AD4D" stroke="#70AD4D" stroke-width="0.3"/>
</svg>
