<svg width="80" height="80" viewBox="0 0 80 80" fill="none" xmlns="http://www.w3.org/2000/svg">
<g clip-path="url(#clip0_262_150)">
<path d="M31.0203 41.9129C31.8491 39.7352 33.8686 34.3776 35.4812 32.75C36.732 31.4614 38.0582 30.2483 39.3166 28.9823C40.0701 28.1836 40.8237 27.3321 41.5772 26.4731C41.7797 26.189 41.9634 25.8919 42.1273 25.5839C42.1905 25.4812 42.29 25.4059 42.4061 25.3729C44.1548 25.1208 45.9154 24.9598 47.6808 24.8907L51.4936 25.1469C51.6289 25.1632 51.7529 25.2306 51.8402 25.3353C53.1722 26.9672 54.6042 28.5149 56.1278 29.9694C57.8847 31.5756 59.4362 33.3928 60.7469 35.3798C61.9801 37.305 62.8936 39.4171 63.4521 41.6341C63.8895 43.4107 63.9132 45.264 63.5213 47.0512C63.1293 48.8384 62.3323 50.5118 61.1915 51.9423" fill="#E9EAEC"/>
<path d="M31.0203 41.9129C31.8491 39.7352 33.8686 34.3776 35.4812 32.75C36.732 31.4614 38.0582 30.2483 39.3166 28.9823C40.0701 28.1836 40.8237 27.3321 41.5772 26.4731C41.7797 26.189 41.9634 25.8919 42.1273 25.5839C42.1905 25.4812 42.29 25.4059 42.4061 25.3729C44.1548 25.1208 45.9154 24.9598 47.6808 24.8907L51.4936 25.1469C51.6289 25.1632 51.7529 25.2306 51.8402 25.3353C53.1722 26.9672 54.6042 28.5149 56.1278 29.9694C57.8847 31.5756 59.4362 33.3928 60.7469 35.3798C61.9801 37.305 62.8936 39.4171 63.4521 41.6341C63.8895 43.4107 63.9132 45.264 63.5213 47.0512C63.1293 48.8384 62.3323 50.5118 61.1915 51.9423" stroke="#4A4A4A" stroke-miterlimit="10"/>
<path d="M48.2762 42.6438C48.877 42.5023 49.4449 42.2465 49.949 41.8903C50.3723 41.5915 50.7153 41.1929 50.9477 40.7298C51.1801 40.2667 51.2947 39.7534 51.2813 39.2355C51.2679 38.7175 51.1269 38.2109 50.8708 37.7605C50.6148 37.31 50.2516 36.9297 49.8134 36.6532C49.2934 36.3518 48.7208 36.1408 48.1782 35.8997C47.5922 35.6657 47.0232 35.3912 46.4752 35.0784C46.3284 34.9975 46.2089 34.8747 46.1322 34.7256C46.0554 34.5766 46.0247 34.408 46.0441 34.2415C46.0635 34.0749 46.1321 33.9179 46.2411 33.7905C46.3501 33.6631 46.4946 33.5711 46.6561 33.5261C46.897 33.4316 47.1513 33.3757 47.4096 33.3603C48.2121 33.3197 49.0133 33.4614 49.7531 33.7748C50.0771 33.9104 50.2504 33.8275 50.3408 33.496C50.4313 33.1644 50.5669 32.6897 50.6649 32.2903C50.7628 31.8909 50.7025 31.906 50.4087 31.793C49.8343 31.561 49.2261 31.4236 48.6077 31.3861C48.3967 31.3861 48.3515 31.2957 48.3591 31.0997C48.3591 30.7607 48.3591 30.414 48.3591 30.0749C48.3646 29.9924 48.3525 29.9096 48.3234 29.8321C48.2943 29.7546 48.249 29.6842 48.1904 29.6257C48.1319 29.5672 48.0615 29.5218 47.9841 29.4927C47.9066 29.4637 47.8238 29.4515 47.7412 29.4571C47.387 29.4571 47.0404 29.4571 46.6862 29.4571C46.6075 29.4538 46.529 29.467 46.4557 29.4959C46.3824 29.5247 46.316 29.5686 46.2606 29.6246C46.2053 29.6807 46.1623 29.7477 46.1344 29.8214C46.1064 29.895 46.0942 29.9737 46.0985 30.0523C46.0985 30.4819 46.0985 30.9038 46.0985 31.3333C46.0985 31.4765 46.0382 31.5217 45.9101 31.5745C45.4665 31.7227 45.0376 31.9119 44.6291 32.1396C44.2054 32.4026 43.8559 32.7694 43.6134 33.2051C43.371 33.6409 43.2438 34.1314 43.2438 34.63C43.2438 35.1287 43.371 35.6191 43.6134 36.0549C43.8559 36.4907 44.2054 36.8574 44.6291 37.1204C44.8138 37.2477 45.0078 37.361 45.2093 37.4595C45.7217 37.678 46.2417 37.8815 46.7616 38.0849C47.2485 38.2328 47.7034 38.4705 48.1029 38.7857C48.2406 38.8908 48.3482 39.0303 48.4149 39.1902C48.4816 39.3501 48.505 39.5247 48.4829 39.6965C48.4607 39.8683 48.3938 40.0313 48.2887 40.169C48.1836 40.3067 48.0442 40.4144 47.8843 40.4812C47.4953 40.6596 47.0683 40.7398 46.641 40.7148C45.7813 40.7059 44.9335 40.5132 44.1544 40.1496C43.8228 39.9989 43.6571 40.0818 43.5666 40.4209C43.4762 40.76 43.3481 41.2573 43.2501 41.6793C43.1823 41.9732 43.2501 42.1012 43.5139 42.2067C43.8805 42.3499 44.2554 42.4707 44.6366 42.5684C45.0812 42.6739 45.5333 42.7342 46.0005 42.8171V44.0529C45.9914 44.1389 46.0013 44.2259 46.0296 44.3077C46.058 44.3895 46.104 44.464 46.1645 44.5259C46.225 44.5878 46.2984 44.6356 46.3794 44.6658C46.4605 44.6961 46.5473 44.7081 46.6335 44.7009H47.6432C47.7295 44.7097 47.8167 44.6988 47.8981 44.669C47.9796 44.6392 48.0532 44.5913 48.1134 44.5289C48.1736 44.4665 48.2189 44.3912 48.2458 44.3088C48.2727 44.2263 48.2805 44.1388 48.2686 44.0529C48.2837 43.6083 48.2762 43.1411 48.2762 42.6438Z" stroke="#4A4A4A" stroke-width="0.75" stroke-linecap="round" stroke-linejoin="round"/>
<path d="M50.7327 23.6473C49.9792 23.6473 49.2256 23.5795 48.4721 23.572C46.5747 23.5441 44.6779 23.6599 42.798 23.9186C42.3632 23.9893 41.9178 23.8894 41.5547 23.6398C40.3566 22.8863 39.1057 22.2609 37.8624 21.6204C36.9281 21.1456 35.9635 20.7387 34.999 20.2942C35.2175 20.1434 35.4361 20.0229 35.6245 19.8646C35.7603 19.7848 35.8743 19.6727 35.9564 19.5383C36.0385 19.4038 36.0862 19.2512 36.0951 19.0939C36.1041 18.9366 36.074 18.7795 36.0077 18.6366C35.9414 18.4937 35.8408 18.3694 35.7149 18.2747C35.6097 18.1785 35.5138 18.0725 35.4285 17.9582C35.1874 17.6191 35.2326 17.2725 35.6169 17.1143C36.0409 16.9381 36.4872 16.8214 36.9431 16.7676C37.878 16.7242 38.8134 16.8414 39.7086 17.1143C40.0175 17.1821 40.3265 17.2198 40.6354 17.2574C40.9444 17.2951 40.9971 17.1444 40.967 16.8957C40.9368 16.6471 40.9142 16.3683 40.9142 16.1045C40.8967 15.7324 40.9799 15.3624 41.1549 15.0336C41.3299 14.7047 41.5904 14.4291 41.9089 14.2358C42.5886 13.8379 43.3296 13.5552 44.1016 13.3994C44.6106 13.2727 45.14 13.2501 45.6579 13.333C46.1758 13.4159 46.6717 13.6025 47.1158 13.8816C47.5076 14.1077 47.8693 14.3639 48.2837 14.5899C48.6982 14.816 48.9694 14.7859 49.1126 14.2358C49.136 14.1063 49.2022 13.9883 49.3005 13.9009C49.3989 13.8135 49.5238 13.7616 49.6551 13.7535C50.0114 13.7318 50.369 13.7597 50.7176 13.8364C51.9141 14.1446 53.0018 14.7784 53.8598 15.6675C54.1015 15.9201 54.3047 16.2071 54.4626 16.519C54.6409 16.8139 54.7127 17.161 54.6661 17.5024C54.6194 17.8438 54.4572 18.1589 54.2064 18.3953C53.8975 18.7268 53.5358 19.0056 53.2043 19.307C52.6391 19.8345 52.0363 20.3243 51.5164 20.897C51.1605 21.2495 50.9015 21.6878 50.7642 22.1695C50.627 22.6512 50.6161 23.1602 50.7327 23.6473V23.6473Z" stroke="#4A4A4A" stroke-width="0.75" stroke-linecap="round" stroke-linejoin="round"/>
<path d="M8.37671 37.2937C8.50659 36.9702 8.7392 36.6983 9.03874 36.52C9.33829 36.3416 9.68815 36.2667 10.0345 36.3066C13.5588 36.2385 17.0693 36.7658 20.4181 37.8664C20.7793 37.9534 21.1179 38.1164 21.4112 38.3445C21.7045 38.5726 21.9458 38.8606 22.1191 39.1893C22.2924 39.518 22.3936 39.8798 22.416 40.2507C22.4384 40.6216 22.3816 40.993 22.2492 41.3402C20.3653 48.0014 18.4765 54.6626 16.5826 61.3237C16.5608 61.5089 16.5014 61.6877 16.4082 61.8492C16.3149 62.0107 16.1897 62.1515 16.0402 62.2629C15.8906 62.3743 15.72 62.4541 15.5386 62.4973C15.3572 62.5406 15.1689 62.5463 14.9851 62.5143C13.1013 62.5143 11.2175 62.5143 9.34122 62.5143C8.99894 62.4383 8.67254 62.3032 8.37671 62.1149V37.2937Z" fill="#E9EAEC" stroke="#4A4A4A" stroke-miterlimit="10"/>
<path d="M26.3936 41.1066C29.0396 41.2372 31.6359 41.8741 34.0419 42.9829C35.0444 43.4455 36.0137 43.9767 36.943 44.5728C38.0493 45.2237 39.2781 45.6393 40.5524 45.7935C42.5349 46.1475 44.4969 46.6078 46.4299 47.1725C47.3892 47.5144 48.2798 48.0248 49.0597 48.6795C49.4953 49.0274 49.8352 49.4804 50.0474 49.9958C50.2596 50.5112 50.3373 51.0722 50.2729 51.6258C50.2866 52.1208 50.1498 52.6083 49.8808 53.024C49.6117 53.4396 49.223 53.764 48.7659 53.9542C47.917 54.2995 47.0196 54.5105 46.1059 54.5797C43.2401 54.6556 40.3741 54.4359 37.5534 53.9241C36.4382 53.7659 35.3305 53.5775 34.1474 53.3891C34.2303 53.4871 34.2605 53.5473 34.3132 53.5775C37.111 55.4094 40.2512 56.6552 43.5439 57.2396C45.3253 57.4978 47.1432 57.2875 48.8186 56.6293C51.9608 55.4538 55.0428 54.1351 58.1774 52.9671C60.2798 52.2136 62.4198 51.4601 64.5824 50.8874C66.1466 50.4737 67.8097 50.6731 69.2317 51.445C69.7343 51.6818 70.1761 52.0303 70.5235 52.4638C70.8708 52.8974 71.1146 53.4046 71.2361 53.9467C71.3269 54.2315 71.331 54.5369 71.2478 54.8241C71.1646 55.1112 70.9979 55.3671 70.7689 55.5593C69.9537 56.3029 69.0848 56.9854 68.1692 57.6013C61.4338 61.8502 54.1086 65.0824 46.4299 67.1937C43.4537 67.9448 40.33 67.8798 37.3876 67.0053C31.7801 65.3973 26.3117 63.3385 21.036 60.849C20.9691 60.8042 20.9061 60.7538 20.8477 60.6983L26.3936 41.1066Z" stroke="#4A4A4A" stroke-width="0.75" stroke-linecap="round" stroke-linejoin="round"/>
<path d="M53.4649 26.6962L42.4975 45.9942" stroke="#4A4A4A"/>
</g>
<defs>
<clipPath id="clip0_262_150">
<rect width="63.545" height="55" fill="white" transform="translate(8 13)"/>
</clipPath>
</defs>
</svg>
